<?xml version="1.0" encoding="UTF-8" standalone="no"?>
<!-- Created with Inkscape (http://www.inkscape.org/) -->

<svg
   xmlns:dc="http://purl.org/dc/elements/1.1/"
   xmlns:cc="http://creativecommons.org/ns#"
   xmlns:rdf="http://www.w3.org/1999/02/22-rdf-syntax-ns#"
   xmlns:svg="http://www.w3.org/2000/svg"
   xmlns="http://www.w3.org/2000/svg"
   xmlns:sodipodi="http://sodipodi.sourceforge.net/DTD/sodipodi-0.dtd"
   xmlns:inkscape="http://www.inkscape.org/namespaces/inkscape"
   id="svg2"
   version="1.1"
   inkscape:version="0.48.4 r9939"
   width="256"
   height="256"
   sodipodi:docname="fusion.svg"
   inkscape:export-filename="C:\Users\PtaQ\Documents\GitHub\Balanced-Annihilation\luaui\icons\fusion.png"
   inkscape:export-xdpi="90"
   inkscape:export-ydpi="90">
  <metadata
     id="metadata8">
    <rdf:RDF>
      <cc:Work
         rdf:about="">
        <dc:format>image/svg+xml</dc:format>
        <dc:type
           rdf:resource="http://purl.org/dc/dcmitype/StillImage" />
        <dc:title></dc:title>
      </cc:Work>
    </rdf:RDF>
  </metadata>
  <defs
     id="defs6" />
  <sodipodi:namedview
     pagecolor="#ffffff"
     bordercolor="#666666"
     borderopacity="1"
     objecttolerance="10"
     gridtolerance="10"
     guidetolerance="10"
     inkscape:pageopacity="0"
     inkscape:pageshadow="2"
     inkscape:window-width="1920"
     inkscape:window-height="1018"
     id="namedview4"
     showgrid="false"
     inkscape:zoom="1.3037281"
     inkscape:cx="28.499327"
     inkscape:cy="239.19588"
     inkscape:window-x="-8"
     inkscape:window-y="-8"
     inkscape:window-maximized="1"
     inkscape:current-layer="svg2"
     showguides="true"
     inkscape:guide-bbox="true" />
  <path
     sodipodi:type="arc"
     style="fill:#000000;stroke:#000000;stroke-width:8.03787422000000080;stroke-linecap:butt;stroke-linejoin:bevel;stroke-miterlimit:4;stroke-opacity:1;stroke-dasharray:none;stroke-dashoffset:0;fill-opacity:1"
     id="path3765"
     sodipodi:cx="103.59322"
     sodipodi:cy="120.94915"
     sodipodi:rx="21.152542"
     sodipodi:ry="21.152542"
     d="m 124.74577,120.94915 a 21.152542,21.152542 0 1 1 -42.305089,0 21.152542,21.152542 0 1 1 42.305089,0 z"
     transform="matrix(0.60576875,0,0,0.60742409,65.502489,55.833192)" />
  <path
     sodipodi:type="arc"
     style="fill:none;stroke:#000000;stroke-width:10;stroke-linecap:butt;stroke-linejoin:bevel;stroke-miterlimit:4;stroke-opacity:1;stroke-dasharray:none;stroke-dashoffset:0"
     id="path3854"
     sodipodi:cx="47.18644"
     sodipodi:cy="53.694916"
     sodipodi:rx="117.69492"
     sodipodi:ry="117.69492"
     d="m 105.88218,155.70915 a 117.69492,117.69492 0 0 1 -117.768245,-0.2177"
     transform="matrix(0.65308578,0,0,0.65308578,97.262118,87.50313)"
     sodipodi:start="1.0486854"
     sodipodi:end="2.0966044"
     sodipodi:open="true" />
  <path
     sodipodi:type="arc"
     style="fill:none;stroke:#000000;stroke-width:21.13698959;stroke-linecap:butt;stroke-linejoin:bevel;stroke-miterlimit:4;stroke-opacity:1;stroke-dasharray:none;stroke-dashoffset:0"
     id="path3854-0"
     sodipodi:cx="47.18644"
     sodipodi:cy="53.694916"
     sodipodi:rx="117.69492"
     sodipodi:ry="117.69492"
     d="M 106.30224,155.46631 A 117.69492,117.69492 0 0 1 -11.954164,155.4519"
     transform="matrix(0.30897766,0,0,0.30897766,113.49936,105.97999)"
     sodipodi:start="1.0445629"
     sodipodi:end="2.0972735"
     sodipodi:open="true" />
  <path
     style="fill:none;stroke:#000000;stroke-width:6.53085804;stroke-linecap:butt;stroke-linejoin:miter;stroke-miterlimit:4;stroke-opacity:1;stroke-dasharray:none"
     d="M 113.29038,154.18429 92.707153,189.83552"
     id="path3920"
     inkscape:connector-curvature="0" />
  <path
     style="fill:none;stroke:#000000;stroke-width:6.53085804;stroke-linecap:butt;stroke-linejoin:miter;stroke-miterlimit:4;stroke-opacity:1;stroke-dasharray:none"
     d="m 143.42959,155.24765 20.58324,35.65121"
     id="path3920-8"
     inkscape:connector-curvature="0" />
  <path
     sodipodi:type="arc"
     style="fill:none;stroke:#000000;stroke-width:10;stroke-linecap:butt;stroke-linejoin:bevel;stroke-miterlimit:4;stroke-opacity:1;stroke-dasharray:none;stroke-dashoffset:0"
     id="path3854-8"
     sodipodi:cx="47.18644"
     sodipodi:cy="53.694916"
     sodipodi:rx="117.69492"
     sodipodi:ry="117.69492"
     d="m 105.88218,155.70915 a 117.69492,117.69492 0 0 1 -117.768245,-0.2177"
     transform="matrix(-0.31926595,-0.56972827,0.56972827,-0.31926595,107.72171,173.85742)"
     sodipodi:start="1.0486854"
     sodipodi:end="2.0966044"
     sodipodi:open="true" />
  <path
     sodipodi:type="arc"
     style="fill:none;stroke:#000000;stroke-width:21.13698959;stroke-linecap:butt;stroke-linejoin:bevel;stroke-miterlimit:4;stroke-opacity:1;stroke-dasharray:none;stroke-dashoffset:0"
     id="path3854-0-2"
     sodipodi:cx="47.18644"
     sodipodi:cy="53.694916"
     sodipodi:rx="117.69492"
     sodipodi:ry="117.69492"
     d="M 106.30224,155.46631 A 117.69492,117.69492 0 0 1 -11.954164,155.4519"
     transform="matrix(-0.15104608,-0.26954087,0.26954087,-0.15104608,115.90255,150.66009)"
     sodipodi:start="1.0445629"
     sodipodi:end="2.0972735"
     sodipodi:open="true" />
  <path
     style="fill:none;stroke:#000000;stroke-width:6.53085804;stroke-linecap:butt;stroke-linejoin:miter;stroke-miterlimit:4;stroke-opacity:1;stroke-dasharray:none"
     d="m 158.05638,127.27734 41.16311,0.5277"
     id="path3920-4"
     inkscape:connector-curvature="0" />
  <path
     style="fill:none;stroke:#000000;stroke-width:6.53085804;stroke-linecap:butt;stroke-linejoin:miter;stroke-miterlimit:4;stroke-opacity:1;stroke-dasharray:none"
     d="M 144.25025,100.46517 165.28879,65.080739"
     id="path3920-8-5"
     inkscape:connector-curvature="0" />
  <path
     sodipodi:type="arc"
     style="fill:none;stroke:#000000;stroke-width:10;stroke-linecap:butt;stroke-linejoin:bevel;stroke-miterlimit:4;stroke-opacity:1;stroke-dasharray:none;stroke-dashoffset:0"
     id="path3854-8-1"
     sodipodi:cx="47.18644"
     sodipodi:cy="53.694916"
     sodipodi:rx="117.69492"
     sodipodi:ry="117.69492"
     d="m 105.88218,155.70915 a 117.69492,117.69492 0 0 1 -117.768245,-0.2177"
     transform="matrix(0.32947934,-0.56388333,-0.56388333,-0.32947934,148.93194,175.4036)"
     sodipodi:start="1.0486854"
     sodipodi:end="2.0966044"
     sodipodi:open="true" />
  <path
     sodipodi:type="arc"
     style="fill:none;stroke:#000000;stroke-width:21.13698959;stroke-linecap:butt;stroke-linejoin:bevel;stroke-miterlimit:4;stroke-opacity:1;stroke-dasharray:none;stroke-dashoffset:0"
     id="path3854-0-2-5"
     sodipodi:cx="47.18644"
     sodipodi:cy="53.694916"
     sodipodi:rx="117.69492"
     sodipodi:ry="117.69492"
     d="M 106.30224,155.46631 A 117.69492,117.69492 0 0 1 -11.954164,155.4519"
     transform="matrix(0.15587807,-0.26677561,-0.26677561,-0.15587807,141.17038,152.06263)"
     sodipodi:start="1.0445629"
     sodipodi:end="2.0972735"
     sodipodi:open="true" />
  <path
     style="fill:none;stroke:#000000;stroke-width:6.53085804;stroke-linecap:butt;stroke-linejoin:miter;stroke-miterlimit:4;stroke-opacity:1;stroke-dasharray:none"
     d="M 99.444696,127.92415 58.278776,127.7101"
     id="path3920-4-2"
     inkscape:connector-curvature="0" />
  <path
     style="fill:none;stroke:#000000;stroke-width:6.53085804;stroke-linecap:butt;stroke-linejoin:miter;stroke-miterlimit:4;stroke-opacity:1;stroke-dasharray:none"
     d="M 113.73169,101.3651 93.33411,65.607334"
     id="path3920-8-5-7"
     inkscape:connector-curvature="0" />
  <path
     style="fill:none;stroke:none"
     d="m 52.231219,128.17544 0,-76.267669 76.518141,0 76.51814,0 0,76.267669 0,76.26768 -76.51814,0 -76.518141,0 0,-76.26768 z m 83.299911,74.24901 c 10.23451,-0.9927 20.2971,-3.95127 29.42862,-8.65248 3.29172,-1.69468 3.16027,-1.52885 2.40048,-3.02822 -0.35333,-0.69725 -0.59134,-1.3188 -0.52891,-1.38123 0.11253,-0.11253 -19.52613,-34.30473 -20.4023,-35.52174 -0.25099,-0.34861 -0.69895,-1.10942 -0.99548,-1.69066 -0.29653,-0.58125 -0.5779,-1.0568 -0.62529,-1.0568 -0.0474,0 -1.08767,0.49539 -2.31175,1.10086 -4.63469,2.2925 -8.89161,3.25816 -14.37331,3.26053 -5.61457,0.002 -9.42651,-0.85252 -14.50367,-3.25285 -1.29576,-0.6126 -2.3716,-1.08446 -2.39076,-1.04856 -0.0191,0.0359 -0.60815,1.0233 -1.30887,2.19424 -2.77236,4.63272 -19.288825,33.35009 -20.637846,35.88325 l -1.435834,2.69618 1.040264,0.58762 c 9.293751,5.24985 19.396016,8.4838 30.595556,9.7943 3.44426,0.40302 12.4192,0.46764 16.0491,0.11556 l 0,0 z m -2.95334,-52.48095 c 7.80412,-1.61198 14.00128,-7.578 16.10713,-15.50634 0.74656,-2.81071 0.74656,-7.4585 0,-10.26921 -1.064,-4.00591 -3.1772,-7.56709 -6.12856,-10.32795 -7.98112,-7.46594 -20.63475,-7.46594 -28.61587,0 -11.34101,10.60896 -7.75553,29.47154 6.67722,35.1277 3.50473,1.37348 8.18578,1.75541 11.96008,0.9758 l 0,0 z m -31.21495,-21.26712 c 0.37497,-5.69154 2.19637,-11.00069 5.49938,-16.02998 1.74078,-2.65061 6.27207,-7.15671 9.02712,-8.97693 l 2.16809,-1.43243 -0.95771,-1.68321 c -0.52673,-0.925761 -5.38149,-9.460254 -10.78834,-18.965535 -5.40684,-9.505282 -10.072537,-17.510988 -10.368201,-17.790458 -0.295662,-0.27947 -0.752041,-0.871202 -1.014174,-1.31496 -0.262135,-0.443758 -0.577863,-0.806832 -0.701623,-0.806832 -0.326225,0 -3.7087,2.108067 -6.179162,3.851051 -6.851319,4.833809 -12.947423,10.775541 -18.020346,17.56401 -3.26893,4.374407 -5.145653,7.442746 -7.65985,12.523427 -5.036962,10.178677 -7.654178,20.257517 -8.276374,31.872117 -0.09779,1.8253 -0.133714,3.33806 -0.07985,3.36172 0.250151,0.10983 25.846007,0.35553 35.914934,0.34476 l 11.271086,-0.0121 0.16502,-2.50469 0,1e-5 z m 102.15138,0.82819 c 0,-2.56535 -0.50193,-8.38479 -1.02196,-11.8488 -3.36005,-22.381678 -16.36954,-42.553375 -35.45785,-54.978725 l -2.70396,-1.760119 -0.75643,1.2562 c -0.41604,0.690909 -0.87016,1.259724 -1.00915,1.264034 -0.139,0.0043 -4.93022,7.905765 -10.64716,17.558789 -12.98741,21.929151 -12.04312,20.321181 -11.96417,20.372711 0.0368,0.024 0.91223,0.59319 1.94542,1.26482 2.33395,1.51722 6.72511,5.88556 8.42868,8.38487 3.50157,5.13714 5.44037,10.7571 5.76774,16.71877 l 0.15473,2.81778 1.1525,0.0343 c 4.15411,0.12368 25.3056,0.37817 34.77791,0.41844 l 11.3337,0.0482 0,-1.55125 z"
     id="path4017"
     inkscape:connector-curvature="0" />
  <path
     style="fill:none;stroke:none"
     d="m 178.09166,130.7774 c -9.91854,-0.12387 -18.83447,-0.28905 -19.81315,-0.36705 l -1.77943,-0.14182 -0.16455,-2.51112 c -0.66154,-10.09448 -6.0968,-19.71255 -14.24807,-25.21298 l -1.90933,-1.28839 1.70687,-2.945993 c 5.23439,-9.034357 20.39077,-34.31054 20.76537,-34.630254 0.24212,-0.206636 0.74426,-0.852229 1.11587,-1.434651 l 0.67566,-1.058948 2.19171,1.418128 c 17.06335,11.040679 29.4225,28.365099 34.24272,47.999678 1.42804,5.81698 2.37223,12.90231 2.38328,17.88453 l 0.006,2.31684 -1.18973,10e-4 c -0.65434,6.5e-4 -2.26048,0.0451 -3.56917,0.0986 -1.3087,0.0535 -10.49464,-0.004 -20.41319,-0.12789 l 0,5e-5 z m 15.90476,-9.0237 c 0,-0.82865 -1.12908,-6.7431 -1.78402,-9.34523 -3.06954,-12.19546 -9.61081,-23.794994 -18.37535,-32.584735 -2.72994,-2.73779 -6.54624,-6.1252 -6.90071,-6.1252 -0.10095,0 -2.88646,4.536612 -6.1901,10.081359 -9.29845,15.606305 -8.94449,14.981399 -8.68636,15.335515 0.12844,0.176202 1.17148,1.376671 2.31788,2.667711 4.72653,5.32289 7.94251,11.52921 9.8129,18.93733 l 0.26786,1.06094 7.81845,0.0699 c 21.5446,0.19254 21.71945,0.19175 21.71945,-0.0976 z"
     id="path4019"
     inkscape:connector-curvature="0" />
  <path
     style="fill:none;stroke:none"
     d="m 167.91164,121.60143 -3.41735,-0.0772 -0.1728,-0.93236 c -0.32365,-1.74621 -1.94164,-6.43654 -3.0001,-8.69689 -1.87844,-4.01141 -4.43664,-7.75249 -7.69856,-11.2583 l -1.61943,-1.740506 2.72897,-4.646448 c 5.83954,-9.942583 12.08507,-20.300731 12.24049,-20.300731 0.0896,0 1.16284,0.867543 2.38483,1.927872 11.32526,9.82705 19.20817,22.575768 22.73569,36.769523 0.55511,2.23358 1.65256,8.11537 1.65256,8.85683 0,0.26992 -15.60582,0.32923 -25.8343,0.0982 z"
     id="path4021"
     inkscape:connector-curvature="0" />
  <path
     sodipodi:type="star"
     style="fill:none;stroke:#000000;stroke-width:15;stroke-linecap:butt;stroke-linejoin:bevel;stroke-miterlimit:4;stroke-opacity:1;stroke-dasharray:none;stroke-dashoffset:0"
     id="path4047"
     sodipodi:sides="8"
     sodipodi:cx="128.54237"
     sodipodi:cy="129.08475"
     sodipodi:r1="118.24226"
     sodipodi:r2="109.24161"
     sodipodi:arg1="-0.38561707"
     sodipodi:arg2="0.0070820165"
     inkscape:flatsided="true"
     inkscape:rounded="1.0408341e-017"
     inkscape:randomized="0"
     d="M 238.1017,84.610171 237.46079,175.10661 173.01695,238.64407 82.520509,238.00316 18.983052,173.55932 19.62396,83.062883 84.067797,19.525426 174.56424,20.166333 z" />
  <path
     style="fill:#000000;fill-opacity:1;stroke:#000000;stroke-width:5.75273323;stroke-linecap:butt;stroke-linejoin:bevel;stroke-miterlimit:4;stroke-opacity:1;stroke-dasharray:none;stroke-dashoffset:0"
     d="m 61.351907,122.14558 c 1.311801,-12.55064 7.150894,-26.342866 15.715256,-37.120212 4.239174,-5.334553 14.006969,-14.212799 15.199501,-13.815288 0.222634,0.07421 4.103222,6.606457 8.623526,14.516101 l 8.21875,14.381169 -2.88009,2.90267 c -5.77072,5.81596 -9.302224,12.33634 -11.046617,20.3959 l -0.22827,1.05467 -16.922011,0 -16.922012,0 0.241967,-2.31501 0,0 z"
     id="path4071"
     inkscape:connector-curvature="0" />
  <path
     style="fill:#000000;fill-opacity:1;stroke:#000000;stroke-width:5.75273323;stroke-linecap:butt;stroke-linejoin:bevel;stroke-miterlimit:4;stroke-opacity:1;stroke-dasharray:none;stroke-dashoffset:0"
     d="m 176.21089,124.17314 -13.67778,-0.10569 -0.26811,-1.62513 c -1.14756,-6.95601 -5.32387,-14.94049 -10.62762,-20.31841 -1.453,-1.47332 -2.56464,-2.874931 -2.4703,-3.114691 0.18158,-0.46152 16.72302,-28.33596 16.95355,-28.568906 0.3187,-0.322046 5.28855,3.863459 9.01966,7.596183 11.50454,11.509508 19.25101,27.245814 20.87073,42.397184 0.1353,1.2656 0.3265,2.6894 0.42489,3.164 0.17582,0.84808 0.12111,0.86135 -3.18417,0.77203 -1.84969,-0.05 -9.51807,-0.13844 -17.04085,-0.19657 z"
     id="path4073"
     inkscape:connector-curvature="0" />
  <path
     style="fill:#000000;fill-opacity:1;stroke:#000000;stroke-width:5.75273323;stroke-linecap:butt;stroke-linejoin:bevel;stroke-miterlimit:4;stroke-opacity:1;stroke-dasharray:none;stroke-dashoffset:0"
     d="m 123.15697,195.7709 c -5.50898,-0.38464 -8.63517,-0.9021 -13.95031,-2.30909 -4.20155,-1.11222 -10.997501,-3.55613 -11.702666,-4.20844 -0.19201,-0.17761 3.310176,-6.64999 8.017166,-14.81649 4.59696,-7.97561 8.39083,-14.54609 8.43083,-14.60108 0.04,-0.055 0.76505,0.1443 1.61124,0.44285 7.04717,2.48639 17.72546,2.51001 24.63358,0.0545 0.93457,-0.33219 1.82357,-0.47121 1.97557,-0.30892 0.152,0.16228 4.0088,6.76689 8.57067,14.6769 l 8.29432,14.38183 -2.01704,0.92848 c -9.27202,4.26811 -22.64565,6.54269 -33.86336,5.75946 z"
     id="path4075"
     inkscape:connector-curvature="0" />
  <path
     style="fill:#ffffff;fill-opacity:1;stroke:none;stroke-width:11.50546645999999900;stroke-linecap:butt;stroke-linejoin:bevel;stroke-miterlimit:4;stroke-opacity:1;stroke-dasharray:none;stroke-dashoffset:0"
     d="m 110.41825,230.20796 -24.928514,-0.3993 -29.464264,-29.73261 -29.464264,-29.73261 0.472975,-41.9848 0.472975,-41.984796 29.716417,-29.338939 29.716417,-29.338939 42.228618,0.100389 42.22861,0.100388 29.36403,29.76061 29.36402,29.76061 -0.21684,42.259407 -0.21685,42.25941 -29.91421,29.47007 -29.91421,29.47007 -17.2582,-0.13483 c -9.49201,-0.0742 -28.47603,-0.31452 -42.18671,-0.53413 z m 30.68124,-28.49505 c 6.76488,-0.96764 12.70805,-2.84905 20.91317,-6.62042 5.18215,-2.3819 5.89399,-2.94544 5.47834,-4.33705 -0.26274,-0.87969 -5.35912,-10.14958 -11.32528,-20.59976 -7.87995,-13.80235 -11.16232,-18.90072 -11.99811,-18.63618 -0.6328,0.2003 -3.22153,1.10841 -5.75273,2.01804 -6.09592,2.19066 -17.05751,1.79402 -23.22075,-0.84024 -2.22475,-0.95088 -4.16546,-1.59319 -4.3127,-1.42734 -1.02312,1.15236 -22.707085,39.54188 -22.707085,40.20085 0,0.45713 1.639529,1.63909 3.643398,2.62657 16.170007,7.96838 30.900717,10.24473 49.281747,7.61553 z m -5.55852,-58.86633 c 5.23086,-2.66971 7.96919,-7.31195 7.96919,-13.51001 0,-6.99352 -4.07751,-12.61919 -10.77071,-14.86016 -12.13097,-4.0616 -23.96806,9.31936 -18.56593,20.98742 3.91034,8.44592 13.07803,11.61349 21.36745,7.38275 z m -33.59018,-16.7374 c 0.49191,-2.82478 1.79119,-7.03167 2.8873,-9.34863 1.94808,-4.11791 7.92391,-10.89143 11.68422,-13.24391 l 1.88539,-1.17951 -10.94705,-19.220853 C 101.43978,72.544809 95.914462,63.353207 95.182172,62.690495 93.957021,61.581748 93.436561,61.76341 88.662362,64.966173 82.212476,69.293067 72.52785,78.896696 68.22566,85.231952 c -4.535328,6.678566 -9.702603,17.893708 -11.522034,25.007608 -1.69688,6.63475 -3.321965,19.17099 -2.63024,20.29022 0.257748,0.41705 10.14653,0.71538 23.712568,0.71538 l 23.270436,0 0.8944,-5.13598 z m 101.38786,-0.23323 c -0.81958,-23.52682 -14.11428,-47.928201 -33.36269,-61.234612 -5.16605,-3.571292 -5.68795,-3.771717 -6.70664,-2.575541 -0.95097,1.11665 -7.18125,11.417887 -20.33745,33.626213 l -3.24814,5.48301 3.65939,2.94813 c 2.01266,1.62147 4.79245,4.42411 6.17733,6.22809 3.15047,4.1039 6.15263,12.23154 6.15263,16.6568 0,2.87643 0.24987,3.41235 1.72582,3.70149 0.9492,0.18595 11.71303,0.29625 23.91963,0.2451 l 22.1938,-0.093 -0.17368,-4.9857 z"
     id="path4077"
     inkscape:connector-curvature="0" />
</svg>
