<?xml version="1.0" encoding="UTF-8" standalone="no"?>
<!-- Created with Inkscape (http://www.inkscape.org/) -->

<svg
   xmlns:dc="http://purl.org/dc/elements/1.1/"
   xmlns:cc="http://creativecommons.org/ns#"
   xmlns:rdf="http://www.w3.org/1999/02/22-rdf-syntax-ns#"
   xmlns:svg="http://www.w3.org/2000/svg"
   xmlns="http://www.w3.org/2000/svg"
   xmlns:sodipodi="http://sodipodi.sourceforge.net/DTD/sodipodi-0.dtd"
   xmlns:inkscape="http://www.inkscape.org/namespaces/inkscape"
   id="svg2"
   version="1.1"
   inkscape:version="0.48.4 r9939"
   width="256"
   height="256"
   sodipodi:docname="fusion.svg"
   inkscape:export-filename="C:\Users\PtaQ\Documents\GitHub\Balanced-Annihilation\luaui\icons\fusion.png"
   inkscape:export-xdpi="90"
   inkscape:export-ydpi="90">
  <metadata
     id="metadata8">
    <rdf:RDF>
      <cc:Work
         rdf:about="">
        <dc:format>image/svg+xml</dc:format>
        <dc:type
           rdf:resource="http://purl.org/dc/dcmitype/StillImage" />
        <dc:title></dc:title>
      </cc:Work>
    </rdf:RDF>
  </metadata>
  <defs
     id="defs6" />
  <sodipodi:namedview
     pagecolor="#ffffff"
     bordercolor="#666666"
     borderopacity="1"
     objecttolerance="10"
     gridtolerance="10"
     guidetolerance="10"
     inkscape:pageopacity="0"
     inkscape:pageshadow="2"
     inkscape:window-width="511"
     inkscape:window-height="423"
     id="namedview4"
     showgrid="false"
     inkscape:zoom="1.84375"
     inkscape:cx="110.39145"
     inkscape:cy="215.45843"
     inkscape:window-x="100"
     inkscape:window-y="100"
     inkscape:window-maximized="0"
     inkscape:current-layer="svg2"
     showguides="true"
     inkscape:guide-bbox="true" />
  <path
     sodipodi:type="star"
     style="fill:none;stroke:#000000;stroke-width:15;stroke-linecap:butt;stroke-linejoin:bevel;stroke-miterlimit:4;stroke-opacity:1;stroke-dasharray:none;stroke-dashoffset:0"
     id="path4047"
     sodipodi:sides="8"
     sodipodi:cx="128.54237"
     sodipodi:cy="129.08475"
     sodipodi:r1="118.24226"
     sodipodi:r2="109.24161"
     sodipodi:arg1="-0.38561707"
     sodipodi:arg2="0.0070820165"
     inkscape:flatsided="true"
     inkscape:rounded="1.0408341e-017"
     inkscape:randomized="0"
     d="M 238.1017,84.610171 237.46079,175.10661 173.01695,238.64407 82.520509,238.00316 18.983052,173.55932 19.62396,83.062883 84.067797,19.525426 174.56424,20.166333 z"
     transform="matrix(1.07863,0,0,1.07863,-10.107285,-10.149932)" />
  <g
     id="g3772"
     transform="matrix(1.2773461,0,0,1.2773461,-35.165748,-35.006588)">
    <path
       transform="matrix(0.60576875,0,0,0.60742409,65.502489,55.833192)"
       d="m 124.74577,120.94915 c 0,11.68223 -9.47032,21.15254 -21.15255,21.15254 -11.682223,0 -21.152539,-9.47031 -21.152539,-21.15254 0,-11.68223 9.470316,-21.152542 21.152539,-21.152542 11.68223,0 21.15255,9.470312 21.15255,21.152542 z"
       sodipodi:ry="21.152542"
       sodipodi:rx="21.152542"
       sodipodi:cy="120.94915"
       sodipodi:cx="103.59322"
       id="path3765"
       style="fill:#000000;fill-opacity:1;stroke:#000000;stroke-width:8.03787422;stroke-linecap:butt;stroke-linejoin:bevel;stroke-miterlimit:4;stroke-opacity:1;stroke-dasharray:none;stroke-dashoffset:0"
       sodipodi:type="arc" />
    <path
       sodipodi:open="true"
       sodipodi:end="2.0966044"
       sodipodi:start="1.0486854"
       transform="matrix(0.65308578,0,0,0.65308578,97.262118,87.50313)"
       d="m 105.88218,155.70915 c -36.472467,20.9851 -81.373607,20.9021 -117.768245,-0.2177"
       sodipodi:ry="117.69492"
       sodipodi:rx="117.69492"
       sodipodi:cy="53.694916"
       sodipodi:cx="47.18644"
       id="path3854"
       style="fill:none;stroke:#000000;stroke-width:10;stroke-linecap:butt;stroke-linejoin:bevel;stroke-miterlimit:4;stroke-opacity:1;stroke-dasharray:none;stroke-dashoffset:0"
       sodipodi:type="arc" />
    <path
       sodipodi:open="true"
       sodipodi:end="2.0972735"
       sodipodi:start="1.0445629"
       transform="matrix(0.30897766,0,0,0.30897766,113.49936,105.97999)"
       d="M 106.30224,155.46631 C 69.742294,176.70283 24.600603,176.69733 -11.954164,155.4519"
       sodipodi:ry="117.69492"
       sodipodi:rx="117.69492"
       sodipodi:cy="53.694916"
       sodipodi:cx="47.18644"
       id="path3854-0"
       style="fill:none;stroke:#000000;stroke-width:21.13698959;stroke-linecap:butt;stroke-linejoin:bevel;stroke-miterlimit:4;stroke-opacity:1;stroke-dasharray:none;stroke-dashoffset:0"
       sodipodi:type="arc" />
    <path
       inkscape:connector-curvature="0"
       id="path3920"
       d="M 113.29038,154.18429 92.707153,189.83552"
       style="fill:none;stroke:#000000;stroke-width:6.53085804;stroke-linecap:butt;stroke-linejoin:miter;stroke-miterlimit:4;stroke-opacity:1;stroke-dasharray:none" />
    <path
       inkscape:connector-curvature="0"
       id="path3920-8"
       d="m 143.42959,155.24765 20.58324,35.65121"
       style="fill:none;stroke:#000000;stroke-width:6.53085804;stroke-linecap:butt;stroke-linejoin:miter;stroke-miterlimit:4;stroke-opacity:1;stroke-dasharray:none" />
    <path
       sodipodi:open="true"
       sodipodi:end="2.0966044"
       sodipodi:start="1.0486854"
       transform="matrix(-0.31926595,-0.56972827,0.56972827,-0.31926595,107.72171,173.85742)"
       d="m 105.88218,155.70915 c -36.472467,20.9851 -81.373607,20.9021 -117.768245,-0.2177"
       sodipodi:ry="117.69492"
       sodipodi:rx="117.69492"
       sodipodi:cy="53.694916"
       sodipodi:cx="47.18644"
       id="path3854-8"
       style="fill:none;stroke:#000000;stroke-width:10;stroke-linecap:butt;stroke-linejoin:bevel;stroke-miterlimit:4;stroke-opacity:1;stroke-dasharray:none;stroke-dashoffset:0"
       sodipodi:type="arc" />
    <path
       sodipodi:open="true"
       sodipodi:end="2.0972735"
       sodipodi:start="1.0445629"
       transform="matrix(-0.15104608,-0.26954087,0.26954087,-0.15104608,115.90255,150.66009)"
       d="M 106.30224,155.46631 C 69.742294,176.70283 24.600603,176.69733 -11.954164,155.4519"
       sodipodi:ry="117.69492"
       sodipodi:rx="117.69492"
       sodipodi:cy="53.694916"
       sodipodi:cx="47.18644"
       id="path3854-0-2"
       style="fill:none;stroke:#000000;stroke-width:21.13698959;stroke-linecap:butt;stroke-linejoin:bevel;stroke-miterlimit:4;stroke-opacity:1;stroke-dasharray:none;stroke-dashoffset:0"
       sodipodi:type="arc" />
    <path
       inkscape:connector-curvature="0"
       id="path3920-4"
       d="m 158.05638,127.27734 41.16311,0.5277"
       style="fill:none;stroke:#000000;stroke-width:6.53085804;stroke-linecap:butt;stroke-linejoin:miter;stroke-miterlimit:4;stroke-opacity:1;stroke-dasharray:none" />
    <path
       inkscape:connector-curvature="0"
       id="path3920-8-5"
       d="M 144.25025,100.46517 165.28879,65.080739"
       style="fill:none;stroke:#000000;stroke-width:6.53085804;stroke-linecap:butt;stroke-linejoin:miter;stroke-miterlimit:4;stroke-opacity:1;stroke-dasharray:none" />
    <path
       sodipodi:open="true"
       sodipodi:end="2.0966044"
       sodipodi:start="1.0486854"
       transform="matrix(0.32947934,-0.56388333,-0.56388333,-0.32947934,148.93194,175.4036)"
       d="m 105.88218,155.70915 c -36.472467,20.9851 -81.373607,20.9021 -117.768245,-0.2177"
       sodipodi:ry="117.69492"
       sodipodi:rx="117.69492"
       sodipodi:cy="53.694916"
       sodipodi:cx="47.18644"
       id="path3854-8-1"
       style="fill:none;stroke:#000000;stroke-width:10;stroke-linecap:butt;stroke-linejoin:bevel;stroke-miterlimit:4;stroke-opacity:1;stroke-dasharray:none;stroke-dashoffset:0"
       sodipodi:type="arc" />
    <path
       sodipodi:open="true"
       sodipodi:end="2.0972735"
       sodipodi:start="1.0445629"
       transform="matrix(0.15587807,-0.26677561,-0.26677561,-0.15587807,141.17038,152.06263)"
       d="M 106.30224,155.46631 C 69.742294,176.70283 24.600603,176.69733 -11.954164,155.4519"
       sodipodi:ry="117.69492"
       sodipodi:rx="117.69492"
       sodipodi:cy="53.694916"
       sodipodi:cx="47.18644"
       id="path3854-0-2-5"
       style="fill:none;stroke:#000000;stroke-width:21.13698959;stroke-linecap:butt;stroke-linejoin:bevel;stroke-miterlimit:4;stroke-opacity:1;stroke-dasharray:none;stroke-dashoffset:0"
       sodipodi:type="arc" />
    <path
       inkscape:connector-curvature="0"
       id="path3920-4-2"
       d="M 99.444696,127.92415 58.278776,127.7101"
       style="fill:none;stroke:#000000;stroke-width:6.53085804;stroke-linecap:butt;stroke-linejoin:miter;stroke-miterlimit:4;stroke-opacity:1;stroke-dasharray:none" />
    <path
       inkscape:connector-curvature="0"
       id="path3920-8-5-7"
       d="M 113.73169,101.3651 93.33411,65.607334"
       style="fill:none;stroke:#000000;stroke-width:6.53085804;stroke-linecap:butt;stroke-linejoin:miter;stroke-miterlimit:4;stroke-opacity:1;stroke-dasharray:none" />
    <path
       inkscape:connector-curvature="0"
       id="path4017"
       d="m 52.231219,128.17544 0,-76.267669 76.518141,0 76.51814,0 0,76.267669 0,76.26768 -76.51814,0 -76.518141,0 0,-76.26768 z m 83.299911,74.24901 c 10.23451,-0.9927 20.2971,-3.95127 29.42862,-8.65248 3.29172,-1.69468 3.16027,-1.52885 2.40048,-3.02822 -0.35333,-0.69725 -0.59134,-1.3188 -0.52891,-1.38123 0.11253,-0.11253 -19.52613,-34.30473 -20.4023,-35.52174 -0.25099,-0.34861 -0.69895,-1.10942 -0.99548,-1.69066 -0.29653,-0.58125 -0.5779,-1.0568 -0.62529,-1.0568 -0.0474,0 -1.08767,0.49539 -2.31175,1.10086 -4.63469,2.2925 -8.89161,3.25816 -14.37331,3.26053 -5.61457,0.002 -9.42651,-0.85252 -14.50367,-3.25285 -1.29576,-0.6126 -2.3716,-1.08446 -2.39076,-1.04856 -0.0191,0.0359 -0.60815,1.0233 -1.30887,2.19424 -2.77236,4.63272 -19.288825,33.35009 -20.637846,35.88325 l -1.435834,2.69618 1.040264,0.58762 c 9.293751,5.24985 19.396016,8.4838 30.595556,9.7943 3.44426,0.40302 12.4192,0.46764 16.0491,0.11556 l 0,0 z m -2.95334,-52.48095 c 7.80412,-1.61198 14.00128,-7.578 16.10713,-15.50634 0.74656,-2.81071 0.74656,-7.4585 0,-10.26921 -1.064,-4.00591 -3.1772,-7.56709 -6.12856,-10.32795 -7.98112,-7.46594 -20.63475,-7.46594 -28.61587,0 -11.34101,10.60896 -7.75553,29.47154 6.67722,35.1277 3.50473,1.37348 8.18578,1.75541 11.96008,0.9758 l 0,0 z m -31.21495,-21.26712 c 0.37497,-5.69154 2.19637,-11.00069 5.49938,-16.02998 1.74078,-2.65061 6.27207,-7.15671 9.02712,-8.97693 l 2.16809,-1.43243 -0.95771,-1.68321 c -0.52673,-0.925761 -5.38149,-9.460254 -10.78834,-18.965535 -5.40684,-9.505282 -10.072537,-17.510988 -10.368201,-17.790458 -0.295662,-0.27947 -0.752041,-0.871202 -1.014174,-1.31496 -0.262135,-0.443758 -0.577863,-0.806832 -0.701623,-0.806832 -0.326225,0 -3.7087,2.108067 -6.179162,3.851051 -6.851319,4.833809 -12.947423,10.775541 -18.020346,17.56401 -3.26893,4.374407 -5.145653,7.442746 -7.65985,12.523427 -5.036962,10.178677 -7.654178,20.257517 -8.276374,31.872117 -0.09779,1.8253 -0.133714,3.33806 -0.07985,3.36172 0.250151,0.10983 25.846007,0.35553 35.914934,0.34476 l 11.271086,-0.0121 0.16502,-2.50469 0,1e-5 z m 102.15138,0.82819 c 0,-2.56535 -0.50193,-8.38479 -1.02196,-11.8488 -3.36005,-22.381678 -16.36954,-42.553375 -35.45785,-54.978725 l -2.70396,-1.760119 -0.75643,1.2562 c -0.41604,0.690909 -0.87016,1.259724 -1.00915,1.264034 -0.139,0.0043 -4.93022,7.905765 -10.64716,17.558789 -12.98741,21.929151 -12.04312,20.321181 -11.96417,20.372711 0.0368,0.024 0.91223,0.59319 1.94542,1.26482 2.33395,1.51722 6.72511,5.88556 8.42868,8.38487 3.50157,5.13714 5.44037,10.7571 5.76774,16.71877 l 0.15473,2.81778 1.1525,0.0343 c 4.15411,0.12368 25.3056,0.37817 34.77791,0.41844 l 11.3337,0.0482 0,-1.55125 z"
       style="fill:none;stroke:none" />
    <path
       inkscape:connector-curvature="0"
       id="path4019"
       d="m 178.09166,130.7774 c -9.91854,-0.12387 -18.83447,-0.28905 -19.81315,-0.36705 l -1.77943,-0.14182 -0.16455,-2.51112 c -0.66154,-10.09448 -6.0968,-19.71255 -14.24807,-25.21298 l -1.90933,-1.28839 1.70687,-2.945993 c 5.23439,-9.034357 20.39077,-34.31054 20.76537,-34.630254 0.24212,-0.206636 0.74426,-0.852229 1.11587,-1.434651 l 0.67566,-1.058948 2.19171,1.418128 c 17.06335,11.040679 29.4225,28.365099 34.24272,47.999678 1.42804,5.81698 2.37223,12.90231 2.38328,17.88453 l 0.006,2.31684 -1.18973,10e-4 c -0.65434,6.5e-4 -2.26048,0.0451 -3.56917,0.0986 -1.3087,0.0535 -10.49464,-0.004 -20.41319,-0.12789 l 0,5e-5 z m 15.90476,-9.0237 c 0,-0.82865 -1.12908,-6.7431 -1.78402,-9.34523 -3.06954,-12.19546 -9.61081,-23.794994 -18.37535,-32.584735 -2.72994,-2.73779 -6.54624,-6.1252 -6.90071,-6.1252 -0.10095,0 -2.88646,4.536612 -6.1901,10.081359 -9.29845,15.606305 -8.94449,14.981399 -8.68636,15.335515 0.12844,0.176202 1.17148,1.376671 2.31788,2.667711 4.72653,5.32289 7.94251,11.52921 9.8129,18.93733 l 0.26786,1.06094 7.81845,0.0699 c 21.5446,0.19254 21.71945,0.19175 21.71945,-0.0976 z"
       style="fill:none;stroke:none" />
    <path
       inkscape:connector-curvature="0"
       id="path4021"
       d="m 167.91164,121.60143 -3.41735,-0.0772 -0.1728,-0.93236 c -0.32365,-1.74621 -1.94164,-6.43654 -3.0001,-8.69689 -1.87844,-4.01141 -4.43664,-7.75249 -7.69856,-11.2583 l -1.61943,-1.740506 2.72897,-4.646448 c 5.83954,-9.942583 12.08507,-20.300731 12.24049,-20.300731 0.0896,0 1.16284,0.867543 2.38483,1.927872 11.32526,9.82705 19.20817,22.575768 22.73569,36.769523 0.55511,2.23358 1.65256,8.11537 1.65256,8.85683 0,0.26992 -15.60582,0.32923 -25.8343,0.0982 z"
       style="fill:none;stroke:none" />
    <path
       inkscape:connector-curvature="0"
       id="path4071"
       d="m 61.351907,122.14558 c 1.311801,-12.55064 7.150894,-26.342866 15.715256,-37.120212 4.239174,-5.334553 14.006969,-14.212799 15.199501,-13.815288 0.222634,0.07421 4.103222,6.606457 8.623526,14.516101 l 8.21875,14.381169 -2.88009,2.90267 c -5.77072,5.81596 -9.302224,12.33634 -11.046617,20.3959 l -0.22827,1.05467 -16.922011,0 -16.922012,0 0.241967,-2.31501 0,0 z"
       style="fill:#000000;fill-opacity:1;stroke:#000000;stroke-width:5.75273323;stroke-linecap:butt;stroke-linejoin:bevel;stroke-miterlimit:4;stroke-opacity:1;stroke-dasharray:none;stroke-dashoffset:0" />
    <path
       inkscape:connector-curvature="0"
       id="path4073"
       d="m 176.21089,124.17314 -13.67778,-0.10569 -0.26811,-1.62513 c -1.14756,-6.95601 -5.32387,-14.94049 -10.62762,-20.31841 -1.453,-1.47332 -2.56464,-2.874931 -2.4703,-3.114691 0.18158,-0.46152 16.72302,-28.33596 16.95355,-28.568906 0.3187,-0.322046 5.28855,3.863459 9.01966,7.596183 11.50454,11.509508 19.25101,27.245814 20.87073,42.397184 0.1353,1.2656 0.3265,2.6894 0.42489,3.164 0.17582,0.84808 0.12111,0.86135 -3.18417,0.77203 -1.84969,-0.05 -9.51807,-0.13844 -17.04085,-0.19657 z"
       style="fill:#000000;fill-opacity:1;stroke:#000000;stroke-width:5.75273323;stroke-linecap:butt;stroke-linejoin:bevel;stroke-miterlimit:4;stroke-opacity:1;stroke-dasharray:none;stroke-dashoffset:0" />
    <path
       inkscape:connector-curvature="0"
       id="path4075"
       d="m 123.15697,195.7709 c -5.50898,-0.38464 -8.63517,-0.9021 -13.95031,-2.30909 -4.20155,-1.11222 -10.997501,-3.55613 -11.702666,-4.20844 -0.19201,-0.17761 3.310176,-6.64999 8.017166,-14.81649 4.59696,-7.97561 8.39083,-14.54609 8.43083,-14.60108 0.04,-0.055 0.76505,0.1443 1.61124,0.44285 7.04717,2.48639 17.72546,2.51001 24.63358,0.0545 0.93457,-0.33219 1.82357,-0.47121 1.97557,-0.30892 0.152,0.16228 4.0088,6.76689 8.57067,14.6769 l 8.29432,14.38183 -2.01704,0.92848 c -9.27202,4.26811 -22.64565,6.54269 -33.86336,5.75946 z"
       style="fill:#000000;fill-opacity:1;stroke:#000000;stroke-width:5.75273323;stroke-linecap:butt;stroke-linejoin:bevel;stroke-miterlimit:4;stroke-opacity:1;stroke-dasharray:none;stroke-dashoffset:0" />
  </g>
  <path
     style="fill:#ffffff;fill-opacity:1;stroke:none"
     d="M 123.95077,238.62172 82.459247,238.30135 63.467973,219.06892 C 53.022773,208.49108 38.656724,193.94513 31.54342,186.74459 l -12.93328,-13.0919 0.355467,-45.21318 0.355466,-45.213194 32.11146,-31.893132 32.111459,-31.893132 45.522358,0.193303 45.52236,0.193303 31.9079,32.242202 31.90789,32.242202 -0.30711,45.288138 -0.30712,45.28813 -32.37738,32.12133 -32.37737,32.12133 -3.79661,-0.0939 c -2.08814,-0.0517 -22.4678,-0.23812 -45.28814,-0.41432 l 0,0 z M 145.3745,222.7076 c 10.57334,-1.97288 19.9379,-5.04906 28.74576,-9.44273 2.68475,-1.33925 4.96478,-2.51058 5.06674,-2.60295 0.61947,-0.56123 -2.77551,-6.92861 -15.02586,-28.18137 -7.56565,-13.12542 -13.8633,-24.04502 -13.99477,-24.26579 -0.13148,-0.22076 -1.38547,0.17856 -2.78665,0.88739 -11.42893,5.78165 -26.10782,5.76014 -37.72016,-0.0553 -1.44662,-0.72446 -2.7009,-1.23978 -2.7873,-1.14514 -0.37856,0.41462 -26.309333,45.53385 -27.955299,48.64188 -2.10905,3.98244 -2.213012,3.77417 3.271099,6.55335 10.084464,5.11053 22.98266,8.90531 35.79661,10.53173 4.02722,0.51115 23.16272,-0.13234 27.38983,-0.92108 z m -8.40313,-74.77866 c 4.05845,-1.99323 7.40883,-5.4249 9.42312,-9.65178 1.47018,-3.08507 1.68002,-4.10126 1.68002,-8.13559 0,-4.03433 -0.20984,-5.05052 -1.68002,-8.13559 -2.01429,-4.22688 -5.36467,-7.65855 -9.42312,-9.65178 -2.61071,-1.28221 -3.63638,-1.46687 -8.14747,-1.46687 -4.73755,0 -5.458,0.14619 -8.78501,1.78265 -9.67978,4.76116 -13.70973,16.36641 -9.03592,26.02121 2.22315,4.59241 5.43354,7.5049 10.71998,9.72524 4.34145,1.82344 10.97491,1.61137 15.24842,-0.48749 l 0,0 z M 94.415841,129.19242 c 1.386386,-13.2899 7.976119,-24.51179 18.613359,-31.697364 1.38314,-0.934319 2.58519,-1.749944 2.67122,-1.812502 0.086,-0.06255 -0.56007,-1.304358 -1.4358,-2.75956 C 113.38888,91.467786 107.13484,80.537095 100.36674,68.63257 93.598642,56.728045 87.714341,46.641216 87.29052,46.217397 c -0.423816,-0.42382 -1.018604,-1.234013 -1.321736,-1.80043 -0.524979,-0.980927 -0.685841,-0.948451 -3.386283,0.683659 -1.559317,0.94243 -5.033172,3.349787 -7.71968,5.349684 -24.049069,17.902654 -39.209258,45.965695 -40.773204,75.47532 l -0.337084,6.36033 9.980475,0.16116 c 5.489262,0.0886 19.052575,0.21633 30.140698,0.28374 l 20.160217,0.12257 0.381918,-3.66101 0,0 z m 128.653579,3.12335 1.76271,-0.005 0,-2.92558 c 0,-8.70015 -2.18621,-21.46673 -5.25749,-30.701537 -7.19988,-21.648852 -21.95152,-40.943095 -40.79048,-53.351446 -3.58764,-2.363009 -4.06255,-2.541292 -4.53251,-1.701512 -0.28873,0.515938 -0.93485,1.347945 -1.43581,1.848905 -1.06549,1.065492 -29.55944,48.846575 -29.26641,49.076405 0.10888,0.08539 1.30762,0.90457 2.66388,1.820399 10.31233,6.963536 17.87306,20.688286 17.87306,32.444406 l 0,2.94759 2.30508,0.0781 c 8.59747,0.29114 50.00176,0.81725 52.20339,0.66333 1.49153,-0.10428 3.50508,-0.19171 4.47458,-0.19431 z"
     id="path3002"
     inkscape:connector-curvature="0"
     inkscape:export-xdpi="90"
     inkscape:export-ydpi="90" />
</svg>
