<?xml version="1.0" encoding="UTF-8" standalone="no"?>
<!-- Created with Inkscape (http://www.inkscape.org/) -->

<svg
   xmlns:dc="http://purl.org/dc/elements/1.1/"
   xmlns:cc="http://creativecommons.org/ns#"
   xmlns:rdf="http://www.w3.org/1999/02/22-rdf-syntax-ns#"
   xmlns:svg="http://www.w3.org/2000/svg"
   xmlns="http://www.w3.org/2000/svg"
   xmlns:xlink="http://www.w3.org/1999/xlink"
   xmlns:sodipodi="http://sodipodi.sourceforge.net/DTD/sodipodi-0.dtd"
   xmlns:inkscape="http://www.inkscape.org/namespaces/inkscape"
   width="256"
   height="256"
   id="svg3239"
   version="1.1"
   inkscape:version="0.48.4 r9939"
   sodipodi:docname="hazardous.svg"
   inkscape:export-filename="C:\Users\PtaQ\Documents\GitHub\Balanced-Annihilation\luaui\icons\hazardous.png"
   inkscape:export-xdpi="90"
   inkscape:export-ydpi="90">
  <defs
     id="defs3241">
    <path
       transform="matrix(10,0,0,-10,260,260)"
       id="p"
       d="M 2.8117,-1.046 A 3,3 0 0 1 0.5,2.958 V 4.5119 A 10.5,10.5 0 0 1 2,25.3078 v 0.5583 A 15,15 0 0 0 14.7975,8.5433 15,15 0 0 0 23.4007,-11.201 l -0.4835,0.2792 A 10.5,10.5 0 0 1 4.1574,-1.8229 z m 3.4148,8.871 a 10,10 0 0 1 -12.453,0 9.5,9.5 0 0 0 -2.1756,2.7417 13.5,13.5 0 0 0 16.8042,0 A 10,10 0 0 0 6.2265,7.825 z"
       inkscape:connector-curvature="0" />
  </defs>
  <sodipodi:namedview
     id="base"
     pagecolor="#ffffff"
     bordercolor="#666666"
     borderopacity="1.0"
     inkscape:pageopacity="0.0"
     inkscape:pageshadow="2"
     inkscape:zoom="1.979899"
     inkscape:cx="137.10897"
     inkscape:cy="101.98726"
     inkscape:document-units="px"
     inkscape:current-layer="g3263"
     showgrid="false"
     inkscape:window-width="1920"
     inkscape:window-height="1018"
     inkscape:window-x="-8"
     inkscape:window-y="-8"
     inkscape:window-maximized="1" />
  <metadata
     id="metadata3244">
    <rdf:RDF>
      <cc:Work
         rdf:about="">
        <dc:format>image/svg+xml</dc:format>
        <dc:type
           rdf:resource="http://purl.org/dc/dcmitype/StillImage" />
        <dc:title></dc:title>
      </cc:Work>
    </rdf:RDF>
  </metadata>
  <g
     inkscape:label="Layer 1"
     inkscape:groupmode="layer"
     id="layer1"
     transform="translate(0,-796.36218)">
    <g
       id="g3263"
       transform="translate(108.57151,87.76383)">
      <use
         id="use3252"
         xlink:href="#p"
         x="0"
         y="0"
         width="1"
         height="1"
         transform="matrix(0.40825393,0,0,0.40825393,-87.209347,731.16282)" />
      <use
         id="use3254"
         transform="matrix(-0.20412695,0.35355827,-0.35355827,-0.20412695,163.93484,798.45671)"
         xlink:href="#p"
         x="0"
         y="0"
         width="1"
         height="1" />
      <use
         id="use3256"
         transform="matrix(-0.20412695,-0.35355827,0.35355827,-0.20412695,-19.915469,982.30698)"
         xlink:href="#p"
         x="0"
         y="0"
         width="1"
         height="1" />
      <path
         style="fill:none;stroke:#000000;stroke-width:2.37772536;stroke-linecap:butt;stroke-linejoin:miter;stroke-miterlimit:4;stroke-opacity:1;stroke-dasharray:none"
         d="m -75.747772,882.2359 c 0,0 2.972157,8.49188 8.987234,15.00232"
         id="path3270"
         inkscape:connector-curvature="0"
         sodipodi:nodetypes="cc" />
      <path
         style="fill:none;stroke:#000000;stroke-width:2.37772536;stroke-linecap:butt;stroke-linejoin:miter;stroke-miterlimit:4;stroke-opacity:1;stroke-dasharray:none"
         d="m 27.878401,733.05141 c 0,0 -8.800732,-1.86887 -17.487938,-0.10835"
         id="path3270-1"
         inkscape:connector-curvature="0"
         sodipodi:nodetypes="cc"
         inkscape:transform-center-x="-8.9107777"
         inkscape:transform-center-y="-0.19827378" />
      <path
         style="fill:none;stroke:#000000;stroke-width:2.37772536;stroke-linecap:butt;stroke-linejoin:miter;stroke-miterlimit:4;stroke-opacity:1;stroke-dasharray:none"
         d="m 104.76142,897.26316 c 0,0 6.00332,-6.70117 8.80276,-15.11128"
         id="path3270-7"
         inkscape:connector-curvature="0"
         sodipodi:nodetypes="cc"
         inkscape:transform-center-x="-4.4657888"
         inkscape:transform-center-y="-7.4554653" />
      <path
         sodipodi:type="star"
         style="fill:none;stroke:#000000;stroke-width:15;stroke-miterlimit:4;stroke-opacity:1;stroke-dasharray:none"
         id="path2991"
         sodipodi:sides="8"
         sodipodi:cx="128.79445"
         sodipodi:cy="136.29692"
         sodipodi:r1="115.08315"
         sodipodi:r2="106.32297"
         sodipodi:arg1="-1.3089969"
         sodipodi:arg2="-0.91629786"
         inkscape:flatsided="true"
         inkscape:rounded="0"
         inkscape:randomized="0"
         d="m 158.58016,25.135133 69.87922,53.620215 11.49686,87.327292 -53.62022,69.87922 L 99.008733,247.45871 29.129513,193.83849 17.632661,106.5112 71.252876,36.631985 z"
         transform="matrix(1.0836488,0.14759941,-0.14759941,1.0836488,-100.65624,669.61586)" />
      <path
         style="fill:#ffffff;stroke:none;stroke-width:7.57614421999999980;stroke-linecap:butt;stroke-linejoin:bevel;stroke-miterlimit:4;stroke-opacity:1;stroke-dasharray:none;stroke-dashoffset:0;fill-opacity:1"
         d="m 50.491247,203.8526 -31.70346,-32.08351 0.375509,-44.6287 0.375509,-44.628698 28.101698,-27.999526 C 63.096438,39.112426 77.489777,24.855482 79.625699,22.830069 l 3.883496,-3.68257 44.690765,0.375649 44.69077,0.375648 31.35406,31.709464 31.35405,31.709463 0,44.681517 0,44.6815 -31.84746,31.62769 -31.84746,31.62768 -44.85461,0 -44.854602,0 -31.703461,-32.08351 z m 46.969235,7.59718 c 10.722308,-1.75419 19.851538,-5.50948 27.905468,-11.47885 l 2.14657,-1.59098 2.14657,1.59098 c 24.55926,18.2027 58.22031,15.71836 80.06327,-5.90903 6.25603,-6.1943 9.99556,-11.71832 12.89306,-19.04562 6.83621,-17.28763 6.21789,-35.59357 -1.73433,-51.34683 -6.00683,-11.89947 -17.57623,-22.94784 -29.53199,-28.202006 -3.5018,-1.538927 -3.68812,-1.70244 -3.34173,-2.93274 0.72796,-2.585566 0.33229,-15.773987 -0.60652,-20.216744 -4.59033,-21.722762 -18.44714,-38.065811 -38.68748,-45.628943 -6.85006,-2.559635 -11.3911,-3.434201 -19.43308,-3.742644 -5.98379,-0.229503 -7.92239,-0.101859 -12.6076,0.830128 -25.35493,5.043632 -44.258991,23.743301 -49.036511,48.506326 -1.007526,5.222246 -1.419317,13.692007 -0.875942,18.01645 l 0.454005,3.613199 -3.623435,1.592379 c -11.859627,5.211925 -23.45864,16.301995 -29.437303,28.145665 -6.08588,12.05606 -8.006849,26.35845 -5.310646,39.5399 3.811203,18.63258 14.849362,33.30084 31.55053,41.92653 11.946792,6.17018 24.721166,8.35265 37.067094,6.33283 l 0,0 z"
         id="path3761"
         inkscape:connector-curvature="0"
         transform="translate(-108.57151,708.59835)" />
      <path
         style="fill:#ffffff;fill-opacity:1;stroke:none"
         d="m 65.640677,201.3489 c -11.488274,-2.5278 -20.87781,-9.12448 -27.277349,-19.16387 -8.697815,-13.64486 -9.068014,-30.57869 -0.970891,-44.41101 6.247656,-10.67288 17.742405,-18.63509 29.668419,-20.55078 7.558795,-1.21419 17.763532,0.20675 25.34351,3.52892 5.897644,2.58483 13.623684,8.79406 17.224554,13.84295 l 1.02844,1.44202 2.52617,-1.55436 2.52617,-1.55437 -0.22132,-3.05967 c -0.19287,-2.6665 -0.0166,-3.47544 1.37162,-6.29536 1.69157,-3.43607 4.48845,-6.00539 7.18105,-6.59679 1.39993,-0.30747 1.45117,-0.42487 1.45117,-3.32491 0,-1.97557 -0.21645,-3.06573 -0.63135,-3.1799 -0.34724,-0.0956 -2.31962,-0.43556 -4.38307,-0.75558 C 104.24608,107.19885 90.698602,94.955797 86.004383,78.562057 84.351869,72.790943 84.357213,62.178421 86.015545,56.381501 90.192894,41.779057 100.8953,30.807975 115.40849,26.250678 c 3.32145,-1.042971 4.76234,-1.183266 12.10403,-1.178533 7.30735,0.0047 8.79812,0.150525 12.10403,1.183906 14.49281,4.530243 25.23324,15.540164 29.38807,30.12545 1.50946,5.298896 1.65608,15.90438 0.28977,20.960665 -4.05042,14.989346 -17.13773,28.035844 -31.91467,31.815144 -2.18233,0.55815 -4.84065,1.01481 -5.90738,1.01481 l -1.93951,0 0,3.24287 c 0,3.16069 0.0368,3.25094 1.45116,3.56159 2.68406,0.58952 5.48978,3.16132 7.16811,6.57049 1.36236,2.76735 1.55586,3.64501 1.40485,6.37182 l -0.17514,3.1624 2.49941,1.46903 2.49941,1.46904 1.01965,-1.43313 c 1.97868,-2.78105 7.14987,-7.88779 10.14397,-10.01755 6.27023,-4.46013 14.03857,-7.37384 21.46574,-8.05129 7.94333,-0.72452 18.06243,1.623 25.32853,5.87593 5.12304,2.99858 12.64831,10.5871 15.42831,15.558 8.02646,14.35203 7.53937,30.7299 -1.3249,44.54837 -5.65221,8.81119 -12.60438,14.18852 -22.77496,17.61588 -8.30973,2.80027 -18.55849,2.66838 -27.44217,-0.35315 -16.86653,-5.73668 -28.10568,-22.1733 -28.10568,-41.10297 0,-5.72291 1.0131,-11.41123 2.82773,-15.87706 0.67151,-1.65261 1.04866,-3.15584 0.8381,-3.34051 -0.21056,-0.18468 -1.34007,-0.85984 -2.51003,-1.50036 l -2.1272,-1.16459 -1.91341,1.31658 c -5.13732,3.53489 -10.22186,3.39521 -16.30809,-0.44802 -1.18908,-0.75085 -1.40435,-0.71749 -3.69265,0.57229 -1.83256,1.0329 -2.34343,1.57206 -2.07798,2.19307 5.5759,13.04476 5.60403,25.46135 0.0839,37.03558 -6.04424,12.67319 -16.62193,21.04126 -30.210491,23.8997 -4.336684,0.91225 -13.248492,0.91367 -17.388332,0.003 l 0,2.4e-4 z m 43.373393,-24.88635 c 1.48686,-2.95251 3.34616,-8.10678 3.34616,-9.27606 0,-0.20955 -1.40132,-1.09309 -3.11405,-1.96344 -10.00289,-5.0831 -17.958154,-15.06141 -21.222503,-26.61943 -0.84624,-2.99628 -1.11841,-5.35179 -1.140623,-9.87164 l -0.02917,-5.93633 -1.515228,-0.47686 c -2.492628,-0.78445 -7.349324,-1.54006 -9.898657,-1.54006 l -2.389526,0 -0.365635,3.90186 c -0.212969,2.2727 -0.119491,6.17131 0.223883,9.33723 1.845818,17.0185 10.63801,31.52524 24.637274,40.65042 3.217959,2.09757 8.381149,4.8721 9.630859,5.17531 0.066,0.016 0.8927,-1.50545 1.83722,-3.381 z m 48.46883,-1.79682 c 13.85729,-9.03264 22.64283,-23.39456 24.59779,-40.21057 0.35866,-3.08503 0.45436,-6.89401 0.23837,-9.48694 l -0.36088,-4.33237 -4.36813,0.29773 c -2.40247,0.16376 -5.5208,0.64723 -6.92961,1.07438 l -2.56149,0.77665 0.20901,4.17409 c 0.75327,15.04345 -8.81563,31.29566 -22.5291,38.26435 -1.71273,0.87035 -3.11405,1.80231 -3.11405,2.07104 0,1.0181 2.14118,6.7859 3.56957,9.61553 l 1.48782,2.94736 2.79384,-1.23557 c 1.53661,-0.67956 4.67169,-2.45962 6.96686,-3.95568 z M 103.9384,95.30531 c 2.51588,-1.918957 8.77974,-4.708932 13.22006,-5.888326 3.09293,-0.821512 5.52136,-1.073226 10.35406,-1.073226 4.8327,0 7.26113,0.251714 10.35406,1.073226 4.49324,1.19345 10.71125,3.974758 13.29932,5.948778 l 1.69154,1.290202 2.23613,-2.194586 c 2.17027,-2.129957 6.25906,-7.753663 6.25906,-8.608682 0,-1.265827 -8.81534,-6.412135 -14.59972,-8.523172 -7.49951,-2.736981 -10.68189,-3.26573 -19.49293,-3.238726 -8.98476,0.02754 -12.86551,0.760908 -20.72446,3.916437 -4.49905,1.806461 -12.86311,6.805792 -12.86311,7.688478 0,0.987414 3.0446,5.358935 5.653541,8.1175 1.415819,1.497021 2.670049,2.721851 2.787179,2.721851 0.11714,0 0.93851,-0.553392 1.82527,-1.229754 l 0,0 z"
         id="path3767"
         inkscape:connector-curvature="0"
         transform="translate(-108.57151,708.59835)" />
    </g>
  </g>
</svg>
