<?xml version="1.0" encoding="UTF-8" standalone="no"?>
<!-- Created with Inkscape (http://www.inkscape.org/) -->

<svg
   xmlns:dc="http://purl.org/dc/elements/1.1/"
   xmlns:cc="http://creativecommons.org/ns#"
   xmlns:rdf="http://www.w3.org/1999/02/22-rdf-syntax-ns#"
   xmlns:svg="http://www.w3.org/2000/svg"
   xmlns="http://www.w3.org/2000/svg"
   xmlns:xlink="http://www.w3.org/1999/xlink"
   xmlns:sodipodi="http://sodipodi.sourceforge.net/DTD/sodipodi-0.dtd"
   xmlns:inkscape="http://www.inkscape.org/namespaces/inkscape"
   width="256"
   height="256"
   id="svg3239"
   version="1.1"
   inkscape:version="0.48.4 r9939"
   sodipodi:docname="hazardous.svg"
   inkscape:export-filename="C:\Users\PtaQ\Documents\GitHub\Balanced-Annihilation\luaui\icons\hazardous.png"
   inkscape:export-xdpi="90"
   inkscape:export-ydpi="90">
  <defs
     id="defs3241">
    <linearGradient
       inkscape:collect="always"
       id="linearGradient3759">
      <stop
         style="stop-color:#890000;stop-opacity:1;"
         offset="0"
         id="stop3761" />
      <stop
         style="stop-color:#890000;stop-opacity:0;"
         offset="1"
         id="stop3763" />
    </linearGradient>
    <path
       transform="matrix(10,0,0,-10,260,260)"
       id="p"
       d="M 2.8117,-1.046 A 3,3 0 0 1 0.5,2.958 V 4.5119 A 10.5,10.5 0 0 1 2,25.3078 v 0.5583 A 15,15 0 0 0 14.7975,8.5433 15,15 0 0 0 23.4007,-11.201 l -0.4835,0.2792 A 10.5,10.5 0 0 1 4.1574,-1.8229 z m 3.4148,8.871 a 10,10 0 0 1 -12.453,0 9.5,9.5 0 0 0 -2.1756,2.7417 13.5,13.5 0 0 0 16.8042,0 A 10,10 0 0 0 6.2265,7.825 z"
       inkscape:connector-curvature="0" />
    <linearGradient
       inkscape:collect="always"
       xlink:href="#linearGradient3759"
       id="linearGradient3765"
       x1="105.31521"
       y1="923.76616"
       x2="151.12675"
       y2="923.76616"
       gradientUnits="userSpaceOnUse" />
  </defs>
  <sodipodi:namedview
     id="base"
     pagecolor="#ffffff"
     bordercolor="#666666"
     borderopacity="1.0"
     inkscape:pageopacity="0.0"
     inkscape:pageshadow="2"
     inkscape:zoom="0.49497475"
     inkscape:cx="74.288791"
     inkscape:cy="524.98952"
     inkscape:document-units="px"
     inkscape:current-layer="layer1"
     showgrid="false"
     inkscape:window-width="1920"
     inkscape:window-height="1018"
     inkscape:window-x="-8"
     inkscape:window-y="-8"
     inkscape:window-maximized="1" />
  <metadata
     id="metadata3244">
    <rdf:RDF>
      <cc:Work
         rdf:about="">
        <dc:format>image/svg+xml</dc:format>
        <dc:type
           rdf:resource="http://purl.org/dc/dcmitype/StillImage" />
        <dc:title />
      </cc:Work>
    </rdf:RDF>
  </metadata>
  <g
     inkscape:label="Layer 1"
     inkscape:groupmode="layer"
     id="layer1"
     transform="translate(0,-796.36218)">
    <rect
       style="fill:#ffffff;fill-opacity:1;stroke:#000000;stroke-width:13.1464529;stroke-linecap:butt;stroke-linejoin:miter;stroke-miterlimit:4;stroke-opacity:1;stroke-dasharray:none;stroke-dashoffset:0"
       id="rect3927"
       width="152.71912"
       height="152.71912"
       x="51.640442"
       y="848.00262" />
    <path
       sodipodi:type="star"
       style="fill:#ffffff;fill-opacity:1;stroke:#000000;stroke-width:18.75;stroke-linecap:butt;stroke-linejoin:miter;stroke-miterlimit:4;stroke-opacity:1;stroke-dasharray:none;stroke-dashoffset:0"
       id="path3806-0"
       sodipodi:sides="8"
       sodipodi:cx="127.14286"
       sodipodi:cy="128.85715"
       sodipodi:r1="117.25604"
       sodipodi:r2="108.33046"
       sodipodi:arg1="-1.1835027"
       sodipodi:arg2="-0.79080364"
       inkscape:flatsided="true"
       inkscape:rounded="0"
       inkscape:randomized="0"
       d="m 171.42858,20.28572 63.8006,63.114565 0.48511,89.742575 -63.11457,63.80061 -89.742576,0.4851 L 19.056537,174.31401 18.571433,84.571431 81.685999,20.770824 z"
       transform="matrix(0.65646012,-0.26811836,0.26811836,0.65646012,9.9868164,873.86193)" />
    <path
       sodipodi:type="star"
       style="fill:#ffffff;fill-opacity:1;stroke:#000000;stroke-width:20;stroke-linecap:butt;stroke-linejoin:miter;stroke-miterlimit:4;stroke-opacity:1;stroke-dasharray:none;stroke-dashoffset:0"
       id="path3818-9"
       sodipodi:sides="8"
       sodipodi:cx="130.30968"
       sodipodi:cy="125.18525"
       sodipodi:r1="112.08711"
       sodipodi:r2="66.467659"
       sodipodi:arg1="-0.78539816"
       sodipodi:arg2="-0.39269908"
       inkscape:flatsided="false"
       inkscape:rounded="0"
       inkscape:randomized="0"
       d="m 209.56723,45.927692 -17.84944,53.821486 50.679,25.436072 -50.679,25.43607 17.84944,53.82149 -53.82148,-17.84945 -25.43607,50.679 -25.43607,-50.679 L 51.05212,204.44281 68.901567,150.62132 18.222565,125.18525 68.901567,99.749177 51.05212,45.927692 104.87361,63.77714 130.30968,13.098137 155.74575,63.77714 z"
       transform="matrix(0.8918698,8.5385422e-4,-8.5385422e-4,0.8918698,11.887624,812.60197)" />
    <path
       style="fill:#ffffff;fill-opacity:1;stroke:none"
       d="m 117.4467,997.86805 c -5.84573,-11.68425 -10.91116,-21.24404 -11.25656,-21.24401 -0.34538,6e-5 -10.46479,3.19771 -22.487579,7.10589 -12.022789,3.90821 -22.003756,6.96168 -22.179929,6.78551 -0.176171,-0.17617 2.938273,-10.09633 6.920989,-22.04483 3.982714,-11.94847 7.2413,-22.00695 7.2413,-22.35217 0,-0.34522 -9.559835,-5.41053 -21.244077,-11.25625 L 33.196767,924.23362 54.230441,913.72483 c 11.56852,-5.77983 21.211141,-10.67559 21.428048,-10.87948 0.216906,-0.20388 -2.907582,-10.30034 -6.943305,-22.43656 -4.035725,-12.13622 -7.337681,-22.31318 -7.337681,-22.61546 0,-0.30228 10.123024,2.82995 22.495612,6.96052 12.372589,4.13058 22.596715,7.51014 22.720305,7.51014 0.12358,0 4.98224,-9.50926 10.79703,-21.13166 5.81479,-11.62242 10.69021,-20.99587 10.83429,-20.82992 0.1441,0.16595 5.07666,9.6752 10.96128,21.13165 5.88461,11.45646 10.77118,20.82993 10.85903,20.82993 0.0879,0 9.80053,-3.21918 21.58374,-7.15372 11.7832,-3.93454 21.87678,-7.15371 22.43019,-7.15371 0.61829,0 -1.88906,8.67233 -6.50394,22.49562 -4.13057,12.37258 -7.51013,22.50956 -7.51013,22.52659 0,0.0171 9.46815,4.75295 21.04033,10.52424 11.57217,5.77128 21.04031,10.69472 21.04031,10.94096 0,0.24626 -9.4736,5.17241 -21.05246,10.94703 -13.81399,6.88932 -20.91209,10.86512 -20.64419,11.56327 2.0842,5.43132 14.04617,43.2933 13.76633,43.57314 -0.20126,0.20126 -10.2642,-2.92809 -22.36206,-6.95413 -12.09787,-4.02602 -22.16355,-7.14197 -22.36822,-6.92428 -0.20466,0.21768 -5.10106,9.86093 -10.88089,21.42944 l -10.50878,21.03366 -10.62858,-21.24405 0,0 z"
       id="path4026"
       inkscape:connector-curvature="0" />
    <text
       xml:space="preserve"
       style="font-size:106.06871033000000000px;font-style:normal;font-weight:bold;line-height:125%;letter-spacing:0px;word-spacing:0px;fill:#000000;fill-opacity:1;stroke:#000000;stroke-width:6.19556378999999960;stroke-miterlimit:4;stroke-opacity:1;stroke-dasharray:none;font-family:Sans;-inkscape-font-specification:Sans Bold"
       x="91.527985"
       y="961.72925"
       id="text2987"
       sodipodi:linespacing="125%"><tspan
         sodipodi:role="line"
         id="tspan2989"
         x="91.527985"
         y="961.72925"
         style="font-weight:bold;fill:#000000;fill-opacity:1;stroke-width:6.19556378999999960;stroke-miterlimit:4;stroke-dasharray:none;-inkscape-font-specification:Sans Bold">E</tspan></text>
  </g>
</svg>
