<?xml version="1.0" encoding="UTF-8" standalone="no"?>
<!-- Created with Inkscape (http://www.inkscape.org/) -->

<svg
   xmlns:dc="http://purl.org/dc/elements/1.1/"
   xmlns:cc="http://creativecommons.org/ns#"
   xmlns:rdf="http://www.w3.org/1999/02/22-rdf-syntax-ns#"
   xmlns:svg="http://www.w3.org/2000/svg"
   xmlns="http://www.w3.org/2000/svg"
   xmlns:xlink="http://www.w3.org/1999/xlink"
   xmlns:sodipodi="http://sodipodi.sourceforge.net/DTD/sodipodi-0.dtd"
   xmlns:inkscape="http://www.inkscape.org/namespaces/inkscape"
   width="256"
   height="256"
   id="svg3239"
   version="1.1"
   inkscape:version="0.48.4 r9939"
   sodipodi:docname="hazardous.svg"
   inkscape:export-filename="C:\Users\PtaQ\Documents\GitHub\Balanced-Annihilation\luaui\icons\svg\hazardous.png"
   inkscape:export-xdpi="90"
   inkscape:export-ydpi="90">
  <defs
     id="defs3241">
    <path
       transform="matrix(10,0,0,-10,260,260)"
       id="p"
       d="M 2.8117,-1.046 A 3,3 0 0 1 0.5,2.958 V 4.5119 A 10.5,10.5 0 0 1 2,25.3078 v 0.5583 A 15,15 0 0 0 14.7975,8.5433 15,15 0 0 0 23.4007,-11.201 l -0.4835,0.2792 A 10.5,10.5 0 0 1 4.1574,-1.8229 z m 3.4148,8.871 a 10,10 0 0 1 -12.453,0 9.5,9.5 0 0 0 -2.1756,2.7417 13.5,13.5 0 0 0 16.8042,0 A 10,10 0 0 0 6.2265,7.825 z"
       inkscape:connector-curvature="0" />
  </defs>
  <sodipodi:namedview
     id="base"
     pagecolor="#ffffff"
     bordercolor="#666666"
     borderopacity="1.0"
     inkscape:pageopacity="0.0"
     inkscape:pageshadow="2"
     inkscape:zoom="1.979899"
     inkscape:cx="109.02159"
     inkscape:cy="92.530115"
     inkscape:document-units="px"
     inkscape:current-layer="g3263"
     showgrid="false"
     inkscape:window-width="1920"
     inkscape:window-height="1018"
     inkscape:window-x="-8"
     inkscape:window-y="-8"
     inkscape:window-maximized="1" />
  <metadata
     id="metadata3244">
    <rdf:RDF>
      <cc:Work
         rdf:about="">
        <dc:format>image/svg+xml</dc:format>
        <dc:type
           rdf:resource="http://purl.org/dc/dcmitype/StillImage" />
        <dc:title></dc:title>
      </cc:Work>
    </rdf:RDF>
  </metadata>
  <g
     inkscape:label="Layer 1"
     inkscape:groupmode="layer"
     id="layer1"
     transform="translate(0,-796.36218)">
    <g
       id="g3263"
       transform="translate(108.57151,87.76383)">
      <use
         id="use3252"
         xlink:href="#p"
         x="0"
         y="0"
         width="1"
         height="1"
         transform="matrix(0.37945257,0,0,0.37945257,-76.836682,738.54289)" />
      <use
         id="use3254"
         transform="matrix(-0.18972629,0.32861558,-0.32861558,-0.18972629,156.58988,801.08936)"
         xlink:href="#p"
         x="0"
         y="0"
         width="1"
         height="1" />
      <use
         id="use3256"
         transform="matrix(-0.18972629,-0.32861558,0.32861558,-0.18972629,-14.290237,971.96942)"
         xlink:href="#p"
         x="0"
         y="0"
         width="1"
         height="1" />
      <path
         sodipodi:type="arc"
         style="fill:none;stroke:#000000;stroke-width:15.67234898;stroke-linecap:butt;stroke-linejoin:bevel;stroke-miterlimit:4;stroke-opacity:1;stroke-dasharray:none;stroke-dashoffset:0"
         id="path2997"
         sodipodi:cx="128.21428"
         sodipodi:cy="152.96428"
         sodipodi:rx="87.857147"
         sodipodi:ry="87.857147"
         d="m 216.07143,152.96428 a 87.857147,87.857147 0 1 1 -175.714298,0 87.857147,87.857147 0 1 1 175.714298,0 z"
         transform="matrix(1.3289136,0,0,1.3289136,-149.98531,633.28503)" />
      <path
         style="fill:#ffffff;stroke:none;stroke-width:10.10152531000000000;stroke-linecap:butt;stroke-linejoin:bevel;stroke-miterlimit:4;stroke-opacity:1;stroke-dasharray:none;stroke-dashoffset:0;fill-opacity:1"
         d="M 115.33504,233.50699 C 95.97085,230.97283 77.080563,222.87984 62.049493,210.67838 57.484993,206.97315 49.437408,198.89267 45.818017,194.38055 26.033864,169.71663 18.283877,136.65878 24.978422,105.4885 28.334656,89.86164 35.899221,73.910766 45.818017,61.545494 49.437408,57.033378 57.484993,48.952895 62.049493,45.247664 97.602751,16.38732 148.63676,13.709923 186.80333,38.702705 c 6.90443,4.521257 10.76279,7.647651 16.83923,13.644665 6.07,5.990662 10.03376,10.821862 14.59125,17.78442 22.77045,34.78681 22.76989,80.88835 -0.002,115.66247 -4.52126,6.90442 -7.64765,10.76279 -13.64467,16.83922 -17.13856,17.36554 -38.50368,27.9004 -62.71701,30.92495 -7.00501,0.87502 -19.64361,0.85052 -26.5357,-0.0514 l 1.2e-4,0 z m -11.30411,-28.25208 c 8.29936,-1.45555 17.40902,-5.29972 23.60216,-9.95982 l 2.70161,-2.03284 2.09662,1.5541 c 5.63136,4.17422 12.51408,7.48533 19.71343,9.48366 6.32095,1.75452 17.67929,2.205 24.30452,0.96394 8.88737,-1.66482 16.94549,-5.16626 23.97269,-10.4167 3.8567,-2.88157 10.62503,-9.54801 10.62503,-10.46508 0,-1.36436 -1.59505,-0.81634 -3.59671,1.23573 -4.69337,4.81159 -11.6322,8.57955 -19.08281,10.36246 -3.58441,0.85773 -5.35557,0.99078 -10.15044,0.76249 -7.04423,-0.33539 -10.39516,-1.19109 -16.66751,-4.25626 -4.05418,-1.9812 -5.50678,-3.0539 -9.36756,-6.91768 -3.66317,-3.666 -5.03031,-5.47436 -6.89379,-9.11856 -2.94367,-5.75663 -4.39196,-10.46624 -4.89261,-15.90991 -0.54108,-5.88334 0.13073,-11.78992 1.96302,-17.25897 0.8476,-2.52991 1.47801,-4.64631 1.40091,-4.70311 -0.0771,-0.0568 -1.09742,-0.63034 -2.26738,-1.27454 l -2.1272,-1.17127 -1.95737,1.35646 c -3.84692,2.66591 -8.00778,3.04349 -11.97098,1.0863 -1.38896,-0.68592 -2.88526,-1.51097 -3.32511,-1.83343 -0.63772,-0.46754 -1.26442,-0.31399 -3.09358,0.75797 l -2.29385,1.34428 1.27229,3.14575 c 5.07477,12.54741 3.63071,26.09881 -3.99627,37.50209 -4.83546,7.22961 -12.05155,12.63551 -20.746844,15.5424 -4.358561,1.45709 -5.200685,1.56878 -12.010805,1.59299 -6.29422,0.0224 -7.856047,-0.13929 -11.111678,-1.15015 -6.301312,-1.95652 -14.672353,-7.02909 -18.385681,-11.14109 -0.728307,-0.8065 -1.12324,-0.92866 -1.633434,-0.50523 -0.539914,0.44809 -0.200381,1.11255 1.718164,3.36246 7.094637,8.32 20.154524,15.70249 31.938011,18.05391 4.52622,0.90322 15.133943,0.90722 20.263157,0.008 l 0,-3e-5 z m 8.44261,-30.79665 c 1.21416,-2.05783 3.61961,-8.56092 3.61795,-9.78104 -5e-4,-0.53794 -1.07508,-1.37735 -2.90419,-2.26909 -6.67723,-3.25533 -12.97353,-9.92384 -16.785338,-17.77759 -2.758559,-5.68367 -3.702986,-9.64528 -3.850676,-16.15255 l -0.125875,-5.54594 -2.434781,-0.6308 c -1.339134,-0.34694 -4.170106,-0.77964 -6.291058,-0.96155 l -3.856277,-0.33076 -0.362559,3.61024 c -1.047079,10.42634 2.453155,23.44861 8.8568,32.95082 2.567732,3.8102 8.793277,10.16136 12.350294,12.59949 1.87736,1.28682 10.061,5.89349 10.68298,6.01357 0.042,0.008 0.53824,-0.76805 1.10273,-1.7248 l 0,0 z m 41.34201,-0.46357 c 6.41468,-3.27762 13.79588,-9.68582 18.09349,-15.70838 6.59078,-9.23614 9.56993,-19.25147 9.24531,-31.0809 l -0.1594,-5.80838 -3.78807,0.1089 c -2.08344,0.0599 -4.92419,0.40082 -6.31277,0.75762 l -2.52471,0.64871 -0.0934,5.3033 c -0.14747,8.37624 -2.27659,14.91662 -7.23444,22.22336 -2.80481,4.13364 -8.7991,9.56539 -12.97224,11.75484 l -3.63118,1.90511 0.76585,2.64021 c 0.42122,1.45211 1.45664,4.15869 2.30094,6.01464 1.72314,3.78781 1.43646,3.73143 6.31059,1.24097 z M 42.48731,170.36434 c 0.617801,-0.23707 0.587522,-0.84576 -0.207288,-4.16688 -1.128579,-4.71578 -1.221519,-12.57337 -0.205425,-17.36767 0.867044,-4.09102 2.621295,-8.54168 4.895912,-12.42128 2.168982,-3.69943 9.957724,-11.4793 13.696332,-13.68073 9.845004,-5.79713 22.796229,-6.75493 34.404675,-2.5444 6.862634,2.48917 13.995204,7.66816 18.190854,13.20843 l 1.43376,1.89326 2.36996,-1.2899 2.36997,-1.28989 -0.21197,-2.93045 c -0.35665,-4.9306 2.45182,-9.73105 6.71996,-11.48627 l 2.26665,-0.93214 0.002,-2.84599 0.002,-2.84599 -2.88618,-0.3606 c -8.40219,-1.04979 -18.15923,-6.02683 -23.90384,-12.193289 -4.640117,-4.98087 -8.105753,-11.340932 -9.873485,-18.119621 -1.44774,-5.551642 -1.221719,-14.367976 0.517471,-20.184246 3.378092,-11.297185 10.228664,-19.535467 20.576924,-24.745166 2.40978,-1.21317 5.64858,-2.489343 7.19734,-2.83594 2.1696,-0.485592 2.81568,-0.843501 2.81568,-1.559957 0,-1.156091 -0.30384,-1.152593 -5.36908,0.06182 -18.957226,4.545077 -34.644537,18.807511 -40.574491,36.88912 -2.240286,6.831075 -2.708931,10.057922 -2.767494,19.055563 l -0.05664,8.701499 -4.531766,2.226134 C 56.681285,104.82751 46.607598,115.66305 41.571088,128.4894 c -4.307195,10.96902 -5.10703,25.07241 -2.032515,35.83911 0.95588,3.34742 1.941873,6.31346 2.098765,6.31346 0.06957,0 0.452055,-0.12493 0.849972,-0.27763 z m 177.54067,-2.02365 c 2.66667,-7.28426 3.8598,-19.34374 2.65503,-26.83561 -2.04194,-12.6978 -7.09974,-22.87503 -15.66639,-31.5237 -5.3757,-5.42717 -9.49905,-8.42185 -15.78128,-11.46152 l -4.9119,-2.376642 0.35925,-1.767767 c 0.19759,-0.972271 0.32825,-4.608821 0.29035,-8.08122 -0.24154,-22.128726 -12.70159,-41.431167 -32.81038,-50.828055 -4.11271,-1.921879 -13.10408,-4.730335 -15.14433,-4.730335 -0.38627,0 -0.70232,0.429274 -0.70232,0.953943 0,0.68766 0.4863,1.045172 1.74214,1.28077 0.95818,0.179755 3.30191,0.970022 5.20828,1.756148 11.09902,4.576867 19.71703,14.006051 23.35755,25.556101 1.56726,4.972332 1.95317,14.381966 0.80204,19.556063 -2.7871,12.527478 -13.19874,24.388604 -25.60935,29.174654 -2.19404,0.84611 -5.69295,1.80326 -7.77537,2.127 l -3.78621,0.58863 0,2.66373 c 0,2.64326 0.0165,2.67127 2.14658,3.64436 4.68003,2.13801 7.13913,6.02102 7.17451,11.32888 l 0.0228,3.42339 2.25536,1.28107 2.25537,1.28107 0.98466,-1.42147 c 0.54155,-0.78181 2.70862,-3.14206 4.8157,-5.245 13.53913,-13.51255 34.5252,-15.3119 50.5506,-4.33422 7.48589,5.12796 13.11603,13.13138 15.76132,22.4052 1.45091,5.08659 1.57631,14.86748 0.25341,19.76498 -0.47583,1.76153 -0.73006,3.42134 -0.56497,3.68846 0.54646,0.88419 1.37849,0.14985 2.11753,-1.86891 l -1e-5,0 z M 113.39623,94.71011 c 8.19444,-4.138135 20.42328,-4.867365 29.718,-1.772146 2.67235,0.889914 7.42361,3.321902 9.96208,5.09922 0.73823,0.516869 1.18758,0.303899 2.95339,-1.399784 1.14547,-1.105178 2.99442,-3.340256 4.10877,-4.966849 2.38432,-3.480349 2.53373,-3.190532 -3.51631,-6.821187 -8.72763,-5.237489 -17.60887,-7.422075 -28.40768,-6.987654 -8.13585,0.327294 -13.56777,1.679555 -20.45558,5.092361 -4.6589,2.30841 -8.838839,5.042808 -8.838839,5.782118 0,0.723648 3.031739,5.026357 5.389049,7.648254 l 2.27189,2.526886 2.10417,-1.442381 c 1.1573,-0.793309 3.27728,-2.034786 4.71106,-2.758838 l 0,0 z"
         id="path3767"
         inkscape:connector-curvature="0"
         transform="translate(-108.57151,708.59835)" />
    </g>
  </g>
</svg>
