<?xml version="1.0" encoding="UTF-8" standalone="no"?>
<!-- Created with Inkscape (http://www.inkscape.org/) -->

<svg
   xmlns:dc="http://purl.org/dc/elements/1.1/"
   xmlns:cc="http://creativecommons.org/ns#"
   xmlns:rdf="http://www.w3.org/1999/02/22-rdf-syntax-ns#"
   xmlns:svg="http://www.w3.org/2000/svg"
   xmlns="http://www.w3.org/2000/svg"
   xmlns:sodipodi="http://sodipodi.sourceforge.net/DTD/sodipodi-0.dtd"
   xmlns:inkscape="http://www.inkscape.org/namespaces/inkscape"
   id="svg2"
   version="1.1"
   inkscape:version="0.48.4 r9939"
   width="256"
   height="256"
   sodipodi:docname="lrpc.svg"
   inkscape:export-filename="C:\Users\PtaQ\Documents\GitHub\Balanced-Annihilation\luaui\icons\lrpc.png"
   inkscape:export-xdpi="90"
   inkscape:export-ydpi="90">
  <metadata
     id="metadata8">
    <rdf:RDF>
      <cc:Work
         rdf:about="">
        <dc:format>image/svg+xml</dc:format>
        <dc:type
           rdf:resource="http://purl.org/dc/dcmitype/StillImage" />
        <dc:title></dc:title>
      </cc:Work>
    </rdf:RDF>
  </metadata>
  <defs
     id="defs6" />
  <sodipodi:namedview
     pagecolor="#ffffff"
     bordercolor="#666666"
     borderopacity="1"
     objecttolerance="10"
     gridtolerance="10"
     guidetolerance="10"
     inkscape:pageopacity="0"
     inkscape:pageshadow="2"
     inkscape:window-width="1920"
     inkscape:window-height="1018"
     id="namedview4"
     showgrid="false"
     showguides="true"
     inkscape:guide-bbox="true"
     inkscape:zoom="1.84375"
     inkscape:cx="92.532547"
     inkscape:cy="115.57558"
     inkscape:window-x="-8"
     inkscape:window-y="-8"
     inkscape:window-maximized="1"
     inkscape:current-layer="svg2" />
  <path
     sodipodi:type="arc"
     style="fill:none;stroke:#000000;stroke-width:12.12035275;stroke-linecap:butt;stroke-linejoin:bevel;stroke-miterlimit:4;stroke-opacity:1;stroke-dasharray:none;stroke-dashoffset:0;marker-mid:none"
     id="path3781"
     sodipodi:cx="91.661018"
     sodipodi:cy="92.203392"
     sodipodi:rx="61.830509"
     sodipodi:ry="61.830509"
     d="M 138.62376,132.42171 A 61.830509,61.830509 0 0 1 29.859938,94.11083"
     sodipodi:start="0.70819086"
     sodipodi:end="3.1107383"
     transform="matrix(1.201769,0,0,-1.2744741,4.214379,223.38727)"
     sodipodi:open="true" />
  <path
     style="fill:none;stroke:#000000;stroke-width:15;stroke-linecap:butt;stroke-linejoin:miter;stroke-miterlimit:4;stroke-opacity:1;stroke-dasharray:none"
     d="m 39.858361,99.567017 0,29.722463"
     id="path2993"
     inkscape:connector-curvature="0" />
  <path
     style="fill:none;stroke:#000000;stroke-width:15;stroke-linecap:butt;stroke-linejoin:miter;stroke-miterlimit:4;stroke-opacity:1;stroke-dasharray:none"
     d="m 188.66239,99.567017 0,29.722463"
     id="path2993-1"
     inkscape:connector-curvature="0" />
  <path
     style="fill:none;stroke:#000000;stroke-width:15;stroke-linecap:butt;stroke-linejoin:miter;stroke-miterlimit:4;stroke-opacity:1;stroke-dasharray:none"
     d="M 39.858362,125.55021 22.216646,229.86643"
     id="path3782"
     inkscape:connector-curvature="0" />
  <path
     style="fill:none;stroke:#000000;stroke-width:15;stroke-linecap:butt;stroke-linejoin:miter;stroke-miterlimit:4;stroke-opacity:1;stroke-dasharray:none"
     d="m 188.27888,125.55021 17.64171,104.31622"
     id="path3782-7"
     inkscape:connector-curvature="0" />
  <path
     style="fill:none;stroke:#000000;stroke-width:15.18737698;stroke-linecap:butt;stroke-linejoin:miter;stroke-miterlimit:4;stroke-opacity:1;stroke-dasharray:none"
     d="m 14.734883,234.85213 198.369717,0"
     id="path3802"
     inkscape:connector-curvature="0"
     sodipodi:nodetypes="cc" />
  <path
     style="fill:none;stroke:#000000;stroke-width:10;stroke-linecap:butt;stroke-linejoin:miter;stroke-miterlimit:4;stroke-opacity:1;stroke-dasharray:none"
     d="m 39.205029,126.78365 148.610171,0"
     id="path3804"
     inkscape:connector-curvature="0" />
  <path
     style="opacity:0.98999999;fill:none;stroke:#000000;stroke-width:10;stroke-linecap:butt;stroke-linejoin:miter;stroke-miterlimit:4;stroke-opacity:1;stroke-dasharray:none"
     d="m 38.120283,141.42772 151.322037,0"
     id="path3806"
     inkscape:connector-curvature="0" />
  <path
     style="fill:none;stroke:#000000;stroke-width:15;stroke-linecap:butt;stroke-linejoin:miter;stroke-miterlimit:4;stroke-opacity:1;stroke-dasharray:none"
     d="M 129.23893,65.495517 224.96774,32.410771 M 236.35757,61.156534 137.9169,93.698908"
     id="path3808"
     inkscape:connector-curvature="0"
     sodipodi:nodetypes="cccc" />
  <path
     sodipodi:type="arc"
     style="fill:none;stroke:#000000;stroke-width:66.29444885;stroke-linecap:butt;stroke-linejoin:bevel;stroke-miterlimit:4;stroke-opacity:1;stroke-dasharray:none;stroke-dashoffset:0;marker-mid:none"
     id="path3781-4"
     sodipodi:cx="91.661018"
     sodipodi:cy="92.203392"
     sodipodi:rx="61.830509"
     sodipodi:ry="61.830509"
     d="M 153.49153,92.203392 A 61.830509,61.830509 0 1 1 30.521381,82.986199"
     sodipodi:start="0"
     sodipodi:end="3.2912223"
     transform="matrix(0.07652767,0.22644535,-0.1866013,0.10444491,147.20478,47.914831)"
     sodipodi:open="true" />
  <path
     sodipodi:type="arc"
     style="fill:none;stroke:#000000;stroke-width:12.12035275;stroke-linecap:butt;stroke-linejoin:bevel;stroke-miterlimit:4;stroke-opacity:1;stroke-dasharray:none;stroke-dashoffset:0;marker-mid:none"
     id="path3781-0"
     sodipodi:cx="91.661018"
     sodipodi:cy="92.203392"
     sodipodi:rx="61.830509"
     sodipodi:ry="61.830509"
     d="m 153.4887,92.794538 a 61.830509,61.830509 0 0 1 -3.96933,21.213042"
     sodipodi:start="0.0095608873"
     sodipodi:end="0.36039569"
     transform="matrix(1.201769,0,0,-1.2744741,4.406467,219.82665)"
     sodipodi:open="true" />
  <path
     sodipodi:type="arc"
     style="fill:none;stroke:#000000;stroke-width:66.29444885;stroke-linecap:butt;stroke-linejoin:bevel;stroke-miterlimit:4;stroke-opacity:1;stroke-dasharray:none;stroke-dashoffset:0;marker-mid:none"
     id="path3781-4-9"
     sodipodi:cx="91.661018"
     sodipodi:cy="92.203392"
     sodipodi:rx="61.830509"
     sodipodi:ry="61.830509"
     d="M 153.49153,92.203392 A 61.830509,61.830509 0 1 1 30.521381,82.986199"
     sodipodi:start="0"
     sodipodi:end="3.2912223"
     transform="matrix(0.07652767,0.22644535,-0.1866013,0.10444491,239.17252,17.374877)"
     sodipodi:open="true" />
  <path
     sodipodi:type="arc"
     style="fill:none;stroke:#000000;stroke-width:66.29444885;stroke-linecap:butt;stroke-linejoin:bevel;stroke-miterlimit:4;stroke-opacity:1;stroke-dasharray:none;stroke-dashoffset:0;marker-mid:none"
     id="path3781-4-4"
     sodipodi:cx="91.661018"
     sodipodi:cy="92.203392"
     sodipodi:rx="61.830509"
     sodipodi:ry="61.830509"
     d="M 153.49153,92.203392 A 61.830509,61.830509 0 1 1 30.521381,82.986199"
     sodipodi:start="0"
     sodipodi:end="3.2912223"
     transform="matrix(-0.07652767,-0.22644535,0.1866013,-0.10444491,219.20516,77.996472)"
     sodipodi:open="true" />
  <path
     sodipodi:type="arc"
     style="opacity:0.98999999;fill:#ffffff;fill-opacity:1;stroke:#000000;stroke-width:15;stroke-linecap:butt;stroke-linejoin:bevel;stroke-miterlimit:4;stroke-opacity:1;stroke-dasharray:none;stroke-dashoffset:0"
     id="path3875"
     sodipodi:cx="235.79662"
     sodipodi:cy="48.542374"
     sodipodi:rx="16.135593"
     sodipodi:ry="14.372881"
     d="m 251.93221,48.542374 a 16.135593,14.372881 0 1 1 -32.27119,0 16.135593,14.372881 0 1 1 32.27119,0 z"
     transform="matrix(0.76241849,0,0,1.0540359,49.124251,-4.6529348)" />
  <path
     sodipodi:type="arc"
     style="fill:none;stroke:#000000;stroke-width:12.12035275;stroke-linecap:butt;stroke-linejoin:bevel;stroke-miterlimit:4;stroke-opacity:1;stroke-dasharray:none;stroke-dashoffset:0;marker-mid:none"
     id="path3781-8"
     sodipodi:cx="91.661018"
     sodipodi:cy="92.203392"
     sodipodi:rx="61.830509"
     sodipodi:ry="61.830509"
     d="M 153.39218,88.699745 A 61.830509,61.830509 0 0 1 100.10171,153.45506"
     sodipodi:start="6.2264896"
     sodipodi:end="7.7170406"
     transform="matrix(0.82041136,0,0,-1.3133132,0.96474102,239.22127)"
     sodipodi:open="true" />
  <path
     sodipodi:type="arc"
     style="fill:none;stroke:#000000;stroke-width:12.12035275;stroke-linecap:butt;stroke-linejoin:bevel;stroke-miterlimit:4;stroke-opacity:1;stroke-dasharray:none;stroke-dashoffset:0;marker-mid:none"
     id="path3781-8-8"
     sodipodi:cx="91.661018"
     sodipodi:cy="92.203392"
     sodipodi:rx="61.830509"
     sodipodi:ry="61.830509"
     d="m 138.69329,132.34038 a 61.830509,61.830509 0 0 1 -38.59158,21.11468"
     sodipodi:start="0.70646026"
     sodipodi:end="1.4338553"
     transform="matrix(0.80964244,0,0,-1.4551972,37.968255,250.90736)"
     sodipodi:open="true" />
  <path
     sodipodi:type="arc"
     style="fill:none;stroke:#000000;stroke-width:12.12035275;stroke-linecap:butt;stroke-linejoin:bevel;stroke-miterlimit:4;stroke-opacity:1;stroke-dasharray:none;stroke-dashoffset:0;marker-mid:none"
     id="path3781-8-8-2"
     sodipodi:cx="91.661018"
     sodipodi:cy="92.203392"
     sodipodi:rx="61.830509"
     sodipodi:ry="61.830509"
     d="m 153.43161,89.481997 a 61.830509,61.830509 0 0 1 -4.09617,25.007553"
     sodipodi:start="6.2391573"
     sodipodi:end="6.6519244"
     transform="matrix(0.80964244,0,0,-1.4551972,40.434049,252.8297)"
     sodipodi:open="true" />
  <path
     style="opacity:0.98999999;fill:#ffffff;fill-opacity:1;stroke:#000000;stroke-width:11.50546646;stroke-linecap:butt;stroke-linejoin:bevel;stroke-miterlimit:4;stroke-opacity:1;stroke-dasharray:none;stroke-dashoffset:0"
     d="m 36.824859,189.49718 c 3.505495,-20.77695 6.574692,-38.89806 6.820439,-40.26913 l 0.446812,-2.49285 70.00241,0 70.00241,0 6.68221,39.69386 c 3.6752,21.83162 6.67488,39.95273 6.66593,40.26913 -0.009,0.3164 -37.58621,0.57527 -83.50504,0.57527 l -83.488797,0 6.373626,-37.77628 z"
     id="path3943"
     inkscape:connector-curvature="0" />
  <path
     style="fill:#ffffff;fill-opacity:1;stroke:none"
     d="m 47.596361,110.84786 c 0.239888,-11.898279 0.779864,-16.939108 2.545903,-23.766743 4.47607,-17.304806 15.14344,-32.512221 29.28292,-41.745766 l 2.221011,-1.450394 2.580288,0.877613 c 5.57952,1.897717 9.166241,4.257162 14.274101,9.3899 5.981036,6.010162 10.637316,13.308954 14.210326,22.274869 4.73304,11.876886 7.07597,23.621521 7.51683,37.680401 l 0.23752,7.57443 -36.543668,0 -36.543668,0 0.218437,-10.83431 0,0 z"
     id="path2999"
     inkscape:connector-curvature="0" />
  <path
     style="fill:#ffffff;fill-opacity:1;stroke:none"
     d="m 46.085012,134.81758 c 0.130744,-0.791 0.239616,-1.7402 0.241938,-2.10933 0.004,-0.63665 3.484862,-0.67116 67.69472,-0.67116 53.88781,0 67.6939,0.0978 67.70719,0.4794 0.009,0.26367 0.1586,1.21287 0.33202,2.10933 l 0.31532,1.62994 -68.26445,0 -68.264455,0 0.237717,-1.43818 z"
     id="path3001"
     inkscape:connector-curvature="0" />
  <path
     style="fill:#ffffff;fill-opacity:1;stroke:none"
     d="m 133.37567,118.13465 c -0.0147,-3.86054 -0.57559,-12.83767 -0.96377,-15.42629 l -0.24253,-1.61727 3.96568,0.008 c 3.89486,0.008 4.10949,-0.0394 12.0195,-2.67147 l 8.05383,-2.679895 0.63996,5.009065 c 0.35199,2.75498 0.76753,8.59013 0.92343,12.96701 l 0.28345,7.95794 -12.33301,0 -12.33301,0 -0.0135,-3.54752 z"
     id="path3003"
     inkscape:connector-curvature="0" />
  <path
     style="fill:#ffffff;fill-opacity:1;stroke:none"
     d="m 134.65313,85.335546 c -2.15344,-1.687858 -3.03927,-6.556502 -1.83516,-10.086314 1.20689,-3.537946 -1.00571,-2.606727 38.73103,-16.300771 20.03869,-6.905717 36.62384,-12.623563 36.85589,-12.706325 0.27831,-0.09926 0.49472,1.069832 0.63582,3.434908 0.21118,3.539707 1.55814,8.61354 2.79227,10.518139 0.61237,0.94505 7.09702,-1.335031 -49.36036,17.355683 -14.06215,4.655399 -25.88402,8.460523 -26.27082,8.455832 -0.38679,-0.0047 -1.0837,-0.306709 -1.54867,-0.671152 l 0,0 z"
     id="path3005"
     inkscape:connector-curvature="0" />
  <path
     style="fill:#ffffff;fill-opacity:1;stroke:none"
     d="m 119.80569,61.362501 c -3.15199,-5.807107 -8.69365,-13.30134 -12.56199,-16.988157 -2.80349,-2.671932 -6.71339,-5.83151 -8.110191,-6.553824 -1.550772,-0.801936 -1.095113,-1.017526 4.346721,-2.056602 3.38987,-0.647269 5.82404,-0.841486 10.56118,-0.842651 6.08291,-0.0015 6.18307,0.01217 8.43734,1.151612 3.07068,1.552098 6.59566,4.195294 9.41896,7.062762 3.06034,3.108226 8.3336,10.086253 7.92837,10.491487 -0.15191,0.151914 -7.88737,2.888378 -8.54621,3.023274 -1.54603,0.316544 -4.41043,1.637211 -4.41043,2.033482 0,0.266891 -0.16684,0.485255 -0.37076,0.485255 -0.20392,0 -1.45514,1.116449 -2.78049,2.480999 l -2.40973,2.480998 -1.50277,-2.768635 z"
     id="path3007"
     inkscape:connector-curvature="0" />
  <path
     style="fill:#ffffff;fill-opacity:1;stroke:none"
     d="m 152.22957,47.986409 c -0.42036,-0.71175 -0.74953,-1.30886 -0.73148,-1.326911 0.0181,-0.01805 0.63311,0.421067 1.3668,0.975817 1.59575,1.206558 1.55012,1.170322 1.51386,1.202084 -0.0368,0.03219 -1.30584,0.451911 -1.35116,0.446861 -0.0186,-0.0021 -0.37766,-0.586101 -0.79802,-1.297851 l 0,0 z"
     id="path3009"
     inkscape:connector-curvature="0" />
  <path
     style="fill:#ffffff;fill-opacity:1;stroke:none"
     d="m 228.01208,54.640321 c -1.34754,-0.360386 -2.54672,-1.54144 -3.47062,-3.418147 -0.84404,-1.714495 -0.89769,-1.994302 -0.89769,-4.682324 0,-2.693599 0.0524,-2.965303 0.90647,-4.700158 1.49847,-3.043824 3.6776,-4.237761 5.80915,-3.182807 2.40922,1.192377 3.79715,3.995774 3.83562,7.747372 0.0331,3.229439 -0.57339,4.931116 -2.42664,6.808341 -1.42754,1.446016 -2.36111,1.800853 -3.75629,1.427723 z"
     id="path3011"
     inkscape:connector-curvature="0" />
  <path
     style="fill:#ffffff;fill-opacity:1;stroke:none"
     d="m 171.44038,118.94653 c 0,-6.66491 -1.18742,-21.327352 -2.14017,-26.427182 l -0.2122,-1.135863 5.36613,-1.783803 5.36613,-1.783804 0.2775,1.395885 c 0.89945,4.524458 0.99197,6.719377 0.90193,21.395887 l -0.0678,11.05085 -4.74577,0 -4.74576,0 0,-2.71197 z"
     id="path3013"
     inkscape:connector-curvature="0" />
  <path
     style="fill:#ffffff;fill-opacity:1;stroke:none"
     d="m 37.478043,221.15998 c 0.0021,-0.21056 2.017622,-12.28114 4.479001,-26.82352 2.461379,-14.54237 5.050624,-29.88838 5.753879,-34.10225 l 1.278644,-7.66157 65.084713,0.0683 65.0847,0.0684 2.49388,14.77967 c 5.21012,30.87713 8.87826,53.40643 8.72105,53.56364 -0.0898,0.0898 -34.52889,0.23677 -76.53142,0.32669 -65.658122,0.14056 -76.367686,0.1098 -76.364447,-0.21936 z"
     id="path3015"
     inkscape:connector-curvature="0" />
</svg>
