<?xml version="1.0" encoding="UTF-8" standalone="no"?>
<!-- Created with Inkscape (http://www.inkscape.org/) -->

<svg
   xmlns:dc="http://purl.org/dc/elements/1.1/"
   xmlns:cc="http://creativecommons.org/ns#"
   xmlns:rdf="http://www.w3.org/1999/02/22-rdf-syntax-ns#"
   xmlns:svg="http://www.w3.org/2000/svg"
   xmlns="http://www.w3.org/2000/svg"
   xmlns:sodipodi="http://sodipodi.sourceforge.net/DTD/sodipodi-0.dtd"
   xmlns:inkscape="http://www.inkscape.org/namespaces/inkscape"
   width="256"
   height="256"
   id="svg2"
   version="1.1"
   inkscape:version="0.48.4 r9939"
   sodipodi:docname="queen.svg"
   inkscape:export-filename="C:\Users\PtaQ\Documents\GitHub\Balanced-Annihilation\luaui\icons\queen.png"
   inkscape:export-xdpi="90"
   inkscape:export-ydpi="90">
  <defs
     id="defs4">
    <inkscape:path-effect
       effect="spiro"
       id="path-effect3938"
       is_visible="true" />
    <inkscape:path-effect
       effect="spiro"
       id="path-effect3913"
       is_visible="true" />
    <inkscape:path-effect
       effect="spiro"
       id="path-effect3785"
       is_visible="true" />
    <inkscape:path-effect
       effect="spiro"
       id="path-effect3913-4"
       is_visible="true" />
  </defs>
  <sodipodi:namedview
     id="base"
     pagecolor="#ffffff"
     bordercolor="#666666"
     borderopacity="1.0"
     inkscape:pageopacity="0.0"
     inkscape:pageshadow="2"
     inkscape:zoom="2.8"
     inkscape:cx="197.56675"
     inkscape:cy="81.041348"
     inkscape:document-units="px"
     inkscape:current-layer="layer1"
     showgrid="false"
     inkscape:window-width="1920"
     inkscape:window-height="1018"
     inkscape:window-x="-8"
     inkscape:window-y="-8"
     inkscape:window-maximized="1" />
  <metadata
     id="metadata7">
    <rdf:RDF>
      <cc:Work
         rdf:about="">
        <dc:format>image/svg+xml</dc:format>
        <dc:type
           rdf:resource="http://purl.org/dc/dcmitype/StillImage" />
        <dc:title></dc:title>
      </cc:Work>
    </rdf:RDF>
  </metadata>
  <g
     inkscape:label="Layer 1"
     inkscape:groupmode="layer"
     id="layer1"
     transform="translate(0,-796.36218)">
    <g
       id="g3809"
       transform="matrix(0.48784671,0,0,0.4392952,-54.77353,722.63102)">
      <path
         transform="matrix(0.76470521,-0.01251348,0.01251348,0.76470521,44.84223,200.09896)"
         sodipodi:open="true"
         sodipodi:end="6.1158832"
         sodipodi:start="3.5499561"
         d="m 142.02688,656.379 c 63.58292,-34.81719 234.25277,-50.82955 381.20179,-35.76461 90.12684,9.23964 154.38602,28.66114 170.73885,51.60359"
         sodipodi:ry="68.690376"
         sodipodi:rx="289.91379"
         sodipodi:cy="683.65649"
         sodipodi:cx="408.10162"
         id="path2993"
         style="fill:none;stroke:#000000;stroke-width:15;stroke-linecap:butt;stroke-linejoin:bevel;stroke-miterlimit:4;stroke-opacity:1;stroke-dasharray:none;stroke-dashoffset:0"
         sodipodi:type="arc" />
      <path
         transform="matrix(0.76470521,-0.01251348,0.01251348,0.76470521,46.809265,151.99639)"
         sodipodi:open="true"
         sodipodi:end="6.1158832"
         sodipodi:start="3.5499561"
         d="m 142.02688,656.379 c 63.58292,-34.81719 234.25277,-50.82955 381.20179,-35.76461 90.12684,9.23964 154.38602,28.66114 170.73885,51.60359"
         sodipodi:ry="68.690376"
         sodipodi:rx="289.91379"
         sodipodi:cy="683.65649"
         sodipodi:cx="408.10162"
         id="path2993-1"
         style="fill:none;stroke:#000000;stroke-width:15;stroke-linecap:butt;stroke-linejoin:bevel;stroke-miterlimit:4;stroke-opacity:1;stroke-dasharray:none;stroke-dashoffset:0"
         sodipodi:type="arc" />
      <path
         inkscape:connector-curvature="0"
         id="path3781"
         d="m 162.63456,647.29101 3.03046,52.52793"
         style="fill:none;stroke:#000000;stroke-width:10;stroke-linecap:butt;stroke-linejoin:miter;stroke-miterlimit:4;stroke-opacity:1;stroke-dasharray:none" />
      <path
         inkscape:connector-curvature="0"
         inkscape:original-d="m 584.87832,654.36208 -3.03045,50.50763"
         inkscape:path-effect="#path-effect3785"
         id="path3783"
         d="m 584.87832,654.36208 -3.03045,50.50763"
         style="fill:none;stroke:#000000;stroke-width:10;stroke-linecap:butt;stroke-linejoin:miter;stroke-miterlimit:4;stroke-opacity:1;stroke-dasharray:none" />
      <path
         inkscape:connector-curvature="0"
         id="path3787"
         d="m 574.39442,690.00367 c -7.72353,-5.40977 -33.19106,-13.9506 -55.32252,-18.55304 -44.18073,-9.18779 -90.67789,-12.76027 -153.39144,-11.7854 -60.00044,0.9327 -106.7458,5.73662 -149.30477,15.34374 -13.07305,2.95106 -33.22094,8.8599 -39.74281,11.6555 -2.51027,1.07603 -4.93524,1.95641 -5.38881,1.95641 -0.45358,0 -1.10843,-5.79575 -1.45521,-12.87944 -0.34679,-7.0837 -0.81038,-14.30644 -1.0302,-16.05054 -0.38334,-3.04139 -0.11886,-3.30054 6.46593,-6.33567 34.6602,-15.97592 97.04895,-26.32973 177.82896,-29.51186 72.56395,-2.85848 150.04288,4.70254 194.45437,18.97641 9.284,2.98389 24.96249,10.4276 29.04057,13.78767 l 2.77662,2.28774 -1.07197,16.10448 c -0.58958,8.85746 -1.18463,16.21714 -1.32233,16.35484 -0.13769,0.1377 -1.27907,-0.47018 -2.53639,-1.35084 z"
         style="fill:none;stroke:#000000;stroke-width:10.10152531;stroke-linecap:butt;stroke-linejoin:bevel;stroke-miterlimit:4;stroke-opacity:1;stroke-dasharray:none;stroke-dashoffset:0" />
    </g>
    <path
       style="fill:#000000;fill-opacity:1;stroke:none"
       d="m 222.4213,1022.0396 c -0.95278,-0.445 -4.15991,-1.5402 -7.12698,-2.4341 -14.67921,-4.4226 -33.94061,-7.3864 -56.60283,-8.71 -11.87769,-0.6937 -53.54513,-0.2707 -65.86899,0.6689 -23.454915,1.788 -42.082489,4.7935 -57.072681,9.2082 -2.524229,0.7435 -4.718151,1.2361 -4.87537,1.0944 -0.519468,-0.4678 -0.973443,-8.9151 -0.508806,-9.4679 1.411952,-1.6792 19.199536,-6.5331 31.164084,-8.5042 46.597863,-7.67636 109.633693,-6.8348 145.316743,1.9401 5.88837,1.448 8.98537,2.5299 14.26964,4.9849 l 4.35452,2.0232 -0.34193,4.7057 c -0.18808,2.5881 -0.4844,4.8393 -0.65852,5.0027 -0.17413,0.1634 -1.09613,-0.067 -2.04888,-0.5119 l 0,0 z"
       id="path3820"
       inkscape:connector-curvature="0" />
    <path
       style="fill:#000000;fill-opacity:1;stroke:none"
       d="m 226.7865,1033.0954 c -6.89161,-6.3079 -28.83317,-11.671 -57.81451,-14.1318 -28.53893,-2.423 -61.79285,-1.986 -89.990286,1.1828 -22.641079,2.5442 -40.347093,6.4311 -51.059575,11.2089 -1.347023,0.6007 -2.488339,1.0922 -2.536252,1.0922 -0.04794,0 -0.349743,-0.4888 -0.670741,-1.0862 -0.33849,-0.6301 -0.718541,-1.1183 -0.904816,-1.162 -0.209519,-0.05 -0.321182,-0.2194 -0.321182,-0.4889 0,-0.2271 -0.162041,-0.6991 -0.360086,-1.0488 -0.343795,-0.6068 -0.346017,-0.6449 -0.04909,-0.8403 0.297733,-0.1959 0.286597,-0.5951 -0.26118,-9.3601 -0.31469,-5.0352 -0.617723,-9.667 -0.673389,-10.2925 l -0.101222,-1.1376 0.698361,0 c 0.490713,0 1.081117,-0.1904 1.985661,-0.6405 2.822877,-1.4043 7.54901,-3.1847 12.176744,-4.5871 15.027592,-4.55372 38.179523,-8.09798 63.158728,-9.66869 12.06262,-0.75852 15.69138,-0.85845 31.18734,-0.8588 15.51921,-3.2e-4 19.76972,0.11706 31.10023,0.85895 33.85824,2.21696 58.70632,7.78968 68.4119,15.34274 1.61341,1.2557 2.41757,2.1674 2.15902,2.4479 -0.10782,0.1172 -0.12611,0.2374 -0.0406,0.2673 0.0881,0.031 -0.13481,4.4004 -0.51475,10.0838 -0.63573,9.51 -0.6549,10.0449 -0.36983,10.3285 0.28461,0.2833 0.28461,0.3072 4e-5,0.4506 -0.16591,0.084 -0.34984,0.4292 -0.41066,0.7716 -0.10383,0.5841 -0.1453,0.6201 -0.71442,0.6201 -0.48408,0 -0.82152,0.1718 -1.69581,0.863 -0.6003,0.4747 -1.122,0.8598 -1.15928,0.8561 -0.0373,-0.011 -0.59099,-0.4858 -1.23048,-1.0712 l 0,0 z M 30.225315,1012.4831 c -0.04831,-0.1078 -0.08791,-0.02 -0.08791,0.1961 0,0.2158 0.03958,0.304 0.08791,0.1962 0.04831,-0.1079 0.04831,-0.2845 0,-0.3923 z"
       id="path3822"
       inkscape:connector-curvature="0" />
    <path
       sodipodi:type="arc"
       style="fill:#000000;fill-opacity:1;stroke:#ffffff;stroke-width:10;stroke-miterlimit:4;stroke-opacity:1;stroke-dasharray:none"
       id="path3826"
       sodipodi:cx="199.00005"
       sodipodi:cy="526.07269"
       sodipodi:rx="23.233509"
       sodipodi:ry="23.233509"
       d="m 222.23355,526.07269 a 23.233509,23.233509 0 1 1 -46.46701,0 23.233509,23.233509 0 1 1 46.46701,0 z"
       transform="matrix(0.36566575,0,0,0.32927394,-33.169915,841.08277)" />
    <path
       sodipodi:type="arc"
       style="fill:#000000;fill-opacity:1;stroke:#ffffff;stroke-width:10;stroke-miterlimit:4;stroke-opacity:1;stroke-dasharray:none"
       id="path3826-7"
       sodipodi:cx="199.00005"
       sodipodi:cy="526.07269"
       sodipodi:rx="23.233509"
       sodipodi:ry="23.233509"
       d="m 222.23355,526.07269 a 23.233509,23.233509 0 1 1 -46.46701,0 23.233509,23.233509 0 1 1 46.46701,0 z"
       transform="matrix(0.36566575,0,0,0.32927394,-5.3267354,835.09208)" />
    <path
       sodipodi:type="arc"
       style="fill:#000000;fill-opacity:1;stroke:#ffffff;stroke-width:10;stroke-miterlimit:4;stroke-opacity:1;stroke-dasharray:none"
       id="path3826-4"
       sodipodi:cx="199.00005"
       sodipodi:cy="526.07269"
       sodipodi:rx="23.233509"
       sodipodi:ry="23.233509"
       d="m 222.23355,526.07269 a 23.233509,23.233509 0 1 1 -46.46701,0 23.233509,23.233509 0 1 1 46.46701,0 z"
       transform="matrix(0.36566575,0,0,0.32927394,23.009241,831.32017)" />
    <path
       sodipodi:type="arc"
       style="fill:#000000;fill-opacity:1;stroke:#ffffff;stroke-width:10;stroke-miterlimit:4;stroke-opacity:1;stroke-dasharray:none"
       id="path3826-0"
       sodipodi:cx="199.00005"
       sodipodi:cy="526.07269"
       sodipodi:rx="23.233509"
       sodipodi:ry="23.233509"
       d="m 222.23355,526.07269 a 23.233509,23.233509 0 1 1 -46.46701,0 23.233509,23.233509 0 1 1 46.46701,0 z"
       transform="matrix(0.36566575,0,0,0.32927394,51.34521,829.54515)" />
    <path
       sodipodi:type="arc"
       style="fill:#000000;fill-opacity:1;stroke:#ffffff;stroke-width:10;stroke-miterlimit:4;stroke-opacity:1;stroke-dasharray:none"
       id="path3826-9"
       sodipodi:cx="199.00005"
       sodipodi:cy="526.07269"
       sodipodi:rx="23.233509"
       sodipodi:ry="23.233509"
       d="m 222.23355,526.07269 a 23.233509,23.233509 0 1 1 -46.46701,0 23.233509,23.233509 0 1 1 46.46701,0 z"
       transform="matrix(0.36566575,0,0,0.32927394,78.69559,830.21076)" />
    <path
       sodipodi:type="arc"
       style="fill:#000000;fill-opacity:1;stroke:#ffffff;stroke-width:10;stroke-miterlimit:4;stroke-opacity:1;stroke-dasharray:none"
       id="path3826-48"
       sodipodi:cx="199.00005"
       sodipodi:cy="526.07269"
       sodipodi:rx="23.233509"
       sodipodi:ry="23.233509"
       d="m 222.23355,526.07269 a 23.233509,23.233509 0 1 1 -46.46701,0 23.233509,23.233509 0 1 1 46.46701,0 z"
       transform="matrix(0.36566575,0,0,0.32927394,108.26355,833.09518)" />
    <path
       sodipodi:type="arc"
       style="fill:#000000;fill-opacity:1;stroke:#ffffff;stroke-width:10;stroke-miterlimit:4;stroke-opacity:1;stroke-dasharray:none"
       id="path3826-8"
       sodipodi:cx="199.00005"
       sodipodi:cy="526.07269"
       sodipodi:rx="23.233509"
       sodipodi:ry="23.233509"
       d="m 222.23355,526.07269 a 23.233509,23.233509 0 1 1 -46.46701,0 23.233509,23.233509 0 1 1 46.46701,0 z"
       transform="matrix(0.36566575,0,0,0.32927394,140.54193,840.19527)" />
    <path
       sodipodi:type="arc"
       style="fill:none;stroke:#000000;stroke-width:25;stroke-linecap:round;stroke-linejoin:bevel;stroke-miterlimit:4;stroke-opacity:1;stroke-dasharray:none;stroke-dashoffset:0"
       id="path3889"
       sodipodi:cx="393.57144"
       sodipodi:cy="809.14789"
       sodipodi:rx="200.71428"
       sodipodi:ry="40.357143"
       d="m 192.97655,807.75612 a 200.71428,40.357143 0 0 1 400.14466,-2.9492"
       sodipodi:start="3.1760857"
       sodipodi:end="6.1754129"
       sodipodi:open="true"
       transform="matrix(0.48784671,0,0,0.4392952,-64.53047,690.93901)" />
    <path
       sodipodi:type="arc"
       style="fill:none;stroke:#000000;stroke-width:25;stroke-linecap:round;stroke-linejoin:bevel;stroke-miterlimit:4;stroke-opacity:1;stroke-dasharray:none;stroke-dashoffset:0"
       id="path3889-2"
       sodipodi:cx="393.57144"
       sodipodi:cy="809.14789"
       sodipodi:rx="200.71428"
       sodipodi:ry="37.403648"
       d="m 208.36783,794.73011 a 200.71428,37.403648 0 0 1 374.26983,1.86116"
       sodipodi:start="3.5373039"
       sodipodi:end="5.9408311"
       transform="matrix(0.52857701,0,0,0.47597194,-81.760828,610.9341)"
       sodipodi:open="true" />
    <path
       style="fill:none;stroke:#000000;stroke-width:5.69409847;stroke-linecap:butt;stroke-linejoin:miter;stroke-miterlimit:4;stroke-opacity:1;stroke-dasharray:none"
       d="M 26.784801,1046.9209 24.690407,991.1186"
       id="path3911"
       inkscape:path-effect="#path-effect3913"
       inkscape:original-d="M 26.784801,1046.9209 24.690407,991.1186"
       inkscape:connector-curvature="0"
       sodipodi:nodetypes="cc" />
    <path
       style="fill:none;stroke:#000000;stroke-width:5.69409847;stroke-linecap:butt;stroke-linejoin:miter;stroke-miterlimit:4;stroke-opacity:1;stroke-dasharray:none"
       d="m 228.42213,1043.7169 2.3408,-53.25063"
       id="path3911-5"
       inkscape:path-effect="#path-effect3913-4"
       inkscape:original-d="m 228.42213,1043.7169 2.3408,-53.25063"
       inkscape:connector-curvature="0"
       sodipodi:nodetypes="cc" />
    <path
       style="fill:none;stroke:#000000;stroke-width:23.14674377;stroke-linecap:butt;stroke-linejoin:miter;stroke-miterlimit:4;stroke-opacity:1;stroke-dasharray:none"
       d="m 122.07149,886.10687 c 0,0 -92.864973,-31.66812 -38.657013,93.91458"
       id="path3994"
       inkscape:connector-curvature="0"
       sodipodi:nodetypes="cc" />
    <path
       style="fill:none;stroke:#000000;stroke-width:23.14674377;stroke-linecap:butt;stroke-linejoin:miter;stroke-miterlimit:4;stroke-opacity:1;stroke-dasharray:none"
       d="m 32.860246,985.20731 c 0,0 -58.685431,-97.58266 35.411525,-87.03369"
       id="path3996"
       inkscape:connector-curvature="0"
       sodipodi:nodetypes="cc" />
    <path
       style="fill:none;stroke:#000000;stroke-width:23.16631317;stroke-linecap:butt;stroke-linejoin:miter;stroke-miterlimit:4;stroke-opacity:1;stroke-dasharray:none"
       d="m 126.58703,875.19684 c 0,0 -1.23887,32.75774 -0.99592,49.13661 0.24295,16.37887 2.45369,49.13661 2.45369,49.13661"
       id="path4019"
       inkscape:connector-curvature="0"
       sodipodi:nodetypes="czc" />
    <path
       style="fill:none;stroke:#000000;stroke-width:23.16631317;stroke-linecap:butt;stroke-linejoin:miter;stroke-miterlimit:4;stroke-opacity:1;stroke-dasharray:none"
       d="m 132.70546,880.63284 c 0,0 1.23886,32.75774 0.99591,49.13661 -0.24297,16.37886 -2.4537,49.1366 -2.4537,49.1366"
       id="path4019-7"
       inkscape:connector-curvature="0"
       sodipodi:nodetypes="czc" />
    <path
       style="fill:#000000;fill-opacity:1;stroke:#000000;stroke-width:0.46293485px;stroke-linecap:butt;stroke-linejoin:miter;stroke-opacity:1"
       d="m 134.90677,877.1724 -3.04906,-19.45449 10.97657,-38.12454 -12.37042,-18.51317"
       id="path4039"
       inkscape:connector-curvature="0"
       sodipodi:nodetypes="cccc" />
    <path
       style="fill:#000000;fill-opacity:1;stroke:#000000;stroke-width:0.46293485px;stroke-linecap:butt;stroke-linejoin:miter;stroke-opacity:1"
       d="m 126.25243,876.87291 3.04906,-19.21917 -10.97656,-38.12456 12.3704,-18.51314"
       id="path4039-1"
       inkscape:connector-curvature="0"
       sodipodi:nodetypes="cccc" />
    <rect
       style="fill:#000000;fill-opacity:1;stroke:#000000;stroke-width:1.71457374;stroke-linecap:round;stroke-linejoin:bevel;stroke-miterlimit:4;stroke-opacity:1;stroke-dasharray:none;stroke-dashoffset:0"
       id="rect4059"
       width="35.362431"
       height="4.6486263"
       x="112.92702"
       y="855.32947" />
    <path
       style="fill:#000000;fill-opacity:1;stroke:#000000;stroke-width:0.46293485px;stroke-linecap:butt;stroke-linejoin:miter;stroke-opacity:1"
       d="m 141.97113,870.62785 c 0,0 -4.46362,-1.47734 -6.40424,-5.47864 -1.94062,-4.00132 -2.16931,-6.01526 -1.25865,-10.18743 0.91067,-4.17219 5.03269,-19.77756 15.29255,-24.36143 6.56726,-2.93409 10.61459,-1.72905 12.28142,-0.85584 1.66684,0.87317 3.89393,2.55645 5.38947,5.8654 0.7445,1.64729 1.10002,7.17705 -2.63695,9.40948 -3.16925,1.89327 -4.55091,1.51904 -4.55091,1.51904 0,0 2.67731,-7.3507 -3.03615,-7.73211 -3.9335,-0.26258 -6.73599,0.11608 -9.94693,2.76756 -1.94957,1.60989 -4.09027,1.98994 -8.54363,14.40834 0,0 -0.766,5.62553 0.0697,7.78523 0.83567,2.15972 1.6029,3.53742 3.00048,4.72874 1.39758,1.19132 4.17099,2.1276 4.17099,2.1276 z"
       id="path4063"
       inkscape:connector-curvature="0"
       sodipodi:nodetypes="csssssscsscsscc" />
    <path
       style="fill:#000000;fill-opacity:1;stroke:#000000;stroke-width:0.46293485px;stroke-linecap:butt;stroke-linejoin:miter;stroke-opacity:1"
       d="m 119.48586,871.16938 c 0,0 4.46362,-1.47732 6.40423,-5.47862 1.94063,-4.00133 2.16932,-6.01527 1.25864,-10.18745 -0.91067,-4.17218 -5.03268,-19.77756 -15.29255,-24.36142 -6.56727,-2.9341 -10.61456,-1.72904 -12.281407,-0.85584 -1.666843,0.87318 -3.89395,2.55644 -5.389469,5.86541 -0.744519,1.64727 -1.100034,7.17704 2.636944,9.40946 3.169236,1.89328 4.550922,1.51905 4.550922,1.51905 0,0 -2.677321,-7.35071 3.03613,-7.73211 3.93354,-0.26259 6.73601,0.11607 9.94692,2.76756 1.94958,1.60989 4.09027,1.98994 8.54365,14.40833 0,0 0.76599,5.62553 -0.0697,7.78525 -0.83569,2.15972 -1.60291,3.53741 -3.00047,4.72872 -1.39758,1.19131 -4.17101,2.12759 -4.17101,2.12759 z"
       id="path4063-5"
       inkscape:connector-curvature="0"
       sodipodi:nodetypes="csssssscsscsscc" />
    <path
       style="fill:none;stroke:#000000;stroke-width:23.14674377;stroke-linecap:butt;stroke-linejoin:miter;stroke-miterlimit:4;stroke-opacity:1;stroke-dasharray:none"
       d="m 132.71726,887.38744 c 0,0 92.86496,-31.66812 38.65699,93.91458"
       id="path3994-2"
       inkscape:connector-curvature="0"
       sodipodi:nodetypes="cc" />
    <path
       style="fill:none;stroke:#000000;stroke-width:23.14674377;stroke-linecap:butt;stroke-linejoin:miter;stroke-miterlimit:4;stroke-opacity:1;stroke-dasharray:none"
       d="m 221.43569,985.60037 c 0,0 58.68543,-97.58266 -35.41152,-87.03369"
       id="path3996-7"
       inkscape:connector-curvature="0"
       sodipodi:nodetypes="cc" />
    <path
       style="fill:#000000;fill-opacity:1;stroke:#000000;stroke-width:0.20666736;stroke-linecap:round;stroke-linejoin:bevel;stroke-miterlimit:4;stroke-opacity:1;stroke-dasharray:none;stroke-dashoffset:0"
       d="m 130.16861,875.31615 c -1.84466,-0.0537 -3.36737,-0.10855 -3.3838,-0.1219 -0.0164,-0.0133 0.48335,-3.25865 1.11058,-7.21182 l 1.14044,-7.18757 1.53172,0 1.53172,0 0.0264,0.14708 c 0.0801,0.44586 2.24624,14.33495 2.24624,14.40238 0,0.0998 0.24985,0.10143 -4.20331,-0.0282 z"
       id="path4134"
       inkscape:connector-curvature="0" />
    <path
       style="fill:#000000;fill-opacity:1;stroke:#000000;stroke-width:1.16908717;stroke-linecap:round;stroke-linejoin:bevel;stroke-miterlimit:4;stroke-opacity:1;stroke-dasharray:none;stroke-dashoffset:0"
       d="m 128.48337,854.05298 c -0.85113,-2.01585 -0.84354,-2.36151 0.58367,-26.53283 0.76019,-12.87445 1.38159,-23.6494 1.38094,-23.94431 -4.9e-4,-0.2949 0.0449,-0.49458 0.10128,-0.44374 0.0564,0.0508 0.73639,10.92179 1.51114,24.15769 1.38501,23.66165 1.40153,24.09234 0.98525,25.68231 l -0.42337,1.6171 -1.95628,0 c -1.842,0 -1.9695,-0.0313 -2.18268,-0.53622 l 0,0 z"
       id="path4136"
       inkscape:connector-curvature="0" />
    <path
       style="fill:#000000;fill-opacity:1;stroke:#000000;stroke-width:0.46293485;stroke-linecap:round;stroke-linejoin:bevel;stroke-miterlimit:4;stroke-opacity:1;stroke-dasharray:none;stroke-dashoffset:0"
       d="m 29.174405,1051.2504 c -1.902713,-0.2959 -2.382387,-0.4949 -3.622217,-1.5035 -0.891264,-0.725 -1.464808,-1.5362 -1.713628,-2.4238 -0.205698,-0.7338 -0.463878,-5.093 -0.573747,-9.6876 -0.217756,-9.1068 -0.370163,-13.1657 -0.888098,-23.6522 -0.187519,-3.7969 -0.417508,-10.7959 -0.511076,-15.55361 L 21.695506,989.77933 18.76637,984.3095 C 7.9915858,964.18874 1.9536065,943.11644 2.6336309,928.0069 c 0.4862815,-10.80447 3.1776468,-18.30288 9.2108531,-25.66238 6.360964,-7.75928 15.677065,-12.56888 28.829163,-14.88357 3.986613,-0.70161 5.631737,-0.81114 13.714574,-0.9132 l 9.18458,-0.11592 0.948886,-1.17723 c 1.428834,-1.77265 6.175332,-5.65882 8.733148,-7.15024 6.581149,-3.83733 13.180971,-5.75508 22.033144,-6.40237 7.423351,-0.5428 18.116631,0.54008 26.223701,2.65561 1.63767,0.42734 3.35386,0.777 3.81376,0.777 0.92344,0 0.95401,-0.16611 1.41479,-7.68767 l 0.19224,-3.13781 -0.68812,1.33556 c -1.05115,2.04014 -2.33943,3.39345 -4.40656,4.62897 -1.75811,1.05084 -2.03531,1.11831 -4.23723,1.03154 l -2.35607,-0.0929 1.76442,-0.83852 c 0.97044,-0.46117 2.32357,-1.39582 3.00696,-2.07697 1.45011,-1.44538 2.72055,-4.26546 2.72055,-6.03905 l 0,-1.24338 -4.82445,0 c -5.93002,0 -5.97787,-0.028 -5.97787,-3.49199 0,-1.40501 0.16756,-2.49523 0.41817,-2.72089 0.28165,-0.25363 1.87395,-0.37654 4.87846,-0.37654 2.45317,0 4.46032,-0.0811 4.46032,-0.18053 0,-0.7234 -3.07717,-7.02866 -4.18019,-8.56539 -1.57061,-2.18823 -4.85233,-4.64756 -7.25864,-5.43967 -1.82801,-0.60176 -6.34214,-0.74765 -7.39743,-0.23909 -1.25688,0.60572 -1.82306,2.11894 -1.6325,4.36313 0.0962,1.13305 0.23285,2.2719 0.30358,2.53078 0.29267,1.07101 -3.701047,-0.13145 -5.567801,-1.67642 -1.717652,-1.42155 -2.313265,-2.96983 -2.312499,-6.01124 4.87e-4,-2.47869 0.118959,-3.02682 0.967672,-4.48212 1.918632,-3.28992 5.063008,-5.3427 8.629948,-5.63394 2.51038,-0.20498 5.01747,0.31259 8.34246,1.72225 6.23199,2.64209 11.65603,10.09935 14.528,19.97391 1.00952,3.47107 1.72859,4.71682 1.3529,2.34386 -0.12639,-0.79826 -2.31414,-8.7003 -4.8617,-17.5601 l -4.63187,-16.10876 6.12768,-9.12237 c 3.37025,-5.01731 6.28451,-9.13071 6.47615,-9.1409 0.19166,-0.0103 3.10567,4.12249 6.47556,9.18376 l 6.12708,9.20227 -4.59384,15.92982 c -2.52662,8.7614 -4.70539,16.60053 -4.84171,17.42029 -0.43918,2.64096 0.33653,1.58671 1.26977,-1.72581 2.54342,-9.02756 7.44226,-16.72762 12.60583,-19.81389 3.14151,-1.87768 6.20018,-2.78694 9.44043,-2.80639 3.47929,-0.0209 5.41274,0.73982 7.69807,3.02868 2.58351,2.58751 3.07403,3.69258 3.09025,6.96187 0.016,3.21066 -0.63175,4.73439 -2.6713,6.28468 -2.24906,1.70954 -5.87005,2.71561 -5.34576,1.48531 0.12778,-0.29992 0.32154,-1.40523 0.43052,-2.4563 0.39005,-3.76114 -1.21218,-5.06675 -5.85106,-4.76787 -3.07837,0.19832 -5.55774,1.28731 -8.24909,3.62316 -2.19189,1.90237 -3.98722,4.81792 -5.78956,9.4021 l -0.89442,2.27492 4.45282,0 c 2.99869,0 4.58939,0.12297 4.87099,0.37654 0.2523,0.2272 0.41814,1.32799 0.41814,2.77541 0,3.38898 -0.0829,3.43747 -5.86417,3.43747 l -4.58968,0 0,1.08663 c 0,1.31804 1.15221,4.05336 2.25998,5.36503 0.44612,0.52827 1.7693,1.42034 2.94041,1.98241 1.17108,0.56207 2.0389,1.15357 1.92847,1.31447 -0.11038,0.16087 -1.01474,0.29118 -2.00961,0.28956 -3.36224,-0.005 -6.67629,-2.34073 -8.64811,-6.09391 -0.96908,-1.84459 -1.00032,-1.86998 -0.99177,-0.80636 0.014,1.75459 0.65801,10.7466 0.77727,10.85396 0.0596,0.0536 1.98259,-0.24507 4.27335,-0.66387 7.90605,-1.44543 17.17906,-1.87851 23.48131,-1.09667 10.57546,1.31199 19.85114,5.49214 25.91974,11.68093 l 1.83272,1.86902 8.8772,0.0906 c 9.52948,0.0973 13.77795,0.56217 20.2393,2.21444 15.86088,4.0559 26.70602,14.22274 30.45625,28.5514 1.37815,5.26547 1.67865,8.37184 1.46371,15.13009 -0.28517,8.96564 -1.73366,16.42986 -5.19295,26.75983 -2.95976,8.8383 -7.63287,19.55403 -11.73151,26.90112 -1.90009,3.40609 -2.1257,4.16333 -1.24042,4.16333 0.4785,0 0.52325,0.40076 0.34165,3.05938 -0.11494,1.68265 -0.36611,7.08364 -0.55815,12.00224 -0.90933,23.2888 -1.70767,38.1184 -2.05771,38.2236 -0.20194,0.06 -0.36718,0.5128 -0.36718,1.005 0,2.8131 -2.62425,5.0148 -5.9776,5.0148 -1.98211,0 -3.39101,-0.6612 -5.25793,-2.4674 -5.90531,-5.7134 -28.49086,-10.1582 -62.63839,-12.3273 -12.43507,-0.7899 -42.73581,-0.9755 -54.0116,-0.3308 -28.188569,1.6113 -47.301656,4.3699 -59.971627,8.6554 -4.488888,1.5183 -6.809168,2.8832 -7.733133,4.5492 -1.170651,2.1106 -3.886561,3.5874 -5.994945,3.2599 z m 1.514284,-14.7923 c 1.366152,-0.8689 5.460147,-2.6535 8.242646,-3.5935 12.963931,-4.3788 31.791829,-7.2086 60.283922,-9.0604 10.021053,-0.6511 47.146023,-0.5454 58.367363,0.1664 30.3694,1.9262 51.77892,5.6071 63.52034,10.9204 1.19061,0.5387 2.60499,1.2595 3.14308,1.6017 0.53807,0.3421 1.04383,0.5631 1.12386,0.4909 0.0801,-0.071 0.24933,-1.1368 0.3762,-2.366 l 0.2307,-2.2351 -2.39995,-1.3919 c -18.2074,-10.5605 -74.4863,-16.0008 -127.149289,-12.2911 -26.93574,1.8974 -50.770567,6.0161 -64.415454,11.1312 l -2.663475,0.9984 0,3.1086 c 0,1.7097 0.09342,3.1085 0.207559,3.1085 0.114156,0 0.623779,-0.2646 1.132498,-0.5881 z m 13.465431,-13.9873 c 3.561441,-1.5689 5.539601,-4.4878 5.539601,-8.1737 0,-5.2503 -4.259907,-9.095 -10.053034,-9.0731 -5.925667,0.023 -10.086639,3.762 -10.095361,9.0731 -0.0113,6.9306 7.672423,11.2297 14.608794,8.1737 z m 172.8018,-0.4997 c 3.67664,-1.2387 6.118,-4.2364 6.40748,-7.8675 0.21923,-2.75 -0.55361,-4.816 -2.54924,-6.8147 -3.82186,-3.8278 -10.42823,-4.0222 -14.56351,-0.4287 -2.01927,1.7547 -2.76137,3.2924 -2.9481,6.1083 -0.14941,2.2531 -0.0785,2.5889 0.94104,4.4536 2.37219,4.339 7.6886,6.2415 12.71233,4.549 z M 70.034321,1017.169 c 8.078326,-1.8869 10.254985,-11.5624 3.625477,-16.1156 -5.128147,-3.52219 -12.390281,-1.94261 -15.446164,3.3595 -1.160019,2.0126 -1.153305,5.824 0.01388,7.8445 1.530725,2.6502 3.885368,4.3491 6.92023,4.9929 1.917275,0.4067 2.864572,0.3911 4.886632,-0.081 l -9e-6,0 z m 115.599499,-2.6343 c 6.29438,-2.9585 7.44086,-10.7355 2.20729,-14.97259 -2.21961,-1.79697 -4.51399,-2.49292 -7.56796,-2.29549 -10.28097,0.66454 -12.98788,12.99838 -3.77365,17.19438 2.0032,0.9123 2.3735,0.9763 4.95278,0.8574 1.92838,-0.089 3.21734,-0.3305 4.18154,-0.7837 z m -85.31725,-1.8232 c 6.20215,-2.7127 7.53629,-10.0734 2.6523,-14.63332 -5.552683,-5.18424 -15.6721,-2.38356 -17.168016,4.75152 -1.562111,7.4508 6.901115,13.2123 14.515716,9.8818 z m 54.91216,-0.7648 c 1.9738,-0.665 4.30758,-2.5633 5.26848,-4.2854 2.14911,-3.8517 0.99704,-8.81557 -2.64471,-11.39505 -5.13842,-3.63962 -13.00163,-1.93394 -15.72858,3.41179 -1.07053,2.09876 -1.01485,5.61546 0.12114,7.64956 2.45187,4.3901 7.90504,6.3301 12.98367,4.6191 z m -27.47908,-0.6441 c 6.63077,-2.2341 8.63882,-9.8944 3.85075,-14.68984 -4.67839,-4.68562 -13.35989,-3.6433 -16.61739,1.99517 -0.48324,0.83639 -0.77903,2.06807 -0.88673,3.69197 -0.14949,2.2544 -0.0787,2.5883 0.94463,4.4602 0.62317,1.1399 1.66992,2.4421 2.3972,2.9825 2.86117,2.126 6.84344,2.7283 10.31154,1.56 l 0,0 z m -86.901775,-10.6603 c 17.049806,-4.6254 41.110916,-7.79831 69.169695,-9.12123 8.99866,-0.4243 42.34042,-0.21187 49.83005,0.31748 30.18002,2.13301 51.79566,6.05913 64.16444,11.65455 1.48347,0.671 2.78529,1.1409 2.89296,1.0442 0.1076,-0.097 0.25035,-2.0705 0.31705,-4.3863 l 0.12132,-4.21024 -1.34092,-0.0138 c -1.36013,-0.014 -1.67992,-0.10496 -6.48092,-1.84411 -11.8249,-4.28354 -34.9248,-7.55177 -64.5524,-9.13298 -10.18905,-0.54378 -36.79264,-0.7309 -47.9135,-0.337 -33.344056,1.18106 -60.032047,4.55623 -73.61574,9.31002 -1.771067,0.61983 -3.729748,1.12973 -4.352622,1.1331 -1.117595,0.006 -1.132495,0.0258 -1.132495,1.49488 0,0.81882 0.100467,2.96726 0.223255,4.77443 l 0.223246,3.2857 4.045412,-1.3935 c 2.224975,-0.7664 6.005499,-1.9253 8.401169,-2.5752 z M 213.83508,974.43604 c 9.67253,-18.96987 14.45887,-36.37899 13.10997,-47.68427 -1.39182,-11.66481 -8.20946,-16.89471 -22.98104,-17.62906 l -3.97133,-0.19743 0.23867,1.89959 c 0.13126,1.04479 0.24239,4.49093 0.24699,7.65812 0.0202,14.01643 -3.64439,30.44069 -11.47831,51.44321 l -2.05914,5.52055 3.35376,0.38759 c 4.39158,0.50754 14.46094,2.07933 17.98919,2.80805 1.53322,0.31667 2.8847,0.52902 3.00325,0.47192 0.11856,-0.0571 1.26514,-2.16234 2.54799,-4.67827 z m -164.798343,3.31997 c 5.174938,-0.91499 16.95486,-2.52487 18.475243,-2.52487 0.768881,0 0.737167,-0.13312 -1.289481,-5.41274 -5.56827,-14.50596 -9.532646,-29.11867 -11.300724,-41.6546 -0.630033,-4.46701 -0.857705,-16.35642 -0.356689,-18.62657 l 0.267417,-1.21164 -3.246351,0.20978 c -9.425677,0.60907 -15.567148,2.55649 -19.128745,6.06563 -2.001329,1.97182 -3.044853,3.68251 -4.158102,6.81649 -0.638841,1.79843 -0.811537,3.16579 -0.952972,7.54547 -0.251458,7.78628 0.85401,14.16526 4.157365,23.98964 3.369442,10.02088 10.621398,25.73259 11.875547,25.72887 0.23681,-4.3e-4 2.782675,-0.41716 5.657492,-0.92546 l 0,0 z m 112.994383,-5.42735 c 0.21115,-0.5609 1.50146,-3.91444 2.86737,-7.45233 4.3869,-11.36271 7.30373,-20.91789 9.19537,-30.12312 1.44396,-7.02664 1.75019,-9.90968 1.74978,-16.47356 -3.5e-4,-5.24545 -0.12314,-6.78378 -0.74802,-9.3712 -1.80818,-7.48694 -5.67677,-11.54514 -12.63453,-13.25386 -3.39223,-0.83308 -15.13401,-0.74189 -16.5897,0.12883 -0.25222,0.15087 -0.26136,4.45645 -0.0298,14.02412 0.4058,16.76486 -0.22485,38.79453 -1.69913,59.35217 l -0.22843,3.18516 2.91409,0.18655 c 1.60274,0.10256 5.34459,0.3067 8.31523,0.45354 2.97066,0.14684 5.64927,0.28869 5.9525,0.31524 0.33514,0.0293 0.7019,-0.35166 0.93526,-0.97154 l 10e-6,0 z m -53.76072,0.18873 7.48992,-0.20962 -0.17246,-1.5977 c -0.0951,-0.87872 -0.40394,-5.62195 -0.68691,-10.54048 -0.28294,-4.91853 -0.71201,-12.33164 -0.95348,-16.47358 -0.26221,-4.49801 -0.44025,-15.77606 -0.44212,-28.00508 -0.002,-11.26087 -0.0815,-20.47563 -0.17738,-20.47724 -0.0958,-0.002 -1.73278,-0.28663 -3.63769,-0.6334 -4.63794,-0.84425 -10.811422,-1.12103 -14.416522,-0.64636 -8.989051,1.18356 -13.262356,4.89257 -15.577261,13.52023 -0.774022,2.88478 -1.056204,11.25749 -0.545507,16.18575 1.267384,12.23046 5.933351,28.70759 12.957151,45.75614 l 1.531725,3.71788 3.570306,-0.19346 c 1.963676,-0.10642 6.940788,-0.28779 11.060228,-0.40308 z"
       id="path4138"
       inkscape:connector-curvature="0" />
    <path
       style="fill:#ffffff;fill-opacity:1;stroke:#000000;stroke-width:0.46763486;stroke-linecap:round;stroke-linejoin:bevel;stroke-miterlimit:4;stroke-opacity:1;stroke-dasharray:none;stroke-dashoffset:0"
       d="m 152.5079,972.70878 c -4.38461,-0.26816 -8.07066,-0.58741 -8.19121,-0.70943 -0.12052,-0.12204 0.0883,-4.51521 0.46409,-9.76262 0.38335,-5.35303 0.81702,-22.04441 0.988,-38.02746 l 0.30477,-28.48672 2.72026,-0.30604 c 4.11756,-0.46326 12.81209,0.0733 15.62851,0.9646 3.51151,1.1112 7.63178,4.9171 9.06964,8.37768 1.67128,4.02232 2.01837,6.40086 2.01837,13.83154 0,7.24838 -0.69312,12.56563 -2.76822,21.23675 -2.67872,11.19339 -10.64699,33.64395 -11.86743,33.4364 -0.21711,-0.037 -3.98216,-0.28654 -8.36678,-0.5547 l 0,0 z"
       id="path4140"
       inkscape:connector-curvature="0" />
    <path
       style="fill:#ffffff;fill-opacity:1;stroke:#000000;stroke-width:0.46763486;stroke-linecap:round;stroke-linejoin:bevel;stroke-miterlimit:4;stroke-opacity:1;stroke-dasharray:none;stroke-dashoffset:0"
       d="m 93.267334,971.90393 c -1.783901,-4.23632 -5.832699,-15.28764 -7.467791,-20.38357 -5.44646,-16.9745 -7.595597,-30.37169 -6.44295,-40.16384 1.442529,-12.25473 7.529558,-17.43381 20.509,-17.44984 4.160907,-0.005 12.456307,1.03026 13.081717,1.63282 0.20313,0.19571 0.49193,12.03769 0.64179,26.31552 0.16046,15.28769 0.57818,30.2467 1.01609,36.38792 1.04558,14.66294 1.10372,13.67237 -0.81801,13.93533 -0.88087,0.12052 -5.76213,0.33625 -10.84723,0.47939 l -9.245631,0.26026 -0.426985,-1.01399 z"
       id="path4142"
       inkscape:connector-curvature="0" />
    <path
       style="fill:#ffffff;fill-opacity:1;stroke:#000000;stroke-width:0.46763486;stroke-linecap:round;stroke-linejoin:bevel;stroke-miterlimit:4;stroke-opacity:1;stroke-dasharray:none;stroke-dashoffset:0"
       d="M 43.010062,978.04114 C 41.194348,976.00083 35.321427,963.04938 32.181598,954.16137 28.51386,943.779 27.91685,940.49892 27.91685,930.73011 l 0,-8.65322 1.545054,-2.94443 c 3.428385,-6.53353 9.23754,-9.32427 21.616529,-10.3847 l 3.449603,-0.2955 0.02678,9.69671 c 0.02348,8.50437 0.192846,10.5558 1.376961,16.68307 1.762258,9.1189 4.905794,20.31051 8.741277,31.12063 1.697987,4.78569 2.986587,8.79189 2.863555,8.90267 -0.123033,0.11078 -3.322059,0.60966 -7.108948,1.10862 -3.786899,0.49896 -9.155952,1.2818 -11.931255,1.73963 -3.672645,0.60588 -5.165847,0.69775 -5.486379,0.33755 l 0,0 z"
       id="path4144"
       inkscape:connector-curvature="0" />
    <path
       style="fill:#ffffff;fill-opacity:1;stroke:#000000;stroke-width:0.46763486;stroke-linecap:round;stroke-linejoin:bevel;stroke-miterlimit:4;stroke-opacity:1;stroke-dasharray:none;stroke-dashoffset:0"
       d="m 205.0783,977.97543 c -3.11697,-0.56139 -8.32832,-1.37075 -11.58081,-1.79858 -3.25245,-0.42782 -5.97879,-0.81941 -6.05855,-0.87018 -0.0796,-0.0508 1.20781,-3.96081 2.86115,-8.68896 7.76914,-22.21761 10.75324,-37.19677 10.24831,-51.44325 l -0.22067,-6.22634 3.48408,0.28403 c 8.5376,0.69602 13.27001,2.17171 16.97667,5.29379 4.62918,3.89912 6.21492,8.96498 5.83628,18.64482 -0.35069,8.96574 -2.73128,18.16306 -7.78508,30.07754 -2.24106,5.28334 -7.58216,15.91576 -7.93674,15.79948 -0.0866,-0.0284 -2.70768,-0.51095 -5.82464,-1.07235 z"
       id="path4146"
       inkscape:connector-curvature="0" />
    <path
       style="fill:#ffffff;fill-opacity:1;stroke:#000000;stroke-width:0.46763486;stroke-linecap:round;stroke-linejoin:bevel;stroke-miterlimit:4;stroke-opacity:1;stroke-dasharray:none;stroke-dashoffset:0"
       d="m 28.456215,1002.9391 c -0.546621,-2.4612 -0.335163,-7.43802 0.323037,-7.60295 0.338798,-0.0849 2.722719,-0.77369 5.2976,-1.53068 21.812148,-6.41247 60.52171,-9.91583 101.516698,-9.18763 38.02345,0.67542 69.17233,4.34848 85.05427,10.02958 2.02141,0.72308 4.33483,1.3147 5.14089,1.3147 1.3342,0 1.46557,0.1334 1.46557,1.48806 0,0.81843 -0.13979,2.69212 -0.3106,4.16392 l -0.3106,2.676 -5.22985,-1.973 c -6.69957,-2.52763 -13.04172,-4.2153 -22.12738,-5.88849 -21.97931,-4.0476 -44.94602,-5.62876 -75.50949,-5.19854 -36.659872,0.51602 -67.37101,4.34512 -88.780551,11.06933 l -6.236642,1.9586 -0.292952,-1.3189 z"
       id="path4148"
       inkscape:connector-curvature="0" />
    <path
       style="fill:#ffffff;fill-opacity:1;stroke:#000000;stroke-width:0.46763486;stroke-linecap:round;stroke-linejoin:bevel;stroke-miterlimit:4;stroke-opacity:1;stroke-dasharray:none;stroke-dashoffset:0"
       d="m 29.641651,1033.7512 0,-2.9913 5.051197,-1.6401 c 23.73176,-7.7061 62.626821,-11.9746 102.625512,-11.2628 37.04724,0.6594 67.61057,4.9112 82.29752,11.4489 6.05761,2.6965 6.3584,2.9685 5.95563,5.3872 l -0.33755,2.0269 -3.79465,-1.7514 c -11.52022,-5.3171 -33.77149,-9.1947 -63.66976,-11.0948 -4.51459,-0.287 -18.76182,-0.5147 -32.03198,-0.5118 -20.73063,0 -25.40415,0.1336 -35.235176,0.9724 -29.106188,2.4836 -46.353386,5.7015 -57.041548,10.6425 l -3.819195,1.7658 0,-2.9915 z"
       id="path4150"
       inkscape:connector-curvature="0" />
    <path
       style="fill:#ffffff;fill-opacity:1;stroke:#000000;stroke-width:0.46763486;stroke-linecap:round;stroke-linejoin:bevel;stroke-miterlimit:4;stroke-opacity:1;stroke-dasharray:none;stroke-dashoffset:0"
       d="m 211.10799,1022.1665 c -4.54431,-1.0088 -7.50808,-4.5356 -7.50808,-8.934 0,-3.0003 1.13509,-5.0327 3.86785,-6.9256 3.81831,-2.6449 8.71272,-2.4153 12.39637,0.5815 3.37377,2.7446 4.29076,7.2208 2.21488,10.8119 -1.87367,3.2413 -7.03116,5.3408 -10.97102,4.4662 z m 5.69784,-3.8717 c 1.57325,-0.8849 3.05242,-3.2148 3.05461,-4.8113 0.006,-3.0471 -3.2595,-5.9859 -6.64326,-5.9822 -1.79303,0 -4.34256,1.3281 -5.43204,2.8254 -1.02493,1.4086 -1.06196,4.1928 -0.0785,5.9051 1.69869,2.958 5.83928,3.8968 9.09923,2.063 l 0,0 z"
       id="path4152"
       inkscape:connector-curvature="0" />
    <path
       style="fill:#ffffff;fill-opacity:1;stroke:#000000;stroke-width:0.46763486;stroke-linecap:round;stroke-linejoin:bevel;stroke-miterlimit:4;stroke-opacity:1;stroke-dasharray:none;stroke-dashoffset:0"
       d="m 176.74232,1014.3472 c -7.02431,-3.2831 -7.56374,-11.8189 -0.97961,-15.50068 1.98154,-1.10801 2.89651,-1.33123 5.45691,-1.33123 2.63137,0 3.38458,0.19515 5.20887,1.34969 3.25784,2.06192 4.43152,4.22022 4.24234,7.80152 -0.1841,3.4854 -1.71614,5.8696 -4.76239,7.4113 -2.3233,1.1758 -6.93657,1.3113 -9.16612,0.2694 z m 8.03318,-3.2127 c 2.78038,-1.6188 3.48195,-6.1323 1.31389,-8.4525 -3.27886,-3.5087 -9.71893,-2.5298 -11.12327,1.6908 -1.81374,5.4515 4.53907,9.8304 9.80938,6.7617 z"
       id="path4154"
       inkscape:connector-curvature="0" />
    <path
       style="fill:#ffffff;fill-opacity:1;stroke:#000000;stroke-width:0.46763486;stroke-linecap:round;stroke-linejoin:bevel;stroke-miterlimit:4;stroke-opacity:1;stroke-dasharray:none;stroke-dashoffset:0"
       d="m 148.25111,1011.9299 c -5.35819,-1.4483 -8.21881,-7.4542 -5.81766,-12.21417 3.31218,-6.56611 14.35461,-6.83453 17.79624,-0.43255 1.6154,3.00482 1.27469,7.08782 -0.78611,9.42042 -2.70797,3.0652 -7.10227,4.3317 -11.19247,3.2263 l 0,0 z m 6.04979,-3.3119 c 4.45791,-2.0759 4.73999,-7.8956 0.49221,-10.15511 -3.16151,-1.68165 -7.40611,-0.56415 -9.10701,2.39771 -2.79964,4.8751 3.20089,10.2785 8.6148,7.7574 z"
       id="path4156"
       inkscape:connector-curvature="0" />
    <path
       style="fill:#ffffff;fill-opacity:1;stroke:#000000;stroke-width:0.46763486;stroke-linecap:round;stroke-linejoin:bevel;stroke-miterlimit:4;stroke-opacity:1;stroke-dasharray:none;stroke-dashoffset:0"
       d="m 119.48697,1010.6311 c -1.29728,-0.5303 -2.5764,-1.5431 -3.4496,-2.7313 -1.2182,-1.6576 -1.38779,-2.3034 -1.38779,-5.2835 0,-3.05332 0.14218,-3.56293 1.41229,-5.06242 3.86795,-4.56647 10.45429,-5.00124 14.91493,-0.98452 6.28581,5.66034 2.03818,14.94754 -6.82119,14.91444 -1.48673,0 -3.49275,-0.3719 -4.66864,-0.8527 z m 8.12213,-2.9864 c 1.57325,-0.8849 3.05243,-3.2148 3.05462,-4.8113 0.006,-3.04697 -3.25951,-5.98589 -6.64327,-5.98211 -1.79302,0.003 -4.34256,1.32808 -5.43205,2.82538 -1.02493,1.40853 -1.06194,4.19253 -0.0786,5.90513 1.69871,2.958 5.83929,3.8966 9.09922,2.0629 z"
       id="path4158"
       inkscape:connector-curvature="0" />
    <path
       style="fill:#ffffff;fill-opacity:1;stroke:#000000;stroke-width:0.46763486;stroke-linecap:round;stroke-linejoin:bevel;stroke-miterlimit:4;stroke-opacity:1;stroke-dasharray:none;stroke-dashoffset:0"
       d="m 91.488002,1012.5708 c -3.441105,-1.6116 -5.636702,-4.7089 -5.656376,-7.9794 -0.01582,-2.6279 1.990636,-5.94217 4.476178,-7.3934 5.013246,-2.92713 11.015526,-1.63526 14.047456,3.0234 1.11224,1.7091 1.26278,2.3714 1.09099,4.8006 -0.2518,3.5612 -1.88356,5.9622 -4.96453,7.3052 -2.599293,1.1332 -6.848537,1.2483 -8.993718,0.2436 z m 8.033171,-3.2113 c 2.780377,-1.6189 3.481977,-6.1322 1.313897,-8.4525 -3.27887,-3.50882 -9.71893,-2.52986 -11.123268,1.6909 -1.813753,5.4513 4.539074,9.8302 9.809371,6.7616 z"
       id="path4160"
       inkscape:connector-curvature="0" />
    <path
       style="fill:#ffffff;fill-opacity:1;stroke:#000000;stroke-width:0.46763486;stroke-linecap:round;stroke-linejoin:bevel;stroke-miterlimit:4;stroke-opacity:1;stroke-dasharray:none;stroke-dashoffset:0"
       d="m 63.161803,1016.2639 c -1.193632,-0.5492 -2.8449,-1.7618 -3.669464,-2.6951 -1.296895,-1.4676 -1.522558,-2.1264 -1.672202,-4.8813 -0.196781,-3.6227 0.574398,-5.0822 3.995012,-7.561 2.513123,-1.82126 7.047007,-2.1786 10.062689,-0.7932 4.853123,2.2294 6.802686,7.1096 4.592119,11.4949 -2.428439,4.8176 -8.256046,6.76 -13.308154,4.4357 z m 8.300573,-3.327 c 3.043262,-2.0461 3.197554,-6.2572 0.324055,-8.8447 -1.384343,-1.2466 -1.98989,-1.4737 -3.928006,-1.4737 -4.672156,0 -6.947615,2.275 -6.734351,6.7331 0.06345,1.3267 2.142881,3.7901 3.712549,4.3982 1.565778,0.6066 5.172503,0.1641 6.625753,-0.8129 l 0,0 z"
       id="path4162"
       inkscape:connector-curvature="0" />
    <path
       style="fill:#ffffff;fill-opacity:1;stroke:#000000;stroke-width:0.46763486;stroke-linecap:round;stroke-linejoin:bevel;stroke-miterlimit:4;stroke-opacity:1;stroke-dasharray:none;stroke-dashoffset:0"
       d="m 38.265638,1023.2558 c -0.271034,-0.081 -1.098569,-0.2672 -1.838956,-0.4141 -1.613585,-0.3201 -4.60446,-2.5963 -5.530513,-4.2088 -2.469426,-4.3001 -0.729723,-9.9978 3.669756,-12.019 5.469724,-2.5126 11.233988,-0.9846 13.875867,3.6786 0.79457,1.4023 0.973608,2.395 0.821093,4.5519 -0.247763,3.5037 -1.9061,5.9271 -4.927932,7.2009 -2.113369,0.8909 -5.126314,1.4917 -6.069315,1.2105 z m 5.076394,-4.1336 c 2.780373,-1.6191 3.481945,-6.1323 1.313882,-8.4525 -3.278861,-3.5089 -9.718922,-2.53 -11.123259,1.6909 -1.813752,5.4512 4.539063,9.8302 9.809377,6.7616 z"
       id="path4164"
       inkscape:connector-curvature="0" />
  </g>
</svg>
