<?xml version="1.0" encoding="UTF-8" standalone="no"?>
<!-- Created with Inkscape (http://www.inkscape.org/) -->

<svg
   xmlns:dc="http://purl.org/dc/elements/1.1/"
   xmlns:cc="http://creativecommons.org/ns#"
   xmlns:rdf="http://www.w3.org/1999/02/22-rdf-syntax-ns#"
   xmlns:svg="http://www.w3.org/2000/svg"
   xmlns="http://www.w3.org/2000/svg"
   xmlns:sodipodi="http://sodipodi.sourceforge.net/DTD/sodipodi-0.dtd"
   xmlns:inkscape="http://www.inkscape.org/namespaces/inkscape"
   width="256"
   height="256"
   id="svg4166"
   version="1.1"
   inkscape:version="0.48.4 r9939"
   inkscape:export-filename="C:\Users\PtaQ\Documents\GitHub\Balanced-Annihilation\luaui\icons\meteor.png"
   inkscape:export-xdpi="90"
   inkscape:export-ydpi="90"
   sodipodi:docname="roost.svg">
  <defs
     id="defs4168" />
  <sodipodi:namedview
     id="base"
     pagecolor="#ffffff"
     bordercolor="#666666"
     borderopacity="1.0"
     inkscape:pageopacity="0.0"
     inkscape:pageshadow="2"
     inkscape:zoom="1.979899"
     inkscape:cx="8.8293948"
     inkscape:cy="148.60076"
     inkscape:document-units="px"
     inkscape:current-layer="layer1"
     showgrid="false"
     borderlayer="true"
     inkscape:window-width="1920"
     inkscape:window-height="1018"
     inkscape:window-x="-8"
     inkscape:window-y="-8"
     inkscape:window-maximized="1" />
  <metadata
     id="metadata4171">
    <rdf:RDF>
      <cc:Work
         rdf:about="">
        <dc:format>image/svg+xml</dc:format>
        <dc:type
           rdf:resource="http://purl.org/dc/dcmitype/StillImage" />
        <dc:title></dc:title>
      </cc:Work>
    </rdf:RDF>
  </metadata>
  <g
     inkscape:label="Layer 1"
     inkscape:groupmode="layer"
     id="layer1"
     transform="translate(0,-796.36218)">
    <path
       sodipodi:type="star"
       style="fill:#ffffff;fill-opacity:1;stroke:#000000;stroke-width:10.94683361;stroke-linecap:butt;stroke-linejoin:bevel;stroke-miterlimit:4;stroke-opacity:1;stroke-dasharray:none;stroke-dashoffset:0"
       id="path4182"
       sodipodi:sides="8"
       sodipodi:cx="136.07143"
       sodipodi:cy="110.28571"
       sodipodi:r1="64.61998"
       sodipodi:r2="108.9713"
       sodipodi:arg1="0.65311784"
       sodipodi:arg2="1.0458169"
       inkscape:flatsided="false"
       inkscape:rounded="0.75"
       inkscape:randomized="0"
       d="m 187.39217,149.55305 c -25.12447,32.8366 39.07315,34.30691 3.29515,55.02926 -35.778,20.72235 -5.10818,-35.69447 -46.09285,-30.24116 -40.98466,5.45331 3.37024,51.88754 -36.58154,41.24159 C 68.061146,204.93679 129.6407,186.73091 96.804093,161.60645 63.967486,136.48199 62.497182,200.67961 41.774829,164.90161 21.052476,129.1236 77.469296,159.79342 72.015986,118.80876 66.562675,77.824094 20.128445,122.179 30.774396,82.227218 41.420347,42.275432 59.626225,103.85499 84.750687,71.018379 109.87515,38.181773 45.677533,36.711469 81.455535,15.989116 c 35.778005,-20.7223533 5.108181,35.694467 46.092845,30.241156 40.98467,-5.45331 -3.37024,-51.8875405 36.58154,-41.2415894 39.95179,10.6459514 -21.62777,28.8518294 11.20884,53.9762914 32.83661,25.124461 34.30691,-39.073154 55.02926,-3.295153 20.72236,35.778003 -35.69446,5.108182 -30.24115,46.092849 5.45331,40.98466 51.88754,-3.370245 41.24159,36.58154 -10.64595,39.95178 -28.85183,-21.62777 -53.97629,11.20884 z"
       transform="matrix(1.1377719,0,0,1.1377719,-24.8749,798.85283)" />
  </g>
</svg>
