<?xml version="1.0" encoding="UTF-8" standalone="no"?>
<!-- Created with Inkscape (http://www.inkscape.org/) -->

<svg
   xmlns:dc="http://purl.org/dc/elements/1.1/"
   xmlns:cc="http://creativecommons.org/ns#"
   xmlns:rdf="http://www.w3.org/1999/02/22-rdf-syntax-ns#"
   xmlns:svg="http://www.w3.org/2000/svg"
   xmlns="http://www.w3.org/2000/svg"
   xmlns:sodipodi="http://sodipodi.sourceforge.net/DTD/sodipodi-0.dtd"
   xmlns:inkscape="http://www.inkscape.org/namespaces/inkscape"
   id="svg2"
   version="1.1"
   inkscape:version="0.48.4 r9939"
   width="512"
   height="512"
   sodipodi:docname="wind.svg"
   inkscape:export-filename="C:\Users\PtaQ\Documents\GitHub\Balanced-Annihilation\luaui\icons\wind.png"
   inkscape:export-xdpi="90"
   inkscape:export-ydpi="90">
  <metadata
     id="metadata8">
    <rdf:RDF>
      <cc:Work
         rdf:about="">
        <dc:format>image/svg+xml</dc:format>
        <dc:type
           rdf:resource="http://purl.org/dc/dcmitype/StillImage" />
        <dc:title></dc:title>
      </cc:Work>
    </rdf:RDF>
  </metadata>
  <defs
     id="defs6" />
  <sodipodi:namedview
     pagecolor="#ffffff"
     bordercolor="#666666"
     borderopacity="1"
     objecttolerance="10"
     gridtolerance="10"
     guidetolerance="10"
     inkscape:pageopacity="0"
     inkscape:pageshadow="2"
     inkscape:window-width="1920"
     inkscape:window-height="1018"
     id="namedview4"
     showgrid="false"
     inkscape:zoom="0.92187498"
     inkscape:cx="331.93219"
     inkscape:cy="297.47255"
     inkscape:window-x="-8"
     inkscape:window-y="-8"
     inkscape:window-maximized="1"
     inkscape:current-layer="svg2" />
  <path
     sodipodi:type="arc"
     style="fill:none;stroke:#000000;stroke-width:15;stroke-linecap:butt;stroke-linejoin:bevel;stroke-miterlimit:4;stroke-opacity:1;stroke-dasharray:none;stroke-dashoffset:0"
     id="path2991"
     sodipodi:cx="257.72244"
     sodipodi:cy="281.12363"
     sodipodi:rx="35.283432"
     sodipodi:ry="34.516399"
     d="m 293.00587,281.12363 a 35.283432,34.516399 0 1 1 -70.56686,0 35.283432,34.516399 0 1 1 70.56686,0 z"
     transform="matrix(1.6734145,0,0,1.6856784,-165.68633,-183.83989)" />
  <path
     style="fill:none;stroke:#000000;stroke-width:24.92626572;stroke-linecap:butt;stroke-linejoin:miter;stroke-miterlimit:4;stroke-opacity:1;stroke-dasharray:none"
     d="m 301.6562,236.1931 c 0,0 -53.36759,-16.1518 -76.05649,-9.0692 -22.68894,7.08261 -69.0232,-100.21302 -63.06714,-116.20236 5.95607,-15.989329 113.07536,-85.668178 140.7473,-97.520572 27.67196,-11.8524024 1.08878,43.430653 -6.50648,123.182502 -7.2742,76.38064 4.88281,99.60963 4.88281,99.60963 z"
     id="path3761-4-0"
     inkscape:connector-curvature="0"
     sodipodi:nodetypes="cssssc" />
  <path
     style="fill:#ffffff;fill-opacity:1;stroke:none"
     d="m 252.54129,333.4099 c -7.84447,-2.59574 -13.85377,-6.28514 -19.60514,-12.0365 -17.80773,-17.80774 -17.7226,-44.93892 0.19724,-62.85875 20.20597,-20.20598 52.30417,-17.63466 69.75318,5.58777 6.09671,8.11397 8.23375,15.0931 8.21738,26.83631 -0.0121,8.70912 -0.38776,10.5557 -3.48053,17.1106 -4.57035,9.68653 -13.12525,18.23376 -22.7851,22.76468 -6.39043,2.99741 -8.69067,3.48462 -17.65297,3.73908 -6.41684,0.18219 -11.94224,-0.24915 -14.64406,-1.14319 z"
     id="path3853"
     inkscape:connector-curvature="0" />
  <path
     style="fill:none;stroke:#000000;stroke-width:24.92626572;stroke-linecap:butt;stroke-linejoin:miter;stroke-miterlimit:4;stroke-opacity:1;stroke-dasharray:none"
     d="m 207.07231,293.88215 c 0,0 15.36905,53.59826 33.62344,68.82082 18.25444,15.22259 -46.76974,112.33629 -63.43383,116.00259 C 160.59784,482.37184 43.965588,430.15497 19.001427,413.33217 -5.9627529,396.50939 54.901536,388.8661 126.02791,352.00036 c 68.11978,-35.3074 81.0444,-58.11821 81.0444,-58.11821 z"
     id="path3761-4-0-9"
     inkscape:connector-curvature="0"
     sodipodi:nodetypes="cssssc" />
  <path
     style="fill:none;stroke:#000000;stroke-width:24.92626572;stroke-linecap:butt;stroke-linejoin:miter;stroke-miterlimit:4;stroke-opacity:1;stroke-dasharray:none"
     d="m 289.82175,352.45603 c 0,0 40.57895,-38.24042 45.73337,-61.44346 5.15443,-23.20309 121.27479,-9.9638 132.17583,3.16255 10.90103,13.12635 17.99483,140.71695 14.4959,170.61633 -3.49892,29.89941 -38.20676,-20.67971 -103.58884,-66.97473 -62.6183,-44.33808 -88.81626,-45.36069 -88.81626,-45.36069 z"
     id="path3761-4-0-4"
     inkscape:connector-curvature="0"
     sodipodi:nodetypes="cssssc" />
  <path
     style="fill:#ffffff;fill-opacity:1;stroke:none"
     d="m 270.4271,215.63214 c -7.20882,-1.56686 -14.79809,-2.19345 -29.01138,-2.39528 -18.69957,-0.26553 -19.32954,-0.34849 -22.08355,-2.90831 -10.97224,-10.19863 -28.73346,-44.01901 -39.01196,-74.28541 -6.84782,-20.16435 -6.81647,-20.38827 4.14079,-29.57223 18.46346,-15.475383 49.86633,-37.447755 82.71187,-57.872934 14.21892,-8.842118 32.39867,-19.34511 33.48466,-19.34511 1.36574,0 0.58245,5.193411 -5.21983,34.608375 -6.0847,30.846671 -9.31771,51.101899 -11.61692,72.781459 -1.47654,13.92259 -1.91446,65.4484 -0.63843,75.11864 0.96391,7.30501 1.83241,7.04146 -12.75525,3.8708 z"
     id="path3901"
     inkscape:connector-curvature="0" />
  <path
     style="fill:#ffffff;fill-opacity:1;stroke:none"
     d="m 464.5966,452.0912 c -2.38644,-1.93563 -11.90509,-10.15089 -21.15254,-18.25613 -45.86612,-40.20086 -80.16785,-64.40527 -115.43044,-81.45142 l -13.65024,-6.59861 5.79249,-6.67287 c 12.50028,-14.40012 24.91664,-33.51616 26.96472,-41.51448 1.05589,-4.12353 9.36628,-5.29809 37.20482,-5.2584 18.55938,0.0265 28.28295,0.54393 37.9661,2.02045 15.58319,2.37617 33.01594,6.62987 34.89891,8.51554 1.5432,1.54542 5.08259,19.26074 6.81382,34.10452 3.94113,33.79158 7.718,107.0556 5.90673,114.57917 l -0.97539,4.05157 -4.33898,-3.51934 0,0 z"
     id="path3903"
     inkscape:connector-curvature="0" />
  <path
     style="fill:#ffffff;fill-opacity:1;stroke:none"
     d="M 158.15591,461.61026 C 130.76142,452.97996 89.276363,435.35222 51.421827,416.25704 36.921141,408.94237 32.439661,406.22433 33.708886,405.51403 c 0.93451,-0.52298 11.622476,-4.8727 23.751035,-9.66604 63.237169,-24.99206 99.978859,-43.8471 131.683429,-67.5771 5.9264,-4.43575 11.05241,-7.90137 11.39113,-7.70137 0.33872,0.19999 4.60108,8.322 9.47192,18.04891 4.87084,9.72691 11.62544,21.34631 15.01023,25.82088 l 6.15416,8.1356 -1.7989,7.05084 c -6.22947,24.41679 -47.18131,85.85409 -57.08033,85.63383 -1.51019,-0.0336 -7.87124,-1.6758 -14.13565,-3.64932 l 0,0 z"
     id="path3905"
     inkscape:connector-curvature="0" />
  <path
     style="fill:#ffffff;fill-opacity:1;stroke:none"
     d="m 254.42268,334.04214 c -6.4603,-1.63147 -14.01193,-5.88695 -19.99892,-11.26977 -5.05315,-4.54321 -5.9272,-6.07905 -10.08538,-17.72148 -4.03443,-11.29594 -4.49744,-13.56151 -4.06691,-19.90011 1.48929,-21.92685 21.96628,-40.0335 45.27428,-40.0335 17.83733,0 34.49395,10.63327 42.10977,26.8821 2.60175,5.551 2.90718,7.45802 2.90718,18.15198 0,11.2756 -0.19777,12.35138 -3.50767,19.08009 -4.42213,8.98978 -13.05592,17.30829 -22.59958,21.77431 -5.89953,2.76072 -8.78031,3.40532 -16.55163,3.70361 -5.17491,0.19863 -11.24142,-0.10163 -13.48114,-0.66723 l 0,0 z"
     id="path3907"
     inkscape:connector-curvature="0" />
</svg>
