<?xml version="1.0" encoding="UTF-8" standalone="no"?>
<!-- Generator: Adobe Illustrator 16.0.0, SVG Export Plug-In . SVG Version: 6.00 Build 0)  -->

<svg
   xmlns:dc="http://purl.org/dc/elements/1.1/"
   xmlns:cc="http://creativecommons.org/ns#"
   xmlns:rdf="http://www.w3.org/1999/02/22-rdf-syntax-ns#"
   xmlns:svg="http://www.w3.org/2000/svg"
   xmlns="http://www.w3.org/2000/svg"
   xmlns:sodipodi="http://sodipodi.sourceforge.net/DTD/sodipodi-0.dtd"
   xmlns:inkscape="http://www.inkscape.org/namespaces/inkscape"
   version="1.1"
   x="0px"
   y="0px"
   width="512px"
   height="512px"
   viewBox="0 0 512 512"
   enable-background="new 0 0 512 512"
   xml:space="preserve"
   id="svg2"
   inkscape:version="0.48.4 r9939"
   sodipodi:docname="wrench.svg"
   inkscape:export-filename="C:\Users\PtaQ\Documents\GitHub\Balanced-Annihilation\luaui\icons\wrench.png"
   inkscape:export-xdpi="90"
   inkscape:export-ydpi="90"><metadata
   id="metadata12"><rdf:RDF><cc:Work
       rdf:about=""><dc:format>image/svg+xml</dc:format><dc:type
         rdf:resource="http://purl.org/dc/dcmitype/StillImage" /><dc:title /></cc:Work></rdf:RDF></metadata><defs
   id="defs10" /><sodipodi:namedview
   pagecolor="#ffffff"
   bordercolor="#666666"
   borderopacity="1"
   objecttolerance="10"
   gridtolerance="10"
   guidetolerance="10"
   inkscape:pageopacity="0"
   inkscape:pageshadow="2"
   inkscape:window-width="1920"
   inkscape:window-height="1018"
   id="namedview8"
   showgrid="false"
   inkscape:zoom="0.040741504"
   inkscape:cx="6423.3416"
   inkscape:cy="2117.8367"
   inkscape:window-x="-8"
   inkscape:window-y="-8"
   inkscape:window-maximized="1"
   inkscape:current-layer="Layer_1" />
<g
   id="Layer_1"
   transform="matrix(-1.1487054,0,0,1.1487054,550.06796,-38.216238)">
	
<path
   style="fill:#ffffff;fill-opacity:1;stroke:#000000;stroke-width:27.69685172999999900;stroke-miterlimit:4;stroke-opacity:1;stroke-dasharray:none;stroke-linejoin:bevel"
   d="m 168.23023,460.13474 c 20.85236,-2.14573 35.47251,-8.65849 48.84547,-21.75891 20.55222,-20.13343 27.23598,-51.29787 17.89047,-83.41813 l -1.7341,-5.96011 58.57494,-58.24302 c 58.04462,-57.7156 58.60735,-58.23562 62.14983,-57.43753 25.22733,5.68387 34.80034,6.17523 50.45398,2.5897 30.20982,-6.91966 51.94406,-29.76219 57.33756,-60.26129 2.31606,-13.09693 0.58744,-33.41092 -3.82078,-44.89975 -0.57733,-1.5047 -5.50728,2.79351 -23.80739,20.75679 -12.69357,12.46001 -24.6983,23.5291 -26.67709,24.59808 -7.25579,3.91969 -17.35473,4.50432 -26.30648,1.52289 -8.12552,-2.70626 -13.06559,-6.50698 -27.90882,-21.47223 -12.15074,-12.25058 -14.79164,-15.4178 -17.08233,-20.48644 -3.62067,-8.01158 -4.54216,-17.93926 -2.36453,-25.47474 1.47554,-5.10593 3.77881,-7.76528 25.94456,-29.955646 13.37895,-13.393734 24.11112,-24.539134 23.84936,-24.767518 -1.5978,-1.393992 -14.96174,-4.110228 -24.23277,-4.925309 -25.50269,-2.242134 -46.79793,4.850367 -63.2631,21.070166 -11.42069,11.250437 -18.53568,24.688475 -21.38574,40.390937 -2.01195,11.08482 -0.98652,29.11811 2.29544,40.36742 l 2.496,8.55535 -59.01424,58.6168 -59.01422,58.61683 -7.4865,-2.20026 c -8.64384,-2.54042 -25.50499,-4.30457 -34.05432,-3.56305 -32.682183,2.83459 -59.387515,24.74026 -67.546303,55.40648 -4.048529,15.21707 -2.835952,39.53982 2.634444,52.84228 0.388225,0.94411 9.361049,-7.16066 25.108492,-22.67951 22.482457,-22.15607 24.978027,-24.2837 30.245057,-25.7859 5.88351,-1.67802 15.30391,-1.504 21.15207,0.39073 7.55287,2.44703 14.00346,7.27253 27.11379,20.28318 17.03124,16.90233 19.72149,21.35614 20.94517,34.68178 1.35442,14.74898 0.58497,15.99329 -27.02437,43.70359 l -23.41311,23.49871 4.95024,1.65729 c 7.55414,2.52905 26.13877,4.56461 34.14931,3.74034 z"
   id="path3757"
   inkscape:connector-curvature="0"
   sodipodi:nodetypes="csscssssssssssssssssscccssscsssssscsc"
   inkscape:export-filename="C:\Users\PtaQ\Documents\GitHub\Balanced-Annihilation\luaui\icons\path3757.png"
   inkscape:export-xdpi="90"
   inkscape:export-ydpi="90" /></g>
<g
   id="Layer_2">
</g>
</svg>