# 96 vertices, 48 polygons
v -14.808994 -0.001232 1.091350
v -5.518643 -0.001232 -17.956726
v -8.639258 9.039189 -19.478748
v -17.929611 9.039185 -0.430671
v -5.672936 -0.001237 -18.031982
v -14.963295 -0.001237 1.016096
v -11.842677 9.039185 2.538124
v -2.552322 9.039185 -16.509960
v -17.785383 -0.001237 -3.406332
v 3.355907 -0.001232 -4.884685
v 3.113708 9.039189 -8.348228
v -18.027584 9.039185 -6.869874
v 3.343934 -0.001237 -5.055941
v -17.797363 -0.001237 -3.577588
v -17.555172 9.039185 -0.114041
v 3.586134 9.039185 -1.592396
v -11.129748 -0.001232 -17.953922
v 0.721196 -0.001232 -0.384203
v 3.599614 9.039189 -2.325725
v -8.251329 9.039185 -19.895447
v 0.863521 -0.001237 -0.480199
v -10.987424 -0.001237 -18.049925
v -13.865847 9.039185 -16.108404
v -2.014898 9.039185 1.461322
v 3.650192 -0.001232 12.736781
v -17.220758 -0.001232 9.056673
v -17.823664 9.039189 12.475928
v 3.047289 9.039185 16.156038
v -17.250570 -0.001237 9.225734
v 3.620384 -0.001237 12.905848
v 4.223294 9.039185 9.486590
v -16.647667 9.039185 5.806481
v 0.147145 -0.001237 16.837601
v -7.101259 -0.001232 -3.077229
v -10.363873 9.039189 -1.889732
v -3.115467 9.039185 18.025097
v -7.262581 -0.001237 -3.018516
v -0.014176 -0.001237 16.896318
v 3.248443 9.039185 15.708825
v -3.999967 9.039185 -4.206014
v -15.671435 -0.001232 14.449643
v -2.048894 -0.001232 -1.785081
v -4.708603 9.039189 -4.016839
v -18.331148 9.039185 12.217883
v -2.180401 -0.001237 -1.895432
v -15.802950 -0.001237 14.339294
v -13.143241 9.039185 16.571056
v 0.479306 9.039185 0.336327
v 14.986640 -0.001232 -17.503845
v 5.037167 -0.001232 1.208388
v 8.102762 9.039189 2.838393
v 18.052237 9.039185 -15.873841
v 5.188740 -0.001237 1.288983
v 15.138220 -0.001237 -17.423252
v 12.072624 9.039185 -19.053263
v 2.123147 9.039185 -0.341021
v 17.804247 -0.001237 -12.905027
v -3.375758 -0.001232 -12.165412
v -3.254586 9.039189 -8.695525
v 17.925421 9.039185 -9.435142
v -3.369770 -0.001237 -11.993841
v 17.810242 -0.001237 -12.733458
v 17.689074 9.039185 -16.203346
v -3.490943 9.039185 -15.463729
v 10.644952 -0.001232 1.401415
v -0.585585 -0.001232 -16.571199
v -3.530007 9.039189 -14.731318
v 7.700526 9.039185 3.241299
v -0.731173 -0.001237 -16.480230
v 10.499364 -0.001237 1.492392
v 13.443790 9.039185 -0.347488
v 2.213251 9.039185 -18.320108
v 14.413387 -0.001232 16.015388
v -0.308437 -0.001232 0.770467
v -2.805987 9.039189 3.182320
v 11.915837 9.039185 18.427246
v -0.431926 -0.001237 0.889716
v 14.289897 -0.001237 16.134645
v 16.787453 9.039185 13.722793
v 2.065622 9.039185 -1.522136
v 9.168962 -0.001237 17.273975
v 15.010544 -0.001232 -3.097958
v 11.673041 9.039189 -4.054972
v 5.831460 9.039185 16.316961
v 14.845521 -0.001237 -3.145280
v 9.003937 -0.001237 17.226658
v 12.341440 9.039185 18.183680
v 18.183023 9.039185 -2.188266
v -2.224922 -0.001232 6.044137
v 18.338482 -0.001232 0.917122
v 17.498531 9.039189 -2.451747
v -3.064875 9.039185 2.675266
v 18.296953 -0.001237 0.750548
v -2.266457 -0.001237 5.877561
v -1.426508 9.039185 9.246433
v 19.136904 9.039185 4.119417
vn 0.839044 0.358522 0.409228
vn 0.839044 0.358522 0.409228
vn 0.839044 0.358522 0.409228
vn 0.839044 0.358522 0.409228
vn -0.839043 0.358522 -0.409228
vn -0.839043 0.358522 -0.409228
vn -0.839043 0.358522 -0.409228
vn -0.839044 0.358522 -0.409228
vn 0.065120 0.358522 0.931247
vn 0.065120 0.358522 0.931247
vn 0.065120 0.358522 0.931247
vn 0.065120 0.358522 0.931247
vn -0.065120 0.358522 -0.931247
vn -0.065120 0.358522 -0.931247
vn -0.065120 0.358522 -0.931247
vn -0.065120 0.358522 -0.931247
vn -0.773924 0.358522 0.522019
vn -0.773924 0.358522 0.522019
vn -0.773924 0.358522 0.522019
vn -0.773924 0.358522 0.522019
vn 0.773924 0.358522 -0.522019
vn 0.773924 0.358522 -0.522019
vn 0.773924 0.358522 -0.522019
vn 0.773924 0.358522 -0.522019
vn 0.162104 0.358522 -0.919339
vn 0.162104 0.358522 -0.919339
vn 0.162104 0.358522 -0.919339
vn 0.162104 0.358522 -0.919339
vn -0.162104 0.358522 0.919339
vn -0.162104 0.358522 0.919339
vn -0.162104 0.358522 0.919339
vn -0.162104 0.358522 0.919339
vn 0.877223 0.358522 -0.319283
vn 0.877223 0.358522 -0.319283
vn 0.877223 0.358522 -0.319283
vn 0.877223 0.358522 -0.319283
vn -0.877223 0.358522 0.319283
vn -0.877223 0.358522 0.319283
vn -0.877223 0.358522 0.319283
vn -0.877223 0.358522 0.319283
vn 0.715119 0.358522 0.600056
vn 0.715119 0.358522 0.600056
vn 0.715119 0.358522 0.600056
vn 0.715119 0.358522 0.600056
vn -0.715119 0.358522 -0.600056
vn -0.715119 0.358522 -0.600056
vn -0.715119 0.358522 -0.600056
vn -0.715119 0.358522 -0.600056
vn -0.824251 0.358522 -0.438262
vn -0.824251 0.358522 -0.438262
vn -0.824251 0.358522 -0.438262
vn -0.824250 0.358522 -0.438262
vn 0.824250 0.358522 0.438262
vn 0.824250 0.358522 0.438262
vn 0.824250 0.358522 0.438262
vn 0.824251 0.358522 0.438262
vn -0.032579 0.358522 -0.932953
vn -0.032579 0.358522 -0.932953
vn -0.032579 0.358522 -0.932953
vn -0.032579 0.358522 -0.932953
vn 0.032579 0.358522 0.932953
vn 0.032579 0.358522 0.932953
vn 0.032579 0.358522 0.932953
vn 0.032579 0.358522 0.932953
vn 0.791671 0.358522 -0.494691
vn 0.791671 0.358522 -0.494691
vn 0.791671 0.358522 -0.494691
vn 0.791671 0.358522 -0.494691
vn -0.791671 0.358522 0.494691
vn -0.791671 0.358522 0.494691
vn -0.791671 0.358522 0.494691
vn -0.791671 0.358522 0.494691
vn 0.671520 0.358522 -0.648478
vn 0.671520 0.358522 -0.648478
vn 0.671520 0.358522 -0.648478
vn 0.671520 0.358522 -0.648478
vn -0.671520 0.358522 0.648478
vn -0.671520 0.358522 0.648478
vn -0.671520 0.358522 0.648478
vn -0.671520 0.358522 0.648478
vn 0.897358 0.358522 0.257314
vn 0.897358 0.358522 0.257314
vn 0.897358 0.358522 0.257314
vn 0.897358 0.358522 0.257314
vn -0.897358 0.358522 -0.257314
vn -0.897358 0.358522 -0.257314
vn -0.897358 0.358522 -0.257314
vn -0.897358 0.358522 -0.257314
vn 0.225839 0.358522 0.905792
vn 0.225839 0.358522 0.905792
vn 0.225839 0.358522 0.905792
vn 0.225838 0.358522 0.905792
vn -0.225838 0.358522 -0.905792
vn -0.225838 0.358522 -0.905792
vn -0.225838 0.358522 -0.905792
vn -0.225839 0.358522 -0.905792
vt 0.998418 0.002802 0.0
vt 0.001887 0.002802 0.0
vt 0.001887 0.997638 0.0
vt 0.998418 0.997638 0.0
vt 0.998418 0.002802 0.0
vt 0.001887 0.002802 0.0
vt 0.001887 0.997638 0.0
vt 0.998418 0.997638 0.0
vt 0.998418 0.002802 0.0
vt 0.001887 0.002802 0.0
vt 0.001887 0.997638 0.0
vt 0.998418 0.997638 0.0
vt 0.998418 0.002802 0.0
vt 0.001887 0.002802 0.0
vt 0.001887 0.997638 0.0
vt 0.998418 0.997638 0.0
vt 0.998418 0.002802 0.0
vt 0.001887 0.002802 0.0
vt 0.001887 0.997638 0.0
vt 0.998418 0.997638 0.0
vt 0.998418 0.002802 0.0
vt 0.001887 0.002802 0.0
vt 0.001887 0.997638 0.0
vt 0.998418 0.997638 0.0
vt 0.998418 0.002802 0.0
vt 0.001887 0.002802 0.0
vt 0.001887 0.997638 0.0
vt 0.998418 0.997638 0.0
vt 0.998418 0.002802 0.0
vt 0.001887 0.002802 0.0
vt 0.001887 0.997638 0.0
vt 0.998418 0.997638 0.0
vt 0.998418 0.002802 0.0
vt 0.001887 0.002802 0.0
vt 0.001887 0.997638 0.0
vt 0.998418 0.997638 0.0
vt 0.998418 0.002802 0.0
vt 0.001887 0.002802 0.0
vt 0.001887 0.997638 0.0
vt 0.998418 0.997638 0.0
vt 0.998418 0.002802 0.0
vt 0.001887 0.002802 0.0
vt 0.001887 0.997638 0.0
vt 0.998418 0.997638 0.0
vt 0.998418 0.002802 0.0
vt 0.001887 0.002802 0.0
vt 0.001887 0.997638 0.0
vt 0.998418 0.997638 0.0
vt 0.998418 0.002802 0.0
vt 0.001887 0.002802 0.0
vt 0.001887 0.997638 0.0
vt 0.998418 0.997638 0.0
vt 0.998418 0.002802 0.0
vt 0.001887 0.002802 0.0
vt 0.001887 0.997638 0.0
vt 0.998418 0.997638 0.0
vt 0.998418 0.002802 0.0
vt 0.001887 0.002802 0.0
vt 0.001887 0.997638 0.0
vt 0.998418 0.997638 0.0
vt 0.998418 0.002802 0.0
vt 0.001887 0.002802 0.0
vt 0.001887 0.997638 0.0
vt 0.998418 0.997638 0.0
vt 0.998418 0.002802 0.0
vt 0.001887 0.002802 0.0
vt 0.001887 0.997638 0.0
vt 0.998418 0.997638 0.0
vt 0.998418 0.002802 0.0
vt 0.001887 0.002802 0.0
vt 0.001887 0.997638 0.0
vt 0.998418 0.997638 0.0
vt 0.998418 0.002802 0.0
vt 0.001887 0.002802 0.0
vt 0.001887 0.997638 0.0
vt 0.998418 0.997638 0.0
vt 0.998418 0.002802 0.0
vt 0.001887 0.002802 0.0
vt 0.001887 0.997638 0.0
vt 0.998418 0.997638 0.0
vt 0.998418 0.002802 0.0
vt 0.001887 0.002802 0.0
vt 0.001887 0.997638 0.0
vt 0.998418 0.997638 0.0
vt 0.998418 0.002802 0.0
vt 0.001887 0.002802 0.0
vt 0.001887 0.997638 0.0
vt 0.998418 0.997638 0.0
vt 0.998418 0.002802 0.0
vt 0.001887 0.002802 0.0
vt 0.001887 0.997638 0.0
vt 0.998418 0.997638 0.0
vt 0.998418 0.002802 0.0
vt 0.001887 0.002802 0.0
vt 0.001887 0.997638 0.0
vt 0.998418 0.997638 0.0
f 1/1/1  2/2/2  3/3/3 
f 3/3/3  4/4/4  1/1/1 
f 5/5/5  6/6/6  7/7/7 
f 7/7/7  8/8/8  5/5/5 
f 9/9/9  10/10/10  11/11/11 
f 11/11/11  12/12/12  9/9/9 
f 13/13/13  14/14/14  15/15/15 
f 15/15/15  16/16/16  13/13/13 
f 17/17/17  18/18/18  19/19/19 
f 19/19/19  20/20/20  17/17/17 
f 21/21/21  22/22/22  23/23/23 
f 23/23/23  24/24/24  21/21/21 
f 25/25/25  26/26/26  27/27/27 
f 27/27/27  28/28/28  25/25/25 
f 29/29/29  30/30/30  31/31/31 
f 31/31/31  32/32/32  29/29/29 
f 33/33/33  34/34/34  35/35/35 
f 35/35/35  36/36/36  33/33/33 
f 37/37/37  38/38/38  39/39/39 
f 39/39/39  40/40/40  37/37/37 
f 41/41/41  42/42/42  43/43/43 
f 43/43/43  44/44/44  41/41/41 
f 45/45/45  46/46/46  47/47/47 
f 47/47/47  48/48/48  45/45/45 
f 49/49/49  50/50/50  51/51/51 
f 51/51/51  52/52/52  49/49/49 
f 53/53/53  54/54/54  55/55/55 
f 55/55/55  56/56/56  53/53/53 
f 57/57/57  58/58/58  59/59/59 
f 59/59/59  60/60/60  57/57/57 
f 61/61/61  62/62/62  63/63/63 
f 63/63/63  64/64/64  61/61/61 
f 65/65/65  66/66/66  67/67/67 
f 67/67/67  68/68/68  65/65/65 
f 69/69/69  70/70/70  71/71/71 
f 71/71/71  72/72/72  69/69/69 
f 73/73/73  74/74/74  75/75/75 
f 75/75/75  76/76/76  73/73/73 
f 77/77/77  78/78/78  79/79/79 
f 79/79/79  80/80/80  77/77/77 
f 81/81/81  82/82/82  83/83/83 
f 83/83/83  84/84/84  81/81/81 
f 85/85/85  86/86/86  87/87/87 
f 87/87/87  88/88/88  85/85/85 
f 89/89/89  90/90/90  91/91/91 
f 91/91/91  92/92/92  89/89/89 
f 93/93/93  94/94/94  95/95/95 
f 95/95/95  96/96/96  93/93/93 
