# Exported from Wings 3D 2.1.5
mtllib grassx4_2.mtl
o unnamed_object1
#96 vertices, 48 faces
v 5.67594184 -1.2320000e-3 14.12138429
v -14.91051445 -1.2320000e-3 9.08773366
v -15.73516824 9.03918900 12.46037878
v 4.85128945 9.03918500 17.49403114
v -5.67293600 -1.2370000e-3 -18.03198200
v -14.96329500 -1.2370000e-3 1.01609600
v -11.84267700 9.03918500 2.53812400
v -2.55232200 9.03918500 -16.50996000
v -17.78538300 -1.2370000e-3 -3.40633200
v 3.35590700 -1.2320000e-3 -4.88468500
v 3.11370800 9.03918900 -8.34822800
v -18.02758400 9.03918500 -6.86987400
v -4.18589650 -1.2370000e-3 -2.31218277
v 1.74805822 -1.2370000e-3 18.03304143
v 5.08118695 9.03918500 17.06089576
v -0.85277164 9.03918500 -3.28433681
v -14.37518809 -1.2320000e-3 4.47105194
v 6.66952425 -1.2320000e-3 1.96905628
v 6.25962515 9.03918900 -1.47866480
v -14.78508939 9.03918500 1.02332860
v 0.86352100 -1.2370000e-3 -0.48019900
v -10.98742400 -1.2370000e-3 -18.04992500
v -13.86584700 9.03918500 -16.10840400
v -2.01489800 9.03918500 1.46132200
v 14.08712947 -1.2320000e-3 -6.54024995
v 13.02230932 -1.2320000e-3 14.62590007
v 16.48992644 9.03918900 14.80034757
v 17.55474820 9.03918500 -6.36580568
v -17.25057000 -1.2370000e-3 9.22573400
v 3.62038400 -1.2370000e-3 12.90584800
v 4.22329400 9.03918500 9.48659000
v -16.64766700 9.03918500 5.80648100
v 0.14714500 -1.2370000e-3 16.83760100
v -7.10125900 -1.2320000e-3 -3.07722900
v -10.36387300 9.03918900 -1.88973200
v -3.11546700 9.03918500 18.02509700
v 5.7337770e-2 -1.2370000e-3 7.61979709
v 17.97880930 -1.2370000e-3 -3.69218092
v 16.12558683 9.03918500 -6.62823080
v -1.79588852 9.03918500 4.68375317
v 18.15255823 -1.2320000e-3 10.31983838
v -3.02114825 -1.2320000e-3 9.41759631
v -3.16896017 9.03918900 12.88645021
v 18.00474716 9.03918500 13.78869667
v -2.18040100 -1.2370000e-3 -1.89543200
v -15.80295000 -1.2370000e-3 14.33929400
v -13.14324100 9.03918500 16.57105600
v 0.47930600 9.03918500 0.33632700
v -17.32477491 -1.2320000e-3 -4.26015698
v 2.32218268 -1.2320000e-3 -12.20601969
v 1.02042406 9.03918900 -15.42474824
v -18.62653571 9.03918500 -7.47888605
v 5.18874000 -1.2370000e-3 1.28898300
v 15.13822000 -1.2370000e-3 -17.42325200
v 12.07262400 9.03918500 -19.05326300
v 2.12314700 9.03918500 -0.34102100
v 17.80424700 -1.2370000e-3 -12.90502700
v -3.37575800 -1.2320000e-3 -12.16541200
v -3.25458600 9.03918900 -8.69552500
v 17.92542100 9.03918500 -9.43514200
v -9.53992802 -1.2370000e-3 5.72165967
v -14.76021537 -1.2370000e-3 -14.81826588
v -18.12523951 9.03918500 -13.96303666
v -12.90495109 9.03918500 6.57689377
v 0.57383519 -1.2320000e-3 -10.81790229
v -14.60411182 -1.2320000e-3 3.97296448
v -12.18094824 9.03918900 6.45954070
v 2.99700255 9.03918500 -8.33132280
v -0.73117300 -1.2370000e-3 -16.48023000
v 10.49936400 -1.2370000e-3 1.49239200
v 13.44379000 9.03918500 -0.34748800
v 2.21325100 9.03918500 -18.32010800
v 14.05430230 -1.2320000e-3 -17.60364586
v 2.28320929 -1.2320000e-3 1.9665061e-2
v 5.17040804 9.03918900 1.94810337
v 16.94150592 9.03918500 -15.67520861
v -0.43192600 -1.2370000e-3 0.88971600
v 14.28989700 -1.2370000e-3 16.13464500
v 16.78745300 9.03918500 13.72279300
v 2.06562200 9.03918500 -1.52213600
v 9.16896200 -1.2370000e-3 17.27397500
v 15.01054400 -1.2320000e-3 -3.09795800
v 11.67304100 9.03918900 -4.05497200
v 5.83146000 9.03918500 16.31696100
v -4.80808130 -1.2370000e-3 -15.27862565
v 16.00945176 -1.2370000e-3 -11.30744459
v 16.66004853 9.03918500 -14.71794913
v -4.15749240 9.03918500 -18.68912847
v 7.84357048 -1.2320000e-3 0.77258834
v -1.53312052 -1.2320000e-3 -18.23313534
v -4.64679718 9.03918900 -16.69696686
v 4.72989229 9.03918500 2.30875921
v 18.29695300 -1.2370000e-3 0.75054800
v -2.26645700 -1.2370000e-3 5.87756100
v -1.42650800 9.03918500 9.24643300
v 19.13690400 9.03918500 4.11941700
vt 1.8870000e-3 2.8020000e-3
vt 1.8870000e-3 0.99763800
vt 0.99841800 2.8020000e-3
vt 0.99841800 0.99763800
vn 0.22172602 0.35852181 -0.90680741
vn 0.22172597 0.35852168 -0.90680747
vn 0.22172602 0.35852181 -0.90680741
vn 0.22172607 0.35852194 -0.90680735
vn -0.83904364 0.35852185 -0.40922836
vn -0.83904348 0.35852213 -0.40922844
vn -0.83904364 0.35852185 -0.40922836
vn -0.83904380 0.35852157 -0.40922828
vn 6.5119543e-2 0.35852165 0.93124737
vn 6.5119514e-2 0.35852170 0.93124736
vn 6.5119543e-2 0.35852165 0.93124737
vn 6.5119572e-2 0.35852159 0.93124739
vn -0.89618127 0.35852192 0.26138319
vn -0.89618125 0.35852198 0.26138316
vn -0.89618127 0.35852192 0.26138319
vn -0.89618128 0.35852186 0.26138323
vn 0.11020965 0.35852198 0.92699289
vn 0.11020974 0.35852180 0.92699295
vn 0.11020965 0.35852198 0.92699289
vn 0.11020955 0.35852216 0.92699283
vn 0.77392388 0.35852194 -0.52201901
vn 0.77392388 0.35852209 -0.52201891
vn 0.77392388 0.35852194 -0.52201901
vn 0.77392389 0.35852179 -0.52201910
vn -0.93234222 0.35852197 -4.6904051e-2
vn -0.93234227 0.35852183 -4.6903987e-2
vn -0.93234222 0.35852197 -4.6904051e-2
vn -0.93234216 0.35852210 -4.6904114e-2
vn -0.16210422 0.35852185 0.91933906
vn -0.16210433 0.35852213 0.91933893
vn -0.16210422 0.35852185 0.91933906
vn -0.16210410 0.35852157 0.91933919
vn 0.87722319 0.35852170 -0.31928304
vn 0.87722317 0.35852182 -0.31928297
vn 0.87722319 0.35852170 -0.31928304
vn 0.87722321 0.35852158 -0.31928311
vn 0.49827830 0.35852195 0.78941798
vn 0.49827821 0.35852208 0.78941798
vn 0.49827830 0.35852195 0.78941798
vn 0.49827838 0.35852181 0.78941799
vn 3.9742748e-2 0.35852204 -0.93267490
vn 3.9742623e-2 0.35852177 -0.93267500
vn 3.9742748e-2 0.35852204 -0.93267490
vn 3.9742873e-2 0.35852230 -0.93267479
vn -0.71511897 0.35852181 -0.60005581
vn -0.71511887 0.35852197 -0.60005583
vn -0.71511897 0.35852181 -0.60005581
vn -0.71511906 0.35852166 -0.60005579
vn 0.35000523 0.35852181 0.86542386
vn 0.35000530 0.35852168 0.86542388
vn 0.35000523 0.35852181 0.86542386
vn 0.35000515 0.35852194 0.86542383
vn 0.82425037 0.35852172 0.43826191
vn 0.82425022 0.35852198 0.43826198
vn 0.82425037 0.35852172 0.43826191
vn 0.82425053 0.35852145 0.43826184
vn -3.2579082e-2 0.35852170 -0.93295273
vn -3.2579030e-2 0.35852181 -0.93295269
vn -3.2579082e-2 0.35852170 -0.93295273
vn -3.2579134e-2 0.35852160 -0.93295277
vn 0.90475767 0.35852186 -0.22994703
vn 0.90475767 0.35852185 -0.22994704
vn 0.90475767 0.35852186 -0.22994703
vn 0.90475767 0.35852187 -0.22994703
vn -0.65151890 0.35852190 -0.66856950
vn -0.65151908 0.35852161 -0.66856948
vn -0.65151890 0.35852190 -0.66856950
vn -0.65151872 0.35852219 -0.66856952
vn -0.79167108 0.35852171 0.49469090
vn -0.79167107 0.35852183 0.49469083
vn -0.79167108 0.35852171 0.49469090
vn -0.79167109 0.35852158 0.49469098
vn -0.77628460 0.35852193 -0.51850192
vn -0.77628473 0.35852171 -0.51850188
vn -0.77628460 0.35852193 -0.51850192
vn -0.77628447 0.35852216 -0.51850196
vn -0.67151974 0.35852174 0.64847776
vn -0.67151975 0.35852200 0.64847760
vn -0.67151974 0.35852174 0.64847776
vn -0.67151972 0.35852148 0.64847792
vn 0.89735802 0.35852179 0.25731440
vn 0.89735799 0.35852185 0.25731442
vn 0.89735802 0.35852179 0.25731440
vn 0.89735806 0.35852173 0.25731437
vn -0.17492542 0.35852188 0.91698591
vn -0.17492547 0.35852202 0.91698585
vn -0.17492542 0.35852188 0.91698591
vn -0.17492536 0.35852173 0.91698598
vn 0.83717810 0.35852195 -0.41303129
vn 0.83717812 0.35852178 -0.41303139
vn 0.83717810 0.35852195 -0.41303129
vn 0.83717807 0.35852213 -0.41303118
vn -0.22583843 0.35852185 -0.90579197
vn -0.22583837 0.35852196 -0.90579194
vn -0.22583843 0.35852185 -0.90579197
vn -0.22583850 0.35852174 -0.90579199
g unnamed_object1_default
usemtl default
s 1
f 2/1/2 3/2/3 1/3/1
f 3/2/3 4/4/4 1/3/1
f 6/1/6 7/2/7 5/3/5
f 7/2/7 8/4/8 5/3/5
f 10/1/10 11/2/11 9/3/9
f 11/2/11 12/4/12 9/3/9
f 14/1/14 15/2/15 13/3/13
f 15/2/15 16/4/16 13/3/13
f 18/1/18 19/2/19 17/3/17
f 19/2/19 20/4/20 17/3/17
f 22/1/22 23/2/23 21/3/21
f 23/2/23 24/4/24 21/3/21
f 26/1/26 27/2/27 25/3/25
f 27/2/27 28/4/28 25/3/25
f 30/1/30 31/2/31 29/3/29
f 31/2/31 32/4/32 29/3/29
f 34/1/34 35/2/35 33/3/33
f 35/2/35 36/4/36 33/3/33
f 38/1/38 39/2/39 37/3/37
f 39/2/39 40/4/40 37/3/37
f 42/1/42 43/2/43 41/3/41
f 43/2/43 44/4/44 41/3/41
f 46/1/46 47/2/47 45/3/45
f 47/2/47 48/4/48 45/3/45
f 50/1/50 51/2/51 49/3/49
f 51/2/51 52/4/52 49/3/49
f 54/1/54 55/2/55 53/3/53
f 55/2/55 56/4/56 53/3/53
f 58/1/58 59/2/59 57/3/57
f 59/2/59 60/4/60 57/3/57
f 62/1/62 63/2/63 61/3/61
f 63/2/63 64/4/64 61/3/61
f 66/1/66 67/2/67 65/3/65
f 67/2/67 68/4/68 65/3/65
f 70/1/70 71/2/71 69/3/69
f 71/2/71 72/4/72 69/3/69
f 74/1/74 75/2/75 73/3/73
f 75/2/75 76/4/76 73/3/73
f 78/1/78 79/2/79 77/3/77
f 79/2/79 80/4/80 77/3/77
f 82/1/82 83/2/83 81/3/81
f 83/2/83 84/4/84 81/3/81
f 86/1/86 87/2/87 85/3/85
f 87/2/87 88/4/88 85/3/85
f 90/1/90 91/2/91 89/3/89
f 91/2/91 92/4/92 89/3/89
f 94/1/94 95/2/95 93/3/93
f 95/2/95 96/4/96 93/3/93
