# Blender 3.6.4
# www.blender.org
mtllib legadvsolbase.mtl
o base,ox=-0.00,oy=0.00,oz=0.00,p=,mx=-0.00,my=20.00,mz=0.00,r=35
v -8.221471 16.900002 -0.000019
v -30.830490 8.900005 -0.000055
v -4.110747 16.900002 7.119990
v -15.415278 8.900012 26.699961
v -15.415222 8.899998 -26.700020
v -30.830482 -0.000000 -0.000001
v -15.415222 -0.000002 -26.699999
v 29.543438 6.449997 7.569275
v 21.326897 6.449999 21.800709
v 21.326897 0.000003 21.800709
v 29.543438 0.000001 7.569279
v 18.243839 0.000002 21.800718
v 18.243841 8.230001 21.800722
v 15.415264 8.899998 -26.699997
v 30.830505 8.900005 0.000007
v 15.415262 -0.000002 -26.699997
v 30.830523 -0.000000 -0.000002
v 28.001911 -0.000002 4.899283
v 28.001911 8.229998 4.899282
v 15.415259 8.900002 26.699999
v -15.415220 0.000002 26.699999
v 15.415260 0.000002 26.699997
v -21.326889 6.449999 21.800743
v -29.543415 6.449997 7.569304
v -29.543413 0.000001 7.569303
v -21.326889 0.000003 21.800743
v -28.001898 -0.000002 4.899293
v -28.001898 8.229998 4.899292
v -18.243841 0.000002 21.800735
v -18.243843 8.230001 21.800737
v 8.216557 4.450002 29.369999
v -8.216496 4.450002 29.369999
v -8.216496 0.000002 29.369999
v 8.216557 0.000002 29.369999
v -9.758034 0.000002 26.699993
v -9.758035 6.230002 26.700001
v 9.758072 0.000002 26.699997
v 9.758071 6.230002 26.700001
v 21.326904 4.449997 -21.800737
v 29.543415 4.449996 -7.569286
v 29.543413 -0.000003 -7.569288
v 21.326897 -0.000005 -21.800732
v 28.001896 -0.000001 -4.899279
v 28.001896 6.230000 -4.899282
v 18.243855 -0.000005 -21.800728
v 18.243856 6.229998 -21.800728
v -8.216547 6.449996 -29.370007
v 8.216501 6.449996 -29.369997
v 8.216501 -0.000004 -29.369997
v -8.216547 -0.000004 -29.370007
v 9.758038 -0.000004 -26.699997
v 9.758039 8.229996 -26.699995
v -28.001915 6.230000 -4.899263
v -21.326916 4.449997 -21.800697
v -29.543444 4.449996 -7.569254
v -18.243862 6.229998 -21.800705
v -28.001913 -0.000001 -4.899264
v -29.543446 -0.000003 -7.569260
v -18.243862 -0.000005 -21.800705
v -21.326916 -0.000005 -21.800697
v -9.758063 8.229996 -26.700003
v -9.758063 -0.000004 -26.700003
v -4.110720 16.900002 -7.120018
v 4.110744 16.900002 -7.120001
v -4.110717 20.899998 7.119997
v -8.221453 20.900002 -0.000004
v 4.110744 20.899998 7.119997
v 4.110744 16.899998 7.119997
v -4.110717 20.900002 -7.120001
v 8.221481 20.900002 -0.000004
v 8.221457 16.900002 0.000009
v 4.110744 20.900002 -7.120001
v -4.242651 13.087838 25.056154
v -0.000014 12.486785 26.707541
v -4.242652 14.967225 25.740194
v -0.000016 14.366172 27.391573
v -4.242650 8.389375 23.346062
v -0.000016 7.788324 24.997438
v 4.242625 8.389377 23.346062
v 4.242624 13.087838 25.056154
v 4.242622 14.967225 25.740194
v 5.999987 9.840445 19.359282
v 4.242634 11.291509 15.372505
v 5.999989 14.538907 21.069380
v 4.242633 15.989971 17.082605
v 5.999987 16.418291 21.753420
v 4.242633 17.869356 17.766645
v -0.000010 11.892563 13.721122
v -4.242648 11.291510 15.372500
v -0.000010 16.591026 15.431225
v -4.242649 15.989972 17.082598
v -0.000012 18.470413 16.115261
v -4.242650 17.869360 17.766640
v -6.000013 9.840445 19.359280
v -6.000012 14.538907 21.069376
v -6.000014 16.418293 21.753416
v 4.499987 18.297678 22.437458
v 3.181973 19.385977 19.447376
v -0.000015 19.836767 18.208838
v -3.181989 19.385977 19.447378
v -3.181988 17.209377 25.427542
v -0.000014 16.758587 26.666071
v 3.181962 17.209377 25.427538
v -4.500010 18.297680 22.437456
v -1.591001 18.693220 24.274517
v -0.000011 18.467827 24.893785
v 1.590973 18.693222 24.274517
v 2.249991 19.237370 22.779484
v 1.590983 19.781521 21.284439
v -0.000014 20.006914 20.665171
v -1.591001 19.781519 21.284439
v -2.250012 19.237370 22.779480
v -19.577946 13.087828 -16.202328
v -23.129402 12.486774 -13.353787
v -20.170341 14.967213 -16.544350
v -23.721794 14.366161 -13.695809
v -18.096956 8.389364 -15.347275
v -21.648411 7.788312 -12.498735
v -22.339596 8.389366 -7.998808
v -23.820587 13.087828 -8.853865
v -24.412979 14.967214 -9.195886
v -19.765625 9.840438 -4.483503
v -15.434301 11.291505 -4.012030
v -21.246618 14.538899 -5.338553
v -16.915293 15.989967 -4.867080
v -21.839012 16.418285 -5.680576
v -17.507687 17.869350 -5.209100
v -11.882839 11.892556 -6.860574
v -11.191655 11.291502 -11.360497
v -13.363831 16.591021 -7.715627
v -12.672646 15.989964 -12.215548
v -13.956225 18.470407 -8.057648
v -13.265042 17.869354 -12.557570
v -13.765622 9.840433 -14.875807
v -15.246614 14.538898 -15.730858
v -15.839010 16.418280 -16.072882
v -21.681408 18.297670 -7.321633
v -18.432915 19.385971 -6.968025
v -15.769313 19.836761 -9.104441
v -15.250935 19.385971 -12.479381
v -20.429907 17.209362 -15.469458
v -23.093494 16.758574 -13.333055
v -23.611881 17.209370 -9.958117
v -17.181408 18.297665 -15.115858
v -20.226856 18.693207 -13.515114
v -21.558649 18.467817 -12.446911
v -21.817839 18.693213 -10.759442
v -20.852612 19.237360 -9.441203
v -19.228361 19.781513 -9.264397
v -17.896561 20.006908 -10.332607
v -17.637371 19.781511 -12.020076
v -18.602608 19.237356 -13.338317
v 23.820602 13.087828 -8.853839
v 23.129419 12.486774 -13.353759
v 24.412994 14.967214 -9.195857
v 23.721815 14.366160 -13.695777
v 22.339609 8.389365 -7.998785
v 21.648430 7.788312 -12.498711
v 18.096973 8.389364 -15.347253
v 19.577965 13.087828 -16.202305
v 20.170361 14.967213 -16.544325
v 13.765641 9.840433 -14.875787
v 11.191669 11.291501 -11.360487
v 15.246634 14.538898 -15.730839
v 12.672662 15.989963 -12.215536
v 15.839029 16.418280 -16.072859
v 13.265059 17.869350 -12.557557
v 11.882852 11.892555 -6.860558
v 15.434303 11.291506 -4.012013
v 13.363842 16.591021 -7.715610
v 16.915295 15.989967 -4.867064
v 13.956239 18.470406 -8.057626
v 17.507692 17.869352 -5.209086
v 19.765636 9.840437 -4.483479
v 21.246628 14.538900 -5.338528
v 21.839025 16.418285 -5.680551
v 17.181425 18.297665 -15.115839
v 15.250945 19.385969 -12.479367
v 15.769331 19.836761 -9.104414
v 18.432924 19.385969 -6.968011
v 23.611897 17.209368 -9.958092
v 23.093513 16.758574 -13.333028
v 20.429924 17.209362 -15.469435
v 21.681419 18.297670 -7.321611
v 21.817858 18.693213 -10.759418
v 21.558666 18.467817 -12.446886
v 20.226870 18.693207 -13.515085
v 18.602625 19.237354 -13.338300
v 17.637383 19.781513 -12.020060
v 17.896578 20.006907 -10.332581
v 19.228373 19.781511 -9.264380
v 20.852621 19.237362 -9.441179
vn -0.3336 0.9427 -0.0000
vn -0.1668 0.9427 0.2889
vn -0.1668 0.9427 -0.2889
vn 0.1668 0.9427 -0.2889
vn 0.3336 0.9427 -0.0000
vn 0.1668 0.9427 0.2889
vn -0.8660 -0.0000 -0.5000
vn 0.8660 -0.0000 0.5000
vn -0.0000 -0.0000 1.0000
vn 0.8660 -0.0000 -0.5000
vn 0.4804 0.8321 0.2774
vn -0.8660 -0.0000 0.5000
vn -0.0000 -0.0000 -1.0000
vn -0.4804 0.8320 0.2774
vn -0.0000 0.8321 0.5547
vn 0.4804 0.8320 -0.2774
vn 0.4804 0.8321 -0.2773
vn -0.4804 0.8320 -0.2774
vn -0.4804 0.8321 -0.2774
vn -0.0000 0.8321 -0.5547
vn -0.5000 -0.0000 0.8660
vn -1.0000 -0.0000 -0.0000
vn 0.5000 -0.0000 0.8660
vn -0.5000 -0.0000 -0.8660
vn 1.0000 -0.0000 -0.0000
vn 0.5000 -0.0000 -0.8660
vn -0.0000 1.0000 -0.0000
vn -0.7071 -0.2418 0.6645
vn -0.0000 -0.3420 0.9397
vn 0.7071 -0.2418 0.6645
vn 0.7071 0.2418 -0.6645
vn -0.0000 0.3420 -0.9397
vn -0.7071 0.2418 -0.6645
vn 0.8000 0.5638 0.2052
vn 0.5657 0.7573 -0.3264
vn 0.6584 0.7072 0.2574
vn 0.4656 0.8665 -0.1801
vn -0.0000 0.8374 -0.5465
vn -0.5657 0.7573 -0.3264
vn -0.0000 0.9324 -0.3613
vn -0.4656 0.8665 -0.1801
vn -0.5657 0.3703 0.7368
vn -0.0000 0.2902 0.9570
vn -0.4656 0.5480 0.6949
vn -0.0000 0.4820 0.8761
vn 0.5657 0.3703 0.7368
vn 0.4656 0.5480 0.6949
vn -0.8000 0.5638 0.2052
vn -0.6584 0.7072 0.2574
vn -0.1810 0.8465 0.5007
vn -0.0000 0.8208 0.5712
vn 0.1810 0.8465 0.5007
vn 0.2560 0.9084 0.3306
vn 0.1810 0.9703 0.1605
vn -0.0000 0.9959 0.0900
vn -0.1810 0.9703 0.1605
vn -0.2560 0.9084 0.3306
vn -0.2219 -0.2418 -0.9446
vn -0.8138 -0.3420 -0.4698
vn -0.9290 -0.2418 0.2801
vn 0.2219 0.2418 0.9446
vn 0.8138 0.3420 0.4698
vn 0.9290 0.2418 -0.2801
vn -0.5777 0.5638 0.5902
vn -0.0002 0.7573 0.6531
vn -0.5521 0.7072 0.4415
vn -0.0768 0.8665 0.4933
vn 0.4733 0.8374 0.2733
vn 0.5655 0.7573 -0.3267
vn 0.3129 0.9324 0.1807
vn 0.3888 0.8665 -0.3132
vn -0.3552 0.3703 -0.8583
vn -0.8288 0.2902 -0.4785
vn -0.3690 0.5480 -0.7507
vn -0.7588 0.4820 -0.4381
vn -0.9209 0.3703 0.1215
vn -0.8346 0.5480 0.0557
vn 0.2223 0.5638 -0.7954
vn 0.1063 0.7072 -0.6989
vn -0.3431 0.8465 -0.4072
vn -0.4947 0.8208 -0.2856
vn -0.5242 0.8465 -0.0936
vn -0.4143 0.9084 0.0564
vn -0.2295 0.9703 0.0765
vn -0.0780 0.9959 -0.0450
vn -0.0485 0.9703 -0.2370
vn -0.1583 0.9084 -0.3870
vn 0.9290 -0.2418 0.2801
vn 0.8138 -0.3420 -0.4698
vn 0.2219 -0.2418 -0.9446
vn -0.9290 0.2418 -0.2801
vn -0.8138 0.3420 0.4698
vn -0.2219 0.2418 0.9446
vn -0.2223 0.5638 -0.7954
vn -0.5655 0.7573 -0.3267
vn -0.1063 0.7072 -0.6989
vn -0.3888 0.8665 -0.3132
vn -0.4733 0.8374 0.2733
vn 0.0002 0.7573 0.6531
vn -0.3129 0.9324 0.1807
vn 0.0768 0.8665 0.4933
vn 0.9209 0.3703 0.1215
vn 0.8288 0.2902 -0.4785
vn 0.8346 0.5480 0.0557
vn 0.7588 0.4820 -0.4381
vn 0.3552 0.3703 -0.8583
vn 0.3690 0.5480 -0.7507
vn 0.5777 0.5638 0.5902
vn 0.5521 0.7072 0.4415
vn 0.5242 0.8465 -0.0936
vn 0.4947 0.8208 -0.2856
vn 0.3431 0.8465 -0.4072
vn 0.1583 0.9084 -0.3870
vn 0.0485 0.9703 -0.2370
vn 0.0780 0.9959 -0.0450
vn 0.2295 0.9703 0.0765
vn 0.4143 0.9084 0.0564
vt 0.361172 0.721988
vt 0.360116 0.693701
vt 0.372167 0.721988
vt 0.371612 0.693701
vt 0.372334 0.721988
vt 0.360283 0.693701
vt 0.371278 0.693701
vt 0.360838 0.721988
vt 0.327298 0.722751
vt 0.327298 0.692853
vt 0.316728 0.722751
vt 0.316728 0.692853
vt 0.549898 0.903419
vt 0.495606 0.928538
vt 0.495567 0.903570
vt 0.549937 0.928387
vt 0.001522 0.844565
vt 0.001522 0.808248
vt 0.044883 0.808248
vt 0.044883 0.844565
vt 0.076018 0.786192
vt 0.076018 0.804042
vt 0.065118 0.786192
vt 0.065118 0.804042
vt 0.037356 0.763990
vt 0.037356 0.754535
vt 0.060389 0.763990
vt 0.060389 0.754535
vt 0.315506 0.669134
vt 0.373478 0.641159
vt 0.315506 0.641159
vt 0.373478 0.669134
vt 0.554298 0.805955
vt 0.565901 0.798902
vt 0.565901 0.784796
vt 0.554298 0.777744
vt 0.037256 0.503325
vt 0.037256 0.561601
vt 0.061158 0.503325
vt 0.061158 0.561601
vt 0.534785 0.903442
vt 0.511886 0.903442
vt 0.534785 0.928374
vt 0.511886 0.928374
vt 0.037255 0.503325
vt 0.037255 0.561601
vt 0.061157 0.503325
vt 0.061157 0.561601
vt 0.919732 0.756165
vt 0.925325 0.767671
vt 0.926571 0.755599
vt 0.929878 0.762953
vt 0.937118 0.772997
vt 0.950413 0.768194
vt 0.937457 0.766084
vt 0.945301 0.762809
vt 0.950880 0.741815
vt 0.937296 0.736382
vt 0.945505 0.746826
vt 0.937285 0.743851
vt 0.923929 0.742843
vt 0.929501 0.747880
vt 0.956154 0.755091
vt 0.949032 0.754963
vt 0.941352 0.751205
vt 0.937505 0.749785
vt 0.933724 0.751822
vt 0.932220 0.755157
vt 0.934092 0.758466
vt 0.937666 0.760381
vt 0.941326 0.758781
vt 0.942930 0.755060
vt 0.164347 0.554626
vt 0.153280 0.543559
vt 0.137628 0.543559
vt 0.164347 0.570278
vt 0.126561 0.554626
vt 0.153280 0.581345
vt 0.126561 0.570278
vt 0.137628 0.581345
s 1
usemtl Material.001
f 1/1/1 2/2/1 3/3/2
f 2/2/1 4/4/2 3/3/2
f 63/5/3 14/6/4 5/7/3
f 64/8/4 14/6/4 63/5/3
f 71/9/5 15/10/5 64/11/4
f 64/11/4 15/10/5 14/12/4
f 68/9/6 20/10/6 71/11/5
f 71/3/5 20/2/6 15/4/5
f 3/9/2 4/10/2 68/11/6
f 68/11/6 4/10/2 20/12/6
f 63/9/3 5/10/3 1/11/1
f 1/11/1 5/10/3 2/12/1
s 2
f 5/13/7 6/14/7 2/15/7
f 7/16/7 6/14/7 5/13/7
s 3
f 8/17/8 9/18/8 10/19/8
f 8/17/8 10/19/8 11/20/8
s 4
f 10/21/9 9/22/9 12/23/9
f 12/23/9 9/22/9 13/24/9
s 5
f 14/15/10 15/13/10 16/14/10
f 15/13/10 17/16/10 16/14/10
s 6
f 11/21/10 18/23/10 8/22/10
f 8/22/10 18/23/10 19/24/10
s 7
f 20/15/9 4/13/9 21/16/9
f 21/16/9 22/14/9 20/15/9
s 8
f 13/25/11 9/26/11 19/27/11
f 19/27/11 9/26/11 8/28/11
s 9
f 23/17/12 24/18/12 25/19/12
f 23/17/12 25/19/12 26/20/12
s 10
f 14/13/13 7/14/13 5/15/13
f 16/16/13 7/14/13 14/13/13
s 11
f 25/21/7 24/22/7 27/23/7
f 27/23/7 24/22/7 28/24/7
s 12
f 21/14/12 4/15/12 2/13/12
f 6/16/12 21/14/12 2/13/12
s 13
f 26/21/9 29/23/9 23/22/9
f 23/22/9 29/23/9 30/24/9
s 14
f 28/25/14 24/26/14 30/27/14
f 30/27/14 24/26/14 23/28/14
s 15
f 20/13/8 17/14/8 15/15/8
f 22/16/8 17/14/8 20/13/8
s 16
f 31/17/9 32/18/9 33/19/9
f 31/17/9 33/19/9 34/20/9
s 17
f 33/21/12 32/22/12 35/23/12
f 35/23/12 32/22/12 36/24/12
s 18
f 34/21/8 37/23/8 31/22/8
f 31/22/8 37/23/8 38/24/8
s 19
f 36/25/15 32/26/15 38/27/15
f 38/27/15 32/26/15 31/28/15
s 20
f 39/17/10 40/18/10 41/19/10
f 39/17/10 41/19/10 42/20/10
s 21
f 41/21/8 40/22/8 43/23/8
f 43/23/8 40/22/8 44/24/8
s 22
f 42/21/13 45/23/13 39/22/13
f 39/22/13 45/23/13 46/24/13
s 23
f 44/25/16 40/26/16 46/27/17
f 46/27/17 40/26/16 39/28/17
s 24
f 47/17/13 48/18/13 49/19/13
f 47/17/13 49/19/13 50/20/13
s 25
f 49/21/10 48/22/10 51/23/10
f 51/23/10 48/22/10 52/24/10
s 26
f 53/27/18 54/26/19 55/28/18
f 56/25/19 54/26/19 53/27/18
s 27
f 55/22/12 57/23/12 53/24/12
f 58/21/12 57/23/12 55/22/12
s 28
f 59/23/13 54/22/13 56/24/13
f 60/21/13 54/22/13 59/23/13
s 29
f 55/17/7 60/19/7 58/20/7
f 55/17/7 54/18/7 60/19/7
s 30
f 61/27/20 48/26/20 47/28/20
f 52/25/20 48/26/20 61/27/20
s 31
f 47/22/7 62/23/7 61/24/7
f 50/21/7 62/23/7 47/22/7
s 32
f 65/29/21 1/30/22 3/31/21
f 66/32/22 1/30/22 65/29/21
f 67/29/23 3/30/21 68/31/23
f 65/32/21 3/30/21 67/29/23
f 66/29/22 63/30/24 1/31/22
f 69/32/24 63/30/24 66/29/22
f 70/30/25 68/29/23 71/32/25
f 67/31/23 68/29/23 70/30/25
f 69/29/24 64/30/26 63/31/24
f 72/32/26 64/30/26 69/29/24
f 72/29/26 71/30/25 64/31/26
f 70/32/25 71/30/25 72/29/26
s 33
f 65/33/27 67/34/27 70/35/27
f 72/36/27 69/35/27 66/34/27
f 65/33/27 70/35/27 72/36/27
f 66/34/27 65/33/27 72/36/27
s 34
f 73/37/28 74/38/29 75/39/28
f 75/39/28 74/38/29 76/40/29
f 77/41/28 78/42/29 73/43/28
f 73/43/28 78/42/29 74/44/29
f 78/41/29 79/42/30 74/43/29
f 74/43/29 79/42/30 80/44/30
f 74/37/29 80/38/30 76/39/29
f 76/39/29 80/38/30 81/40/30
f 82/41/25 83/42/31 84/43/25
f 84/43/25 83/42/31 85/44/31
f 84/45/25 85/46/31 86/47/25
f 86/47/25 85/46/31 87/48/31
f 88/41/32 89/42/33 90/43/32
f 90/43/32 89/42/33 91/44/33
f 90/37/32 91/38/33 92/39/32
f 92/39/32 91/38/33 93/40/33
f 79/41/30 82/42/25 80/43/30
f 80/43/30 82/42/25 84/44/25
f 80/37/30 84/38/25 81/39/30
f 81/39/30 84/38/25 86/40/25
f 83/41/31 88/42/32 85/43/31
f 85/43/31 88/42/32 90/44/32
f 85/45/31 90/46/32 87/47/31
f 87/47/31 90/46/32 92/48/32
f 89/41/33 94/42/22 91/43/33
f 91/43/33 94/42/22 95/44/22
f 91/45/33 95/46/22 93/47/33
f 93/47/33 95/46/22 96/48/22
f 94/41/22 77/42/28 95/43/22
f 95/43/22 77/42/28 73/44/28
f 95/45/22 73/46/28 96/39/22
f 96/39/22 73/46/28 75/40/28
s 35
f 86/49/34 87/50/35 97/51/36
f 97/51/36 87/50/35 98/52/37
f 92/53/38 93/54/39 99/55/40
f 99/55/40 93/54/39 100/56/41
f 75/57/42 76/58/43 101/59/44
f 101/59/44 76/58/43 102/60/45
f 81/61/46 86/49/34 103/62/47
f 103/62/47 86/49/34 97/51/36
f 87/50/35 92/53/38 98/52/37
f 98/52/37 92/53/38 99/55/40
f 93/54/39 96/63/48 100/56/41
f 100/56/41 96/63/48 104/64/49
f 96/63/48 75/57/42 104/64/49
f 104/64/49 75/57/42 101/59/44
f 76/58/43 81/61/46 102/60/45
f 102/60/45 81/61/46 103/62/47
f 101/59/44 102/60/45 105/65/50
f 105/65/50 102/60/45 106/66/51
f 103/62/47 97/51/36 107/67/52
f 107/67/52 97/51/36 108/68/53
f 98/52/37 99/55/40 109/69/54
f 109/69/54 99/55/40 110/70/55
f 100/56/41 104/64/49 111/71/56
f 111/71/56 104/64/49 112/72/57
f 104/64/49 101/59/44 112/72/57
f 112/72/57 101/59/44 105/65/50
f 102/60/45 103/62/47 106/66/51
f 106/66/51 103/62/47 107/67/52
f 97/51/36 98/52/37 108/68/53
f 108/68/53 98/52/37 109/69/54
f 99/55/40 100/56/41 110/70/55
f 110/70/55 100/56/41 111/71/56
f 107/73/52 108/74/53 109/75/54
f 109/75/54 106/76/51 107/73/52
f 110/77/55 106/76/51 109/75/54
f 105/78/50 106/76/51 110/77/55
f 105/78/50 110/77/55 111/79/56
f 111/79/56 112/80/57 105/78/50
s 36
f 113/37/58 114/38/59 115/39/58
f 115/39/58 114/38/59 116/40/59
f 117/41/58 118/42/59 113/43/58
f 113/43/58 118/42/59 114/44/59
f 118/41/59 119/42/60 114/43/59
f 114/43/59 119/42/60 120/44/60
f 114/37/59 120/38/60 116/39/59
f 116/39/59 120/38/60 121/40/60
f 122/41/21 123/42/61 124/43/21
f 124/43/21 123/42/61 125/44/61
f 124/45/21 125/46/61 126/47/21
f 126/47/21 125/46/61 127/48/61
f 128/41/62 129/42/63 130/43/62
f 130/43/62 129/42/63 131/44/63
f 130/37/62 131/38/63 132/39/62
f 132/39/62 131/38/63 133/40/63
f 119/41/60 122/42/21 120/43/60
f 120/43/60 122/42/21 124/44/21
f 120/37/60 124/38/21 121/39/60
f 121/39/60 124/38/21 126/40/21
f 123/41/61 128/42/62 125/43/61
f 125/43/61 128/42/62 130/44/62
f 125/45/61 130/46/62 127/47/61
f 127/47/61 130/46/62 132/48/62
f 129/41/63 134/42/26 131/43/63
f 131/43/63 134/42/26 135/44/26
f 131/45/63 135/46/26 133/47/63
f 133/47/63 135/46/26 136/48/26
f 134/41/26 117/42/58 135/43/26
f 135/43/26 117/42/58 113/44/58
f 135/45/26 113/46/58 136/39/26
f 136/39/26 113/46/58 115/40/58
s 37
f 126/49/64 127/50/65 137/51/66
f 137/51/66 127/50/65 138/52/67
f 132/53/68 133/54/69 139/55/70
f 139/55/70 133/54/69 140/56/71
f 115/57/72 116/58/73 141/59/74
f 141/59/74 116/58/73 142/60/75
f 121/61/76 126/49/64 143/62/77
f 143/62/77 126/49/64 137/51/66
f 127/50/65 132/53/68 138/52/67
f 138/52/67 132/53/68 139/55/70
f 133/54/69 136/63/78 140/56/71
f 140/56/71 136/63/78 144/64/79
f 136/63/78 115/57/72 144/64/79
f 144/64/79 115/57/72 141/59/74
f 116/58/73 121/61/76 142/60/75
f 142/60/75 121/61/76 143/62/77
f 141/59/74 142/60/75 145/65/80
f 145/65/80 142/60/75 146/66/81
f 143/62/77 137/51/66 147/67/82
f 147/67/82 137/51/66 148/68/83
f 138/52/67 139/55/70 149/69/84
f 149/69/84 139/55/70 150/70/85
f 140/56/71 144/64/79 151/71/86
f 151/71/86 144/64/79 152/72/87
f 144/64/79 141/59/74 152/72/87
f 152/72/87 141/59/74 145/65/80
f 142/60/75 143/62/77 146/66/81
f 146/66/81 143/62/77 147/67/82
f 137/51/66 138/52/67 148/68/83
f 148/68/83 138/52/67 149/69/84
f 139/55/70 140/56/71 150/70/85
f 150/70/85 140/56/71 151/71/86
f 147/73/82 148/74/83 149/75/84
f 149/75/84 146/76/81 147/73/82
f 150/77/85 146/76/81 149/75/84
f 145/78/80 146/76/81 150/77/85
f 145/78/80 150/77/85 151/79/86
f 151/79/86 152/80/87 145/78/80
s 38
f 153/37/88 154/38/89 155/39/88
f 155/39/88 154/38/89 156/40/89
f 157/41/88 158/42/89 153/43/88
f 153/43/88 158/42/89 154/44/89
f 158/41/89 159/42/90 154/43/89
f 154/43/89 159/42/90 160/44/90
f 154/37/89 160/38/90 156/39/89
f 156/39/89 160/38/90 161/40/90
f 162/41/24 163/42/91 164/43/24
f 164/43/24 163/42/91 165/44/91
f 164/45/24 165/46/91 166/47/24
f 166/47/24 165/46/91 167/48/91
f 168/41/92 169/42/93 170/43/92
f 170/43/92 169/42/93 171/44/93
f 170/37/92 171/38/93 172/39/92
f 172/39/92 171/38/93 173/40/93
f 159/41/90 162/42/24 160/43/90
f 160/43/90 162/42/24 164/44/24
f 160/37/90 164/38/24 161/39/90
f 161/39/90 164/38/24 166/40/24
f 163/41/91 168/42/92 165/43/91
f 165/43/91 168/42/92 170/44/92
f 165/45/91 170/46/92 167/47/91
f 167/47/91 170/46/92 172/48/92
f 169/41/93 174/42/23 171/43/93
f 171/43/93 174/42/23 175/44/23
f 171/45/93 175/46/23 173/47/93
f 173/47/93 175/46/23 176/48/23
f 174/41/23 157/42/88 175/43/23
f 175/43/23 157/42/88 153/44/88
f 175/45/23 153/46/88 176/39/23
f 176/39/23 153/46/88 155/40/88
s 39
f 166/49/94 167/50/95 177/51/96
f 177/51/96 167/50/95 178/52/97
f 172/53/98 173/54/99 179/55/100
f 179/55/100 173/54/99 180/56/101
f 155/57/102 156/58/103 181/59/104
f 181/59/104 156/58/103 182/60/105
f 161/61/106 166/49/94 183/62/107
f 183/62/107 166/49/94 177/51/96
f 167/50/95 172/53/98 178/52/97
f 178/52/97 172/53/98 179/55/100
f 173/54/99 176/63/108 180/56/101
f 180/56/101 176/63/108 184/64/109
f 176/63/108 155/57/102 184/64/109
f 184/64/109 155/57/102 181/59/104
f 156/58/103 161/61/106 182/60/105
f 182/60/105 161/61/106 183/62/107
f 181/59/104 182/60/105 185/65/110
f 185/65/110 182/60/105 186/66/111
f 183/62/107 177/51/96 187/67/112
f 187/67/112 177/51/96 188/68/113
f 178/52/97 179/55/100 189/69/114
f 189/69/114 179/55/100 190/70/115
f 180/56/101 184/64/109 191/71/116
f 191/71/116 184/64/109 192/72/117
f 184/64/109 181/59/104 192/72/117
f 192/72/117 181/59/104 185/65/110
f 182/60/105 183/62/107 186/66/111
f 186/66/111 183/62/107 187/67/112
f 177/51/96 178/52/97 188/68/113
f 188/68/113 178/52/97 189/69/114
f 179/55/100 180/56/101 190/70/115
f 190/70/115 180/56/101 191/71/116
f 187/73/112 188/74/113 189/75/114
f 189/75/114 186/76/111 187/73/112
f 190/77/115 186/76/111 189/75/114
f 185/78/110 186/76/111 190/77/115
f 185/78/110 190/77/115 191/79/116
f 191/79/116 192/80/117 185/78/110
