# Blender 3.6.4
# www.blender.org
mtllib legperditionplat.mtl
o platform
v -8.222280 23.208826 3.357345
v -8.222281 23.208826 -3.647367
v -10.348019 26.390217 3.357345
v -10.348019 26.390217 -3.647366
v -11.094479 30.142925 3.357345
v -11.094479 30.142925 -3.647366
v -10.348019 33.895634 3.357345
v -10.348019 33.895634 -3.647366
v -8.222281 37.077023 3.357345
v -8.222281 37.077023 -3.647367
v -5.040890 39.202763 3.357344
v -5.040891 39.202763 -3.647367
v -1.288182 39.949223 3.357344
v -1.288183 39.949223 -3.647367
v 2.464525 39.202763 3.357344
v 2.464525 39.202763 -3.647367
v 0.301339 26.713587 -19.686045
v 7.779369 26.713587 -18.198572
v 14.118937 26.713587 -13.962607
v 18.354900 26.713587 -7.623041
v 19.842375 26.713587 -0.145011
v 18.354900 26.713587 7.333019
v 14.118937 26.713587 13.672585
v 7.779369 26.713587 17.908548
v 0.301339 26.713587 19.396021
v -7.176691 26.713587 17.908548
v -13.516260 26.713587 13.672585
v -17.752222 26.713587 7.333018
v -19.239695 26.713587 -0.145011
v -17.752222 26.713587 -7.623042
v -13.516259 26.713587 -13.962607
v -7.176692 26.713587 -18.198572
vn -0.8315 -0.5556 -0.0000
vn -0.3434 -0.1422 0.9284
vn -0.3434 -0.1422 -0.9284
vn -0.3717 -0.0000 -0.9284
vn -0.3717 -0.0000 0.9284
vn -0.3434 0.1422 -0.9284
vn -0.3434 0.1422 0.9284
vn -0.2628 0.2628 -0.9284
vn -0.2628 0.2628 0.9284
vn -0.1422 0.3434 -0.9284
vn -0.1422 0.3434 0.9284
vn -0.0000 0.3717 -0.9284
vn -0.0000 0.3717 0.9284
vn 0.1951 0.9808 -0.0000
vn -0.0000 -0.0000 1.0000
vn -0.0000 -0.0000 -1.0000
vn -0.0000 1.0000 -0.0000
vt 0.346566 0.973109
vt 0.340770 0.973109
vt 0.340770 0.967874
vt 0.346566 0.967874
vt 0.340770 0.962640
vt 0.346566 0.962640
vt 0.340770 0.957404
vt 0.346566 0.957404
vt 0.340770 0.952169
vt 0.346566 0.952169
vt 0.340770 0.946935
vt 0.346566 0.946935
vt 0.340770 0.941700
vt 0.346566 0.941700
vt 0.340770 0.936464
vt 0.346566 0.936464
vt 0.823015 0.753390
vt 0.867354 0.723764
vt 0.858534 0.717871
vt 0.848131 0.715801
vt 0.837727 0.717871
vt 0.828908 0.723764
vt 0.823015 0.732583
vt 0.820945 0.742987
vt 0.867394 0.723929
vt 0.823054 0.753556
vt 0.820985 0.743152
vt 0.823054 0.732749
vt 0.828948 0.723929
vt 0.837767 0.718036
vt 0.848171 0.715967
vt 0.858574 0.718036
vt 0.694502 0.499662
vt 0.697127 0.497908
vt 0.698880 0.495283
vt 0.699496 0.492188
vt 0.698880 0.489092
vt 0.697127 0.486467
vt 0.694502 0.484713
vt 0.691406 0.484098
vt 0.688310 0.484713
vt 0.685686 0.486467
vt 0.683932 0.489092
vt 0.683316 0.492188
vt 0.683932 0.495283
vt 0.685686 0.497908
vt 0.688310 0.499662
vt 0.691406 0.500277
s 0
usemtl Material.001
f 1/1/1 3/4/1 4/3/1 2/2/1
s 2
f 3/4/2 5/6/5 6/5/4 4/3/3
f 5/6/5 7/8/7 8/7/6 6/5/4
f 7/8/7 9/10/9 10/9/8 8/7/6
f 9/10/9 11/12/11 12/11/10 10/9/8
f 11/12/11 13/14/13 14/13/12 12/11/10
s 0
f 13/14/14 15/16/14 16/15/14 14/13/14
f 15/17/15 13/24/15 11/23/15 9/22/15 7/21/15 5/20/15 3/19/15 1/18/15
f 2/25/16 4/32/16 6/31/16 8/30/16 10/29/16 12/28/16 14/27/16 16/26/16
f 18/33/17 17/48/17 32/47/17 31/46/17 30/45/17 29/44/17 28/43/17 27/42/17 26/41/17 25/40/17 24/39/17 23/38/17 22/37/17 21/36/17 20/35/17 19/34/17
