# Exported from Wings 3D 2.2.6.1
mtllib skinecubeseparate.mtl
o cube3,ox=0.00,oy=120,oz=00,p=cube2
#12 vertices, 16 faces
v -10.00000000 120.00000000 -10.00000000
v -10.00000000 120.00000000 10.00000000
v -10.00000000 150.00000000 -10.00000000
v -10.00000000 150.00000000 10.00000000
v 10.00000000 120.00000000 -10.00000000
v 10.00000000 120.00000000 10.00000000
v 10.00000000 150.00000000 -10.00000000
v 10.00000000 150.00000000 10.00000000
v -10.00000000 180.00000000 -10.00000000
v -10.00000000 180.00000000 10.00000000
v 10.00000000 180.00000000 -10.00000000
v 10.00000000 180.00000000 10.00000000
# Weights for all are fully bone 2
vt 2.999 2.001
vt 2.999 2.001
vt 2.999 2.001
vt 2.999 2.001
vt 2.999 2.001
vt 2.999 2.001
vn -0.70710678 0.0000000e+0 -0.70710678
vn -0.70710678 0.0000000e+0 0.70710678
vn -0.70710678 0.0000000e+0 -0.70710678
vn -0.70710678 0.0000000e+0 0.70710678
vn 0.70710678 0.0000000e+0 -0.70710678
vn 0.70710678 0.0000000e+0 0.70710678
vn 0.70710678 0.0000000e+0 -0.70710678
vn 0.70710678 0.0000000e+0 0.70710678
vn -0.70710678 0.0000000e+0 -0.70710678
vn -0.70710678 0.0000000e+0 0.70710678
vn 0.70710678 0.0000000e+0 -0.70710678
vn 0.70710678 0.0000000e+0 0.70710678
g cube3,ox=0.00,oy=120,oz=00,p=cube2_cube3,ox=0.00,oy=120,oz=00,p=cube2_auv
usemtl cube3,ox=0.00,oy=120,oz=00,p=cube2_auv
s 1
f 1/1/1 4/3/4 3/4/3
f 1/1/1 7/4/7 5/1/5
f 2/2/2 4/3/4 1/1/1
f 2/2/2 6/2/6 4/3/4
f 3/4/3 7/4/7 1/1/1
f 3/4/3 9/6/9 7/4/7
f 4/3/4 6/2/6 8/3/8
f 4/3/4 9/6/9 3/4/3
f 4/3/4 12/5/12 10/5/10
f 5/1/5 7/4/7 6/2/6
f 6/2/6 7/4/7 8/3/8
f 7/4/7 12/5/12 8/3/8
f 8/3/8 12/5/12 4/3/4
f 9/6/9 4/3/4 10/5/10
f 11/6/11 7/4/7 9/6/9
f 12/5/12 7/4/7 11/6/11
o cube2,ox=0.00,oy=60,oz=00,p=cube1
#12 vertices, 16 faces
v -10.00000000 60.00000000 -10.00000000
v -10.00000000 60.00000000 10.00000000
v -10.00000000 90.00000000 -10.00000000
v -10.00000000 90.00000000 10.00000000
v 10.00000000 60.00000000 -10.00000000
v 10.00000000 60.00000000 10.00000000
v 10.00000000 90.00000000 -10.00000000
v 10.00000000 90.00000000 10.00000000
v -10.00000000 120.00000000 -10.00000000
v -10.00000000 120.00000000 10.00000000
v 10.00000000 120.00000000 -10.00000000
v 10.00000000 120.00000000 10.00000000
# Weights for bottom row are fully to bone 1
vt 1.999 1.9999
# Weights for middle row are half bone 1, half bone 2
vt 1.5 2.5
vt 1.5 2.5
#Weights for top row are fully bone 2
vt 2.999 2.001
vt 2.999 2.001
vn -0.70710678 0.0000000e+0 -0.70710678
vn -0.70710678 0.0000000e+0 0.70710678
vn -0.70710678 0.0000000e+0 -0.70710678
vn -0.70710678 0.0000000e+0 0.70710678
vn 0.70710678 0.0000000e+0 -0.70710678
vn 0.70710678 0.0000000e+0 0.70710678
vn 0.70710678 0.0000000e+0 -0.70710678
vn 0.70710678 0.0000000e+0 0.70710678
vn -0.70710678 0.0000000e+0 -0.70710678
vn -0.70710678 0.0000000e+0 0.70710678
vn 0.70710678 0.0000000e+0 -0.70710678
vn 0.70710678 0.0000000e+0 0.70710678
g cube2,ox=0.00,oy=60,oz=00,p=cube1_cube2,ox=0.00,oy=60,oz=00,p=cube1_auv
usemtl cube2,ox=0.00,oy=60,oz=00,p=cube1_auv
s 1
f 13/7/13 16/8/16 15/9/15
f 13/7/13 19/9/19 17/7/17
f 14/7/14 16/8/16 13/7/13
f 14/7/14 18/7/18 16/8/16
f 15/9/15 19/9/19 13/7/13
f 15/9/15 21/10/21 19/9/19
f 16/8/16 18/7/18 20/8/20
f 16/8/16 21/10/21 15/9/15
f 16/8/16 24/11/24 22/11/22
f 17/7/17 19/9/19 18/7/18
f 18/7/18 19/9/19 20/8/20
f 19/9/19 24/11/24 20/8/20
f 20/8/20 24/11/24 16/8/16
f 21/10/21 16/8/16 22/11/22
f 23/10/23 19/9/19 21/10/21
f 24/11/24 19/9/19 23/10/23
o cube1,ox=-0.00,oy=0.00,oz=0,p=,mx=0.00,my=0.00,mz=0.00,r=26.00,h=46.00,t1=,t2=_copy31
#12 vertices, 16 faces
v -10.00000000 0.0000000e+0 -10.00000000
v -10.00000000 0.0000000e+0 10.00000000
v -10.00000000 30.00000000 -10.00000000
v -10.00000000 30.00000000 10.00000000
v 10.00000000 0.0000000e+0 -10.00000000
v 10.00000000 0.0000000e+0 10.00000000
v 10.00000000 30.00000000 -10.00000000
v 10.00000000 30.00000000 10.00000000
v -10.00000000 60.00000000 -10.00000000
v -10.00000000 60.00000000 10.00000000
v 10.00000000 60.00000000 -10.00000000
v 10.00000000 60.00000000 10.00000000
#Weights for bottom row are 0.001, 0.001, so motionless
vt 0.0001 0.0001
vt 0.0001 0.0001
# Weights for middle row are fully bone 0
vt 0.999 0.001
# Weights for top row are fully bone 1
vt 1.999 1.001
vn -0.70710678 0.0000000e+0 -0.70710678
vn -0.70710678 0.0000000e+0 0.70710678
vn -0.70710678 0.0000000e+0 -0.70710678
vn -0.70710678 0.0000000e+0 0.70710678
vn 0.70710678 0.0000000e+0 -0.70710678
vn 0.70710678 0.0000000e+0 0.70710678
vn 0.70710678 0.0000000e+0 -0.70710678
vn 0.70710678 0.0000000e+0 0.70710678
vn -0.70710678 0.0000000e+0 -0.70710678
vn -0.70710678 0.0000000e+0 0.70710678
vn 0.70710678 0.0000000e+0 -0.70710678
vn 0.70710678 0.0000000e+0 0.70710678
g cube1,ox=-0.00,oy=0.00,oz=0,p=,mx=0.00,my=0.00,mz=0.00,r=26.00,h=46.00,t1=,t2=_copy31_cube1,ox=-0.00,oy=0.00,oz=0,p=,mx=0.00,my=0.00,mz=0.00,r=26.00,h=46.00,t1=,t2=_copy31_auv
usemtl cube1,ox=-0.00,oy=0.00,oz=0,p=,mx=0.00,my=0.00,mz=0.00,r=26.00,h=46.00,t1=,t2=_copy31_auv
s 1
f 25/13/25 28/14/28 27/14/27
f 25/13/25 31/14/31 29/13/29
f 26/12/26 28/14/28 25/13/25
f 26/12/26 30/12/30 28/14/28
f 27/14/27 31/14/31 25/13/25
f 27/14/27 33/15/33 31/14/31
f 28/14/28 30/12/30 32/14/32
f 28/14/28 33/15/33 27/14/27
f 28/14/28 36/15/36 34/15/34
f 29/13/29 31/14/31 30/12/30
f 30/12/30 31/14/31 32/14/32
f 31/14/31 36/15/36 32/14/32
f 32/14/32 36/15/36 28/14/28
f 33/15/33 28/14/28 34/15/34
f 35/15/35 31/14/31 33/15/33
f 36/15/36 31/14/31 35/15/35
